G04 #@! TF.FileFunction,Other,User*
%FSLAX46Y46*%
G04 Gerber Fmt 4.6, Leading zero omitted, Abs format (unit mm)*
G04 Created by KiCad (PCBNEW 4.0.7) date Thursday, October 12, 2017 'PMt' 07:19:01 PM*
%MOMM*%
%LPD*%
G01*
G04 APERTURE LIST*
%ADD10C,0.100000*%
%ADD11C,0.050000*%
G04 APERTURE END LIST*
D10*
D11*
X72970000Y-8955000D02*
X76880000Y-8955000D01*
X72970000Y-8955000D02*
X72970000Y-7555000D01*
X76880000Y-7555000D02*
X76880000Y-8955000D01*
X76880000Y-7555000D02*
X72970000Y-7555000D01*
X199335000Y-13400000D02*
X203245000Y-13400000D01*
X199335000Y-13400000D02*
X199335000Y-12000000D01*
X203245000Y-12000000D02*
X203245000Y-13400000D01*
X203245000Y-12000000D02*
X199335000Y-12000000D01*
X204415000Y-10860000D02*
X208325000Y-10860000D01*
X204415000Y-10860000D02*
X204415000Y-9460000D01*
X208325000Y-9460000D02*
X208325000Y-10860000D01*
X208325000Y-9460000D02*
X204415000Y-9460000D01*
X174680000Y-8825000D02*
X170770000Y-8825000D01*
X174680000Y-8825000D02*
X174680000Y-10225000D01*
X170770000Y-10225000D02*
X170770000Y-8825000D01*
X170770000Y-10225000D02*
X174680000Y-10225000D01*
X181030000Y-10730000D02*
X177120000Y-10730000D01*
X181030000Y-10730000D02*
X181030000Y-12130000D01*
X177120000Y-12130000D02*
X177120000Y-10730000D01*
X177120000Y-12130000D02*
X181030000Y-12130000D01*
X123770000Y-13400000D02*
X127680000Y-13400000D01*
X123770000Y-13400000D02*
X123770000Y-12000000D01*
X127680000Y-12000000D02*
X127680000Y-13400000D01*
X127680000Y-12000000D02*
X123770000Y-12000000D01*
X129485000Y-10225000D02*
X133395000Y-10225000D01*
X129485000Y-10225000D02*
X129485000Y-8825000D01*
X133395000Y-8825000D02*
X133395000Y-10225000D01*
X133395000Y-8825000D02*
X129485000Y-8825000D01*
X95940000Y-10730000D02*
X92030000Y-10730000D01*
X95940000Y-10730000D02*
X95940000Y-12130000D01*
X92030000Y-12130000D02*
X92030000Y-10730000D01*
X92030000Y-12130000D02*
X95940000Y-12130000D01*
X104195000Y-11365000D02*
X100285000Y-11365000D01*
X104195000Y-11365000D02*
X104195000Y-12765000D01*
X100285000Y-12765000D02*
X100285000Y-11365000D01*
X100285000Y-12765000D02*
X104195000Y-12765000D01*
X48205000Y-14035000D02*
X52115000Y-14035000D01*
X48205000Y-14035000D02*
X48205000Y-12635000D01*
X52115000Y-12635000D02*
X52115000Y-14035000D01*
X52115000Y-12635000D02*
X48205000Y-12635000D01*
X52015000Y-10860000D02*
X55925000Y-10860000D01*
X52015000Y-10860000D02*
X52015000Y-9460000D01*
X55925000Y-9460000D02*
X55925000Y-10860000D01*
X55925000Y-9460000D02*
X52015000Y-9460000D01*
X21645000Y-10095000D02*
X17735000Y-10095000D01*
X21645000Y-10095000D02*
X21645000Y-11495000D01*
X17735000Y-11495000D02*
X17735000Y-10095000D01*
X17735000Y-11495000D02*
X21645000Y-11495000D01*
X27995000Y-12000000D02*
X24085000Y-12000000D01*
X27995000Y-12000000D02*
X27995000Y-13400000D01*
X24085000Y-13400000D02*
X24085000Y-12000000D01*
X24085000Y-13400000D02*
X27995000Y-13400000D01*
X220345000Y-3810000D02*
X220345000Y-34290000D01*
X189865000Y-3810000D02*
X189865000Y-34290000D01*
X220345000Y-34290000D02*
X189865000Y-34290000D01*
X220345000Y-3810000D02*
X189865000Y-3810000D01*
X219605000Y-8360000D02*
X219605000Y-29710000D01*
X219605000Y-29710000D02*
X216005000Y-29710000D01*
X216005000Y-29710000D02*
X216005000Y-8360000D01*
X216005000Y-8360000D02*
X219605000Y-8360000D01*
X63500000Y-38100000D02*
X63500000Y0D01*
X83820000Y0D02*
X83820000Y-38100000D01*
X83820000Y0D02*
X63500000Y0D01*
X83820000Y-38100000D02*
X63500000Y-38100000D01*
X182372000Y-12192000D02*
X182372000Y-28448000D01*
X182372000Y-28448000D02*
X198628000Y-28448000D01*
X198628000Y-28448000D02*
X198628000Y-12192000D01*
X198628000Y-12192000D02*
X182372000Y-12192000D01*
X106172000Y-13462000D02*
X106172000Y-29718000D01*
X106172000Y-29718000D02*
X122428000Y-29718000D01*
X122428000Y-29718000D02*
X122428000Y-13462000D01*
X122428000Y-13462000D02*
X106172000Y-13462000D01*
X31242000Y-13462000D02*
X31242000Y-29718000D01*
X31242000Y-29718000D02*
X47498000Y-29718000D01*
X47498000Y-29718000D02*
X47498000Y-13462000D01*
X47498000Y-13462000D02*
X31242000Y-13462000D01*
X10740000Y-11120000D02*
X10740000Y-16820000D01*
X10740000Y-16820000D02*
X5040000Y-16820000D01*
X5040000Y-16820000D02*
X5040000Y-11120000D01*
X5040000Y-11120000D02*
X10740000Y-11120000D01*
X34615000Y-690000D02*
X40315000Y-690000D01*
X40315000Y-690000D02*
X40315000Y-6390000D01*
X40315000Y-6390000D02*
X34615000Y-6390000D01*
X34615000Y-6390000D02*
X34615000Y-690000D01*
M02*
