G04 #@! TF.FileFunction,Other,User*
%FSLAX46Y46*%
G04 Gerber Fmt 4.6, Leading zero omitted, Abs format (unit mm)*
G04 Created by KiCad (PCBNEW 4.0.7) date Thursday, October 12, 2017 'PMt' 07:19:01 PM*
%MOMM*%
%LPD*%
G01*
G04 APERTURE LIST*
%ADD10C,0.100000*%
%ADD11C,0.050000*%
G04 APERTURE END LIST*
D10*
D11*
X71175000Y-23560000D02*
X67265000Y-23560000D01*
X71175000Y-23560000D02*
X71175000Y-22160000D01*
X67265000Y-22160000D02*
X67265000Y-23560000D01*
X67265000Y-22160000D02*
X71175000Y-22160000D01*
X28510000Y-31170000D02*
X28510000Y-27260000D01*
X28510000Y-31170000D02*
X29910000Y-31170000D01*
X29910000Y-27260000D02*
X28510000Y-27260000D01*
X29910000Y-27260000D02*
X29910000Y-31170000D01*
X34355000Y-27250000D02*
X34355000Y-31160000D01*
X34355000Y-27250000D02*
X32955000Y-27250000D01*
X32955000Y-31160000D02*
X34355000Y-31160000D01*
X32955000Y-31160000D02*
X32955000Y-27250000D01*
X42610000Y-18360000D02*
X42610000Y-22270000D01*
X42610000Y-18360000D02*
X41210000Y-18360000D01*
X41210000Y-22270000D02*
X42610000Y-22270000D01*
X41210000Y-22270000D02*
X41210000Y-18360000D01*
X47055000Y-27250000D02*
X47055000Y-31160000D01*
X47055000Y-27250000D02*
X45655000Y-27250000D01*
X45655000Y-31160000D02*
X47055000Y-31160000D01*
X45655000Y-31160000D02*
X45655000Y-27250000D01*
X36260000Y-18360000D02*
X36260000Y-22270000D01*
X36260000Y-18360000D02*
X34860000Y-18360000D01*
X34860000Y-22270000D02*
X36260000Y-22270000D01*
X34860000Y-22270000D02*
X34860000Y-18360000D01*
X40705000Y-27250000D02*
X40705000Y-31160000D01*
X40705000Y-27250000D02*
X39305000Y-27250000D01*
X39305000Y-31160000D02*
X40705000Y-31160000D01*
X39305000Y-31160000D02*
X39305000Y-27250000D01*
X83240000Y-31180000D02*
X79330000Y-31180000D01*
X83240000Y-31180000D02*
X83240000Y-29780000D01*
X79330000Y-29780000D02*
X79330000Y-31180000D01*
X79330000Y-29780000D02*
X83240000Y-29780000D01*
X72445000Y-33085000D02*
X68535000Y-33085000D01*
X72445000Y-33085000D02*
X72445000Y-31685000D01*
X68535000Y-31685000D02*
X68535000Y-33085000D01*
X68535000Y-31685000D02*
X72445000Y-31685000D01*
X57085000Y-36885000D02*
X57085000Y-32975000D01*
X57085000Y-36885000D02*
X58485000Y-36885000D01*
X58485000Y-32975000D02*
X57085000Y-32975000D01*
X58485000Y-32975000D02*
X58485000Y-36885000D01*
X59635000Y-35495000D02*
X63545000Y-35495000D01*
X59635000Y-35495000D02*
X59635000Y-36895000D01*
X63545000Y-36895000D02*
X63545000Y-35495000D01*
X63545000Y-36895000D02*
X59635000Y-36895000D01*
X224220000Y-22805000D02*
X224220000Y-26715000D01*
X224220000Y-22805000D02*
X222820000Y-22805000D01*
X222820000Y-26715000D02*
X224220000Y-26715000D01*
X222820000Y-26715000D02*
X222820000Y-22805000D01*
X76770000Y-26090000D02*
X76770000Y-22180000D01*
X76770000Y-26090000D02*
X78170000Y-26090000D01*
X78170000Y-22180000D02*
X76770000Y-22180000D01*
X78170000Y-22180000D02*
X78170000Y-26090000D01*
X201995000Y-7565000D02*
X201995000Y-11475000D01*
X201995000Y-7565000D02*
X200595000Y-7565000D01*
X200595000Y-11475000D02*
X201995000Y-11475000D01*
X200595000Y-11475000D02*
X200595000Y-7565000D01*
X181675000Y-7565000D02*
X181675000Y-11475000D01*
X181675000Y-7565000D02*
X180275000Y-7565000D01*
X180275000Y-11475000D02*
X181675000Y-11475000D01*
X180275000Y-11475000D02*
X180275000Y-7565000D01*
X122620000Y-8200000D02*
X122620000Y-12110000D01*
X122620000Y-8200000D02*
X121220000Y-8200000D01*
X121220000Y-12110000D02*
X122620000Y-12110000D01*
X121220000Y-12110000D02*
X121220000Y-8200000D01*
X110555000Y-8200000D02*
X110555000Y-12110000D01*
X110555000Y-8200000D02*
X109155000Y-8200000D01*
X109155000Y-12110000D02*
X110555000Y-12110000D01*
X109155000Y-12110000D02*
X109155000Y-8200000D01*
X47690000Y-5025000D02*
X47690000Y-8935000D01*
X47690000Y-5025000D02*
X46290000Y-5025000D01*
X46290000Y-8935000D02*
X47690000Y-8935000D01*
X46290000Y-8935000D02*
X46290000Y-5025000D01*
X19750000Y-6295000D02*
X19750000Y-10205000D01*
X19750000Y-6295000D02*
X18350000Y-6295000D01*
X18350000Y-10205000D02*
X19750000Y-10205000D01*
X18350000Y-10205000D02*
X18350000Y-6295000D01*
X3240000Y-10105000D02*
X3240000Y-14015000D01*
X3240000Y-10105000D02*
X1840000Y-10105000D01*
X1840000Y-14015000D02*
X3240000Y-14015000D01*
X1840000Y-14015000D02*
X1840000Y-10105000D01*
X3240000Y-25980000D02*
X3240000Y-29890000D01*
X3240000Y-25980000D02*
X1840000Y-25980000D01*
X1840000Y-29890000D02*
X3240000Y-29890000D01*
X1840000Y-29890000D02*
X1840000Y-25980000D01*
X34345000Y-36895000D02*
X30435000Y-36895000D01*
X34345000Y-36895000D02*
X34345000Y-35495000D01*
X30435000Y-35495000D02*
X30435000Y-36895000D01*
X30435000Y-35495000D02*
X34345000Y-35495000D01*
X56570000Y-36895000D02*
X52660000Y-36895000D01*
X56570000Y-36895000D02*
X56570000Y-35495000D01*
X52660000Y-35495000D02*
X52660000Y-36895000D01*
X52660000Y-35495000D02*
X56570000Y-35495000D01*
X77525000Y-36895000D02*
X73615000Y-36895000D01*
X77525000Y-36895000D02*
X77525000Y-35495000D01*
X73615000Y-35495000D02*
X73615000Y-36895000D01*
X73615000Y-35495000D02*
X77525000Y-35495000D01*
X101020000Y-36895000D02*
X97110000Y-36895000D01*
X101020000Y-36895000D02*
X101020000Y-35495000D01*
X97110000Y-35495000D02*
X97110000Y-36895000D01*
X97110000Y-35495000D02*
X101020000Y-35495000D01*
X121975000Y-36895000D02*
X118065000Y-36895000D01*
X121975000Y-36895000D02*
X121975000Y-35495000D01*
X118065000Y-35495000D02*
X118065000Y-36895000D01*
X118065000Y-35495000D02*
X121975000Y-35495000D01*
X144835000Y-36895000D02*
X140925000Y-36895000D01*
X144835000Y-36895000D02*
X144835000Y-35495000D01*
X140925000Y-35495000D02*
X140925000Y-36895000D01*
X140925000Y-35495000D02*
X144835000Y-35495000D01*
X166425000Y-36895000D02*
X162515000Y-36895000D01*
X166425000Y-36895000D02*
X166425000Y-35495000D01*
X162515000Y-35495000D02*
X162515000Y-36895000D01*
X162515000Y-35495000D02*
X166425000Y-35495000D01*
X190555000Y-36895000D02*
X186645000Y-36895000D01*
X190555000Y-36895000D02*
X190555000Y-35495000D01*
X186645000Y-35495000D02*
X186645000Y-36895000D01*
X186645000Y-35495000D02*
X190555000Y-35495000D01*
X213415000Y-36895000D02*
X209505000Y-36895000D01*
X213415000Y-36895000D02*
X213415000Y-35495000D01*
X209505000Y-35495000D02*
X209505000Y-36895000D01*
X209505000Y-35495000D02*
X213415000Y-35495000D01*
X226760000Y-25980000D02*
X226760000Y-29890000D01*
X226760000Y-25980000D02*
X225360000Y-25980000D01*
X225360000Y-29890000D02*
X226760000Y-29890000D01*
X225360000Y-29890000D02*
X225360000Y-25980000D01*
X226760000Y-12010000D02*
X226760000Y-15920000D01*
X226760000Y-12010000D02*
X225360000Y-12010000D01*
X225360000Y-15920000D02*
X226760000Y-15920000D01*
X225360000Y-15920000D02*
X225360000Y-12010000D01*
X219020000Y-1205000D02*
X222930000Y-1205000D01*
X219020000Y-1205000D02*
X219020000Y-2605000D01*
X222930000Y-2605000D02*
X222930000Y-1205000D01*
X222930000Y-2605000D02*
X219020000Y-2605000D01*
X211510000Y-2605000D02*
X207600000Y-2605000D01*
X211510000Y-2605000D02*
X211510000Y-1205000D01*
X207600000Y-1205000D02*
X207600000Y-2605000D01*
X207600000Y-1205000D02*
X211510000Y-1205000D01*
X189920000Y-2605000D02*
X186010000Y-2605000D01*
X189920000Y-2605000D02*
X189920000Y-1205000D01*
X186010000Y-1205000D02*
X186010000Y-2605000D01*
X186010000Y-1205000D02*
X189920000Y-1205000D01*
X167060000Y-2605000D02*
X163150000Y-2605000D01*
X167060000Y-2605000D02*
X167060000Y-1205000D01*
X163150000Y-1205000D02*
X163150000Y-2605000D01*
X163150000Y-1205000D02*
X167060000Y-1205000D01*
X145470000Y-2605000D02*
X141560000Y-2605000D01*
X145470000Y-2605000D02*
X145470000Y-1205000D01*
X141560000Y-1205000D02*
X141560000Y-2605000D01*
X141560000Y-1205000D02*
X145470000Y-1205000D01*
X123245000Y-2605000D02*
X119335000Y-2605000D01*
X123245000Y-2605000D02*
X123245000Y-1205000D01*
X119335000Y-1205000D02*
X119335000Y-2605000D01*
X119335000Y-1205000D02*
X123245000Y-1205000D01*
X101020000Y-2605000D02*
X97110000Y-2605000D01*
X101020000Y-2605000D02*
X101020000Y-1205000D01*
X97110000Y-1205000D02*
X97110000Y-2605000D01*
X97110000Y-1205000D02*
X101020000Y-1205000D01*
X76255000Y-2605000D02*
X72345000Y-2605000D01*
X76255000Y-2605000D02*
X76255000Y-1205000D01*
X72345000Y-1205000D02*
X72345000Y-2605000D01*
X72345000Y-1205000D02*
X76255000Y-1205000D01*
X57205000Y-2605000D02*
X53295000Y-2605000D01*
X57205000Y-2605000D02*
X57205000Y-1205000D01*
X53295000Y-1205000D02*
X53295000Y-2605000D01*
X53295000Y-1205000D02*
X57205000Y-1205000D01*
X31805000Y-2605000D02*
X27895000Y-2605000D01*
X31805000Y-2605000D02*
X31805000Y-1205000D01*
X27895000Y-1205000D02*
X27895000Y-2605000D01*
X27895000Y-1205000D02*
X31805000Y-1205000D01*
X10850000Y-2605000D02*
X6940000Y-2605000D01*
X10850000Y-2605000D02*
X10850000Y-1205000D01*
X6940000Y-1205000D02*
X6940000Y-2605000D01*
X6940000Y-1205000D02*
X10850000Y-1205000D01*
X1840000Y-21010000D02*
X1840000Y-17100000D01*
X1840000Y-21010000D02*
X3240000Y-21010000D01*
X3240000Y-17100000D02*
X1840000Y-17100000D01*
X3240000Y-17100000D02*
X3240000Y-21010000D01*
X1840000Y-36885000D02*
X1840000Y-32975000D01*
X1840000Y-36885000D02*
X3240000Y-36885000D01*
X3240000Y-32975000D02*
X1840000Y-32975000D01*
X3240000Y-32975000D02*
X3240000Y-36885000D01*
X22932000Y-35495000D02*
X26842000Y-35495000D01*
X22932000Y-35495000D02*
X22932000Y-36895000D01*
X26842000Y-36895000D02*
X26842000Y-35495000D01*
X26842000Y-36895000D02*
X22932000Y-36895000D01*
X45284000Y-35495000D02*
X49194000Y-35495000D01*
X45284000Y-35495000D02*
X45284000Y-36895000D01*
X49194000Y-36895000D02*
X49194000Y-35495000D01*
X49194000Y-36895000D02*
X45284000Y-36895000D01*
X67636000Y-35495000D02*
X71546000Y-35495000D01*
X67636000Y-35495000D02*
X67636000Y-36895000D01*
X71546000Y-36895000D02*
X71546000Y-35495000D01*
X71546000Y-36895000D02*
X67636000Y-36895000D01*
X89988000Y-35495000D02*
X93898000Y-35495000D01*
X89988000Y-35495000D02*
X89988000Y-36895000D01*
X93898000Y-36895000D02*
X93898000Y-35495000D01*
X93898000Y-36895000D02*
X89988000Y-36895000D01*
X112340000Y-35495000D02*
X116250000Y-35495000D01*
X112340000Y-35495000D02*
X112340000Y-36895000D01*
X116250000Y-36895000D02*
X116250000Y-35495000D01*
X116250000Y-36895000D02*
X112340000Y-36895000D01*
X134692000Y-35495000D02*
X138602000Y-35495000D01*
X134692000Y-35495000D02*
X134692000Y-36895000D01*
X138602000Y-36895000D02*
X138602000Y-35495000D01*
X138602000Y-36895000D02*
X134692000Y-36895000D01*
X157044000Y-35495000D02*
X160954000Y-35495000D01*
X157044000Y-35495000D02*
X157044000Y-36895000D01*
X160954000Y-36895000D02*
X160954000Y-35495000D01*
X160954000Y-36895000D02*
X157044000Y-36895000D01*
X179396000Y-35495000D02*
X183306000Y-35495000D01*
X179396000Y-35495000D02*
X179396000Y-36895000D01*
X183306000Y-36895000D02*
X183306000Y-35495000D01*
X183306000Y-36895000D02*
X179396000Y-36895000D01*
X201748000Y-35495000D02*
X205658000Y-35495000D01*
X201748000Y-35495000D02*
X201748000Y-36895000D01*
X205658000Y-36895000D02*
X205658000Y-35495000D01*
X205658000Y-36895000D02*
X201748000Y-36895000D01*
X225360000Y-36885000D02*
X225360000Y-32975000D01*
X225360000Y-36885000D02*
X226760000Y-36885000D01*
X226760000Y-32975000D02*
X225360000Y-32975000D01*
X226760000Y-32975000D02*
X226760000Y-36885000D01*
X225360000Y-21010000D02*
X225360000Y-17100000D01*
X225360000Y-21010000D02*
X226760000Y-21010000D01*
X226760000Y-17100000D02*
X225360000Y-17100000D01*
X226760000Y-17100000D02*
X226760000Y-21010000D01*
X225360000Y-5135000D02*
X225360000Y-1225000D01*
X225360000Y-5135000D02*
X226760000Y-5135000D01*
X226760000Y-1225000D02*
X225360000Y-1225000D01*
X226760000Y-1225000D02*
X226760000Y-5135000D01*
X201748000Y-1205000D02*
X205658000Y-1205000D01*
X201748000Y-1205000D02*
X201748000Y-2605000D01*
X205658000Y-2605000D02*
X205658000Y-1205000D01*
X205658000Y-2605000D02*
X201748000Y-2605000D01*
X179396000Y-1205000D02*
X183306000Y-1205000D01*
X179396000Y-1205000D02*
X179396000Y-2605000D01*
X183306000Y-2605000D02*
X183306000Y-1205000D01*
X183306000Y-2605000D02*
X179396000Y-2605000D01*
X157044000Y-1205000D02*
X160954000Y-1205000D01*
X157044000Y-1205000D02*
X157044000Y-2605000D01*
X160954000Y-2605000D02*
X160954000Y-1205000D01*
X160954000Y-2605000D02*
X157044000Y-2605000D01*
X134692000Y-1205000D02*
X138602000Y-1205000D01*
X134692000Y-1205000D02*
X134692000Y-2605000D01*
X138602000Y-2605000D02*
X138602000Y-1205000D01*
X138602000Y-2605000D02*
X134692000Y-2605000D01*
X112340000Y-1205000D02*
X116250000Y-1205000D01*
X112340000Y-1205000D02*
X112340000Y-2605000D01*
X116250000Y-2605000D02*
X116250000Y-1205000D01*
X116250000Y-2605000D02*
X112340000Y-2605000D01*
X89988000Y-1205000D02*
X93898000Y-1205000D01*
X89988000Y-1205000D02*
X89988000Y-2605000D01*
X93898000Y-2605000D02*
X93898000Y-1205000D01*
X93898000Y-2605000D02*
X89988000Y-2605000D01*
X67636000Y-1205000D02*
X71546000Y-1205000D01*
X67636000Y-1205000D02*
X67636000Y-2605000D01*
X71546000Y-2605000D02*
X71546000Y-1205000D01*
X71546000Y-2605000D02*
X67636000Y-2605000D01*
X45284000Y-1205000D02*
X49194000Y-1205000D01*
X45284000Y-1205000D02*
X45284000Y-2605000D01*
X49194000Y-2605000D02*
X49194000Y-1205000D01*
X49194000Y-2605000D02*
X45284000Y-2605000D01*
X22932000Y-1205000D02*
X26842000Y-1205000D01*
X22932000Y-1205000D02*
X22932000Y-2605000D01*
X26842000Y-2605000D02*
X26842000Y-1205000D01*
X26842000Y-2605000D02*
X22932000Y-2605000D01*
X1840000Y-5135000D02*
X1840000Y-1225000D01*
X1840000Y-5135000D02*
X3240000Y-5135000D01*
X3240000Y-1225000D02*
X1840000Y-1225000D01*
X3240000Y-1225000D02*
X3240000Y-5135000D01*
X42790000Y-1560000D02*
X42790000Y-6060000D01*
X42790000Y-1560000D02*
X41040000Y-1560000D01*
X41040000Y-6060000D02*
X42790000Y-6060000D01*
X41040000Y-6060000D02*
X41040000Y-1560000D01*
X123695000Y-29560000D02*
X123445000Y-29560000D01*
X123445000Y-29560000D02*
X123445000Y-29810000D01*
X123695000Y-37060000D02*
X123445000Y-37060000D01*
X123445000Y-37060000D02*
X123445000Y-36810000D01*
X132945000Y-36810000D02*
X132945000Y-37060000D01*
X132945000Y-37060000D02*
X132695000Y-37060000D01*
X132945000Y-29810000D02*
X132945000Y-29560000D01*
X132945000Y-29560000D02*
X132695000Y-29560000D01*
X132695000Y-37060000D02*
X123695000Y-37060000D01*
X132945000Y-29810000D02*
X132945000Y-36810000D01*
X123695000Y-29560000D02*
X132695000Y-29560000D01*
X123445000Y-36810000D02*
X123445000Y-29810000D01*
X145920000Y-29560000D02*
X145670000Y-29560000D01*
X145670000Y-29560000D02*
X145670000Y-29810000D01*
X145920000Y-37060000D02*
X145670000Y-37060000D01*
X145670000Y-37060000D02*
X145670000Y-36810000D01*
X155170000Y-36810000D02*
X155170000Y-37060000D01*
X155170000Y-37060000D02*
X154920000Y-37060000D01*
X155170000Y-29810000D02*
X155170000Y-29560000D01*
X155170000Y-29560000D02*
X154920000Y-29560000D01*
X154920000Y-37060000D02*
X145920000Y-37060000D01*
X155170000Y-29810000D02*
X155170000Y-36810000D01*
X145920000Y-29560000D02*
X154920000Y-29560000D01*
X145670000Y-36810000D02*
X145670000Y-29810000D01*
X168145000Y-29560000D02*
X167895000Y-29560000D01*
X167895000Y-29560000D02*
X167895000Y-29810000D01*
X168145000Y-37060000D02*
X167895000Y-37060000D01*
X167895000Y-37060000D02*
X167895000Y-36810000D01*
X177395000Y-36810000D02*
X177395000Y-37060000D01*
X177395000Y-37060000D02*
X177145000Y-37060000D01*
X177395000Y-29810000D02*
X177395000Y-29560000D01*
X177395000Y-29560000D02*
X177145000Y-29560000D01*
X177145000Y-37060000D02*
X168145000Y-37060000D01*
X177395000Y-29810000D02*
X177395000Y-36810000D01*
X168145000Y-29560000D02*
X177145000Y-29560000D01*
X167895000Y-36810000D02*
X167895000Y-29810000D01*
X71960000Y-22380000D02*
X75360000Y-22380000D01*
X75360000Y-22380000D02*
X75360000Y-25880000D01*
X75360000Y-25880000D02*
X71960000Y-25880000D01*
X71960000Y-25880000D02*
X71960000Y-22380000D01*
X34085000Y-23340000D02*
X30685000Y-23340000D01*
X30685000Y-23340000D02*
X30685000Y-19840000D01*
X30685000Y-19840000D02*
X34085000Y-19840000D01*
X34085000Y-19840000D02*
X34085000Y-23340000D01*
X46785000Y-23340000D02*
X43385000Y-23340000D01*
X43385000Y-23340000D02*
X43385000Y-19840000D01*
X43385000Y-19840000D02*
X46785000Y-19840000D01*
X46785000Y-19840000D02*
X46785000Y-23340000D01*
X40435000Y-23340000D02*
X37035000Y-23340000D01*
X37035000Y-23340000D02*
X37035000Y-19840000D01*
X37035000Y-19840000D02*
X40435000Y-19840000D01*
X40435000Y-19840000D02*
X40435000Y-23340000D01*
X73815000Y-33450000D02*
X73815000Y-30050000D01*
X73815000Y-30050000D02*
X77315000Y-30050000D01*
X77315000Y-30050000D02*
X77315000Y-33450000D01*
X77315000Y-33450000D02*
X73815000Y-33450000D01*
X62660000Y-34770000D02*
X59260000Y-34770000D01*
X59260000Y-34770000D02*
X59260000Y-31270000D01*
X59260000Y-31270000D02*
X62660000Y-31270000D01*
X62660000Y-31270000D02*
X62660000Y-34770000D01*
X78735000Y-7745000D02*
X71435000Y-7745000D01*
X78735000Y255000D02*
X78735000Y-7745000D01*
X71435000Y255000D02*
X78735000Y255000D01*
X71435000Y-7745000D02*
X71435000Y255000D01*
X146431000Y-14732000D02*
X156337000Y-14732000D01*
X156337000Y-14732000D02*
X156337000Y-254000D01*
X156337000Y-254000D02*
X147193000Y-254000D01*
X147193000Y-254000D02*
X146431000Y-254000D01*
X146431000Y-254000D02*
X146431000Y-14732000D01*
X78570000Y-20600000D02*
X78570000Y-9900000D01*
X78570000Y-9900000D02*
X68770000Y-9900000D01*
X68770000Y-9900000D02*
X68770000Y-20600000D01*
X68770000Y-20600000D02*
X78570000Y-20600000D01*
X9400000Y-6350000D02*
G75*
G03X9400000Y-6350000I-3050000J0D01*
G01*
X9400000Y-31750000D02*
G75*
G03X9400000Y-31750000I-3050000J0D01*
G01*
X225300000Y-6350000D02*
G75*
G03X225300000Y-6350000I-3050000J0D01*
G01*
X225300000Y-31750000D02*
G75*
G03X225300000Y-31750000I-3050000J0D01*
G01*
M02*
