G04 #@! TF.FileFunction,Copper,L1,Top,Signal*
%FSLAX46Y46*%
G04 Gerber Fmt 4.6, Leading zero omitted, Abs format (unit mm)*
G04 Created by KiCad (PCBNEW 4.0.7) date Thursday, October 12, 2017 'PMt' 07:19:01 PM*
%MOMM*%
%LPD*%
G01*
G04 APERTURE LIST*
%ADD10C,0.100000*%
%ADD11R,1.200000X0.900000*%
%ADD12R,0.900000X1.200000*%
%ADD13R,1.700000X1.700000*%
%ADD14O,1.700000X1.700000*%
%ADD15O,2.032000X2.540000*%
%ADD16R,1.250000X1.500000*%
%ADD17C,1.524000*%
%ADD18C,2.000000*%
%ADD19R,0.900000X0.800000*%
%ADD20R,0.800000X0.900000*%
%ADD21C,2.400000*%
%ADD22R,2.400000X2.400000*%
%ADD23R,1.600000X1.600000*%
%ADD24C,1.600000*%
%ADD25C,4.500000*%
%ADD26C,5.000000*%
%ADD27O,1.600000X1.600000*%
%ADD28C,5.600000*%
%ADD29C,0.600000*%
%ADD30C,0.250000*%
%ADD31C,0.508000*%
%ADD32C,0.381000*%
%ADD33C,0.254000*%
%ADD34C,0.304800*%
G04 APERTURE END LIST*
D10*
D11*
X70315000Y-22860000D03*
X68115000Y-22860000D03*
D12*
X29210000Y-30310000D03*
X29210000Y-28110000D03*
X33655000Y-28110000D03*
X33655000Y-30310000D03*
X41910000Y-19220000D03*
X41910000Y-21420000D03*
X46355000Y-28110000D03*
X46355000Y-30310000D03*
X35560000Y-19220000D03*
X35560000Y-21420000D03*
X40005000Y-28110000D03*
X40005000Y-30310000D03*
D11*
X82380000Y-30480000D03*
X80180000Y-30480000D03*
X71585000Y-32385000D03*
X69385000Y-32385000D03*
D12*
X57785000Y-36025000D03*
X57785000Y-33825000D03*
D11*
X60495000Y-36195000D03*
X62695000Y-36195000D03*
D12*
X223520000Y-23665000D03*
X223520000Y-25865000D03*
X77470000Y-25230000D03*
X77470000Y-23030000D03*
X201295000Y-8425000D03*
X201295000Y-10625000D03*
X180975000Y-8425000D03*
X180975000Y-10625000D03*
X121920000Y-9060000D03*
X121920000Y-11260000D03*
X109855000Y-9060000D03*
X109855000Y-11260000D03*
X46990000Y-5885000D03*
X46990000Y-8085000D03*
X19050000Y-7155000D03*
X19050000Y-9355000D03*
X2540000Y-10965000D03*
X2540000Y-13165000D03*
X2540000Y-26840000D03*
X2540000Y-29040000D03*
D11*
X33485000Y-36195000D03*
X31285000Y-36195000D03*
X55710000Y-36195000D03*
X53510000Y-36195000D03*
X76665000Y-36195000D03*
X74465000Y-36195000D03*
X100160000Y-36195000D03*
X97960000Y-36195000D03*
X121115000Y-36195000D03*
X118915000Y-36195000D03*
X143975000Y-36195000D03*
X141775000Y-36195000D03*
X165565000Y-36195000D03*
X163365000Y-36195000D03*
X189695000Y-36195000D03*
X187495000Y-36195000D03*
X212555000Y-36195000D03*
X210355000Y-36195000D03*
D12*
X226060000Y-26840000D03*
X226060000Y-29040000D03*
X226060000Y-12870000D03*
X226060000Y-15070000D03*
D11*
X219880000Y-1905000D03*
X222080000Y-1905000D03*
X210650000Y-1905000D03*
X208450000Y-1905000D03*
X189060000Y-1905000D03*
X186860000Y-1905000D03*
X166200000Y-1905000D03*
X164000000Y-1905000D03*
X144610000Y-1905000D03*
X142410000Y-1905000D03*
X122385000Y-1905000D03*
X120185000Y-1905000D03*
X100160000Y-1905000D03*
X97960000Y-1905000D03*
X75395000Y-1905000D03*
X73195000Y-1905000D03*
X56345000Y-1905000D03*
X54145000Y-1905000D03*
X30945000Y-1905000D03*
X28745000Y-1905000D03*
X9990000Y-1905000D03*
X7790000Y-1905000D03*
D12*
X2540000Y-20150000D03*
X2540000Y-17950000D03*
X2540000Y-36025000D03*
X2540000Y-33825000D03*
D11*
X23792000Y-36195000D03*
X25992000Y-36195000D03*
X46144000Y-36195000D03*
X48344000Y-36195000D03*
X68496000Y-36195000D03*
X70696000Y-36195000D03*
X90848000Y-36195000D03*
X93048000Y-36195000D03*
X113200000Y-36195000D03*
X115400000Y-36195000D03*
X135552000Y-36195000D03*
X137752000Y-36195000D03*
X157904000Y-36195000D03*
X160104000Y-36195000D03*
X180256000Y-36195000D03*
X182456000Y-36195000D03*
X202608000Y-36195000D03*
X204808000Y-36195000D03*
D12*
X226060000Y-36025000D03*
X226060000Y-33825000D03*
X226060000Y-20150000D03*
X226060000Y-17950000D03*
X226060000Y-4275000D03*
X226060000Y-2075000D03*
D11*
X202608000Y-1905000D03*
X204808000Y-1905000D03*
X180256000Y-1905000D03*
X182456000Y-1905000D03*
X157904000Y-1905000D03*
X160104000Y-1905000D03*
X135552000Y-1905000D03*
X137752000Y-1905000D03*
X113200000Y-1905000D03*
X115400000Y-1905000D03*
X90848000Y-1905000D03*
X93048000Y-1905000D03*
X68496000Y-1905000D03*
X70696000Y-1905000D03*
X46144000Y-1905000D03*
X48344000Y-1905000D03*
X23792000Y-1905000D03*
X25992000Y-1905000D03*
D12*
X2540000Y-4275000D03*
X2540000Y-2075000D03*
D13*
X217805000Y-10160000D03*
D14*
X217805000Y-12700000D03*
X217805000Y-15240000D03*
X217805000Y-17780000D03*
X217805000Y-20320000D03*
X217805000Y-22860000D03*
X217805000Y-25400000D03*
X217805000Y-27940000D03*
D15*
X16510000Y-2540000D03*
X19050000Y-2540000D03*
X13970000Y-2540000D03*
D14*
X66040000Y-35560000D03*
X66040000Y-33020000D03*
X66040000Y-17780000D03*
X66040000Y-15240000D03*
X66040000Y-12700000D03*
X66040000Y-10160000D03*
X66040000Y-7620000D03*
D13*
X81280000Y-2540000D03*
D14*
X81280000Y-7620000D03*
X81280000Y-10160000D03*
X81280000Y-12700000D03*
X81280000Y-15240000D03*
X81280000Y-33020000D03*
X81280000Y-35560000D03*
X81280000Y-5080000D03*
X66040000Y-2540000D03*
D16*
X41910000Y-2560000D03*
X41910000Y-5060000D03*
D17*
X57150000Y-13550000D03*
X59710000Y-14180000D03*
X61680000Y-15930000D03*
X62610000Y-18390000D03*
X62290000Y-21000000D03*
X60800000Y-23170000D03*
X58470000Y-24390000D03*
X55830000Y-24390000D03*
X53500000Y-23170000D03*
X52010000Y-21000000D03*
X51690000Y-18390000D03*
X52620000Y-15930000D03*
X54590000Y-14180000D03*
X19050000Y-13550000D03*
X21610000Y-14180000D03*
X23580000Y-15930000D03*
X24510000Y-18390000D03*
X24190000Y-21000000D03*
X22700000Y-23170000D03*
X20370000Y-24390000D03*
X17730000Y-24390000D03*
X15400000Y-23170000D03*
X13910000Y-21000000D03*
X13590000Y-18390000D03*
X14520000Y-15930000D03*
X16490000Y-14180000D03*
D18*
X131445000Y-31060000D03*
X131445000Y-35560000D03*
X124945000Y-31060000D03*
X124945000Y-35560000D03*
X153670000Y-31060000D03*
X153670000Y-35560000D03*
X147170000Y-31060000D03*
X147170000Y-35560000D03*
X175895000Y-31060000D03*
X175895000Y-35560000D03*
X169395000Y-31060000D03*
X169395000Y-35560000D03*
D19*
X72660000Y-23180000D03*
X72660000Y-25080000D03*
X74660000Y-24130000D03*
X33385000Y-22540000D03*
X33385000Y-20640000D03*
X31385000Y-21590000D03*
X46085000Y-22540000D03*
X46085000Y-20640000D03*
X44085000Y-21590000D03*
X39735000Y-22540000D03*
X39735000Y-20640000D03*
X37735000Y-21590000D03*
D20*
X74615000Y-32750000D03*
X76515000Y-32750000D03*
X75565000Y-30750000D03*
D19*
X61960000Y-33970000D03*
X61960000Y-32070000D03*
X59960000Y-33020000D03*
D17*
X209550000Y-13550000D03*
X212110000Y-14180000D03*
X214080000Y-15930000D03*
X215010000Y-18390000D03*
X214690000Y-21000000D03*
X213200000Y-23170000D03*
X210870000Y-24390000D03*
X208230000Y-24390000D03*
X205900000Y-23170000D03*
X204410000Y-21000000D03*
X204090000Y-18390000D03*
X205020000Y-15930000D03*
X206990000Y-14180000D03*
X171450000Y-13550000D03*
X174010000Y-14180000D03*
X175980000Y-15930000D03*
X176910000Y-18390000D03*
X176590000Y-21000000D03*
X175100000Y-23170000D03*
X172770000Y-24390000D03*
X170130000Y-24390000D03*
X167800000Y-23170000D03*
X166310000Y-21000000D03*
X165990000Y-18390000D03*
X166920000Y-15930000D03*
X168890000Y-14180000D03*
X133350000Y-13550000D03*
X135910000Y-14180000D03*
X137880000Y-15930000D03*
X138810000Y-18390000D03*
X138490000Y-21000000D03*
X137000000Y-23170000D03*
X134670000Y-24390000D03*
X132030000Y-24390000D03*
X129700000Y-23170000D03*
X128210000Y-21000000D03*
X127890000Y-18390000D03*
X128820000Y-15930000D03*
X130790000Y-14180000D03*
X95250000Y-13550000D03*
X97810000Y-14180000D03*
X99780000Y-15930000D03*
X100710000Y-18390000D03*
X100390000Y-21000000D03*
X98900000Y-23170000D03*
X96570000Y-24390000D03*
X93930000Y-24390000D03*
X91600000Y-23170000D03*
X90110000Y-21000000D03*
X89790000Y-18390000D03*
X90720000Y-15930000D03*
X92690000Y-14180000D03*
D21*
X73335000Y-4445000D03*
D22*
X76835000Y-4445000D03*
D23*
X8890000Y-13970000D03*
D24*
X6890000Y-13970000D03*
D23*
X37465000Y-2540000D03*
D24*
X37465000Y-4540000D03*
D25*
X151765000Y-7970000D03*
X147065000Y-10970000D03*
D26*
X151765000Y-13970000D03*
D23*
X77470000Y-19050000D03*
D27*
X69850000Y-11430000D03*
X77470000Y-16510000D03*
X69850000Y-13970000D03*
X77470000Y-13970000D03*
X69850000Y-16510000D03*
X77470000Y-11430000D03*
X69850000Y-19050000D03*
D28*
X6350000Y-6350000D03*
X6350000Y-31750000D03*
X222250000Y-6350000D03*
X222250000Y-31750000D03*
D29*
X108585000Y-34290000D03*
X41275000Y-17780000D03*
X37465000Y-17780000D03*
X37465000Y-36195000D03*
X192405000Y-36195000D03*
X180340000Y-26035000D03*
X27940000Y-33528000D03*
X34544000Y-34798000D03*
X38862000Y-35052000D03*
X189865000Y-22860000D03*
X113665000Y-23495000D03*
X71755000Y-10160000D03*
X46990000Y-11430000D03*
X67310000Y-19050000D03*
X64135000Y-22225000D03*
X67945000Y-31750000D03*
X64135000Y-35560000D03*
X12700000Y-6985000D03*
X20955000Y-1905000D03*
X43815000Y-1905000D03*
X85090000Y-8890000D03*
X78105000Y-6985000D03*
X88265000Y-5715000D03*
X88265000Y-1905000D03*
X111125000Y-1905000D03*
X132715000Y-1905000D03*
X155575000Y-1905000D03*
X177800000Y-1905000D03*
X199390000Y-1905000D03*
X226695000Y-6350000D03*
X223520000Y-19685000D03*
X222885000Y-36195000D03*
X199390000Y-36195000D03*
X179070000Y-34925000D03*
X156210000Y-34290000D03*
X133350000Y-34925000D03*
X110490000Y-36195000D03*
X87630000Y-36195000D03*
X68580000Y-34290000D03*
X43815000Y-36195000D03*
X20955000Y-36195000D03*
X14605000Y-30480000D03*
X2540000Y-22225000D03*
X60960000Y-5080000D03*
X108585000Y-7620000D03*
X125095000Y-3810000D03*
X123825000Y-5080000D03*
X127635000Y-33655000D03*
X39878000Y-34544000D03*
X190500000Y-33020000D03*
X114300000Y-33020000D03*
X53975000Y-33020000D03*
X37465000Y-24130000D03*
X187960000Y-32385000D03*
X111760000Y-32385000D03*
X36830000Y-33655000D03*
X41656000Y-35052000D03*
X53340000Y-31750000D03*
X51435000Y-33655000D03*
X40640000Y-24765000D03*
X115570000Y-33655000D03*
X191135000Y-34290000D03*
X34925000Y-31750000D03*
X34925000Y-25400000D03*
X186055000Y-31115000D03*
X109855000Y-31115000D03*
X111125000Y-31750000D03*
X43815000Y-33020000D03*
X187325000Y-31750000D03*
X121285000Y-27940000D03*
D30*
X75565000Y-8720000D02*
X76030000Y-8255000D01*
D31*
X226060000Y-26840000D02*
X227965000Y-26840000D01*
X227965000Y-26840000D02*
X227965000Y-26670000D01*
X227965000Y-12700000D02*
X227965000Y-26670000D01*
X227965000Y-26670000D02*
X227965000Y-36830000D01*
X227965000Y-36830000D02*
X227330000Y-37465000D01*
X227330000Y-37465000D02*
X212725000Y-37465000D01*
X8890000Y-13970000D02*
X13970000Y-8890000D01*
X13970000Y-8890000D02*
X13970000Y-2540000D01*
X75395000Y-1905000D02*
X75395000Y-635000D01*
X75395000Y-635000D02*
X75565000Y-635000D01*
X56345000Y-1905000D02*
X56345000Y-635000D01*
X56345000Y-635000D02*
X56515000Y-635000D01*
X55880000Y-635000D02*
X56515000Y-635000D01*
X33655000Y-635000D02*
X37465000Y-635000D01*
X37465000Y-635000D02*
X55880000Y-635000D01*
X56515000Y-635000D02*
X75565000Y-635000D01*
X75565000Y-635000D02*
X100160000Y-635000D01*
X108585000Y-34290000D02*
X108585000Y-34925000D01*
X82380000Y-30480000D02*
X83820000Y-30480000D01*
X85090000Y-31750000D02*
X85090000Y-37465000D01*
X83820000Y-30480000D02*
X85090000Y-31750000D01*
X57785000Y-36025000D02*
X57785000Y-37465000D01*
X33485000Y-33655000D02*
X33485000Y-33485000D01*
X33485000Y-33485000D02*
X30310000Y-30310000D01*
X30310000Y-30310000D02*
X29210000Y-30310000D01*
X33485000Y-36195000D02*
X33485000Y-33655000D01*
X41910000Y-18415000D02*
X41910000Y-19220000D01*
X41275000Y-17780000D02*
X41910000Y-18415000D01*
X35560000Y-18415000D02*
X35560000Y-19220000D01*
X36195000Y-17780000D02*
X35560000Y-18415000D01*
X37465000Y-17780000D02*
X36195000Y-17780000D01*
X13970000Y-2540000D02*
X13970000Y-635000D01*
X108585000Y-36195000D02*
X108585000Y-37465000D01*
X108585000Y-34925000D02*
X108585000Y-36195000D01*
X30945000Y-1905000D02*
X30945000Y-635000D01*
X30945000Y-635000D02*
X31115000Y-635000D01*
X37465000Y-36195000D02*
X37465000Y-37465000D01*
X192405000Y-36195000D02*
X192405000Y-37465000D01*
X144610000Y-1905000D02*
X144610000Y-635000D01*
X144610000Y-635000D02*
X144780000Y-635000D01*
X122385000Y-635000D02*
X144780000Y-635000D01*
X144780000Y-635000D02*
X151765000Y-635000D01*
X151765000Y-635000D02*
X155575000Y-4445000D01*
X122385000Y-1905000D02*
X122385000Y-635000D01*
X122385000Y-635000D02*
X122555000Y-635000D01*
X100160000Y-635000D02*
X100330000Y-635000D01*
X100330000Y-635000D02*
X108585000Y-635000D01*
X108585000Y-635000D02*
X122555000Y-635000D01*
X100160000Y-1905000D02*
X100160000Y-635000D01*
X33485000Y-635000D02*
X33655000Y-635000D01*
X9990000Y-1905000D02*
X9990000Y-635000D01*
X9990000Y-635000D02*
X10160000Y-635000D01*
X2540000Y-10965000D02*
X635000Y-10965000D01*
X635000Y-10965000D02*
X635000Y-10795000D01*
X2540000Y-26840000D02*
X635000Y-26840000D01*
X635000Y-26840000D02*
X635000Y-26670000D01*
X33485000Y-36195000D02*
X33485000Y-37465000D01*
X33485000Y-37465000D02*
X33655000Y-37465000D01*
X55710000Y-36195000D02*
X55710000Y-37465000D01*
X55710000Y-37465000D02*
X55880000Y-37465000D01*
X76665000Y-36195000D02*
X76665000Y-37465000D01*
X76665000Y-37465000D02*
X76835000Y-37465000D01*
X100160000Y-36195000D02*
X100160000Y-37465000D01*
X100160000Y-37465000D02*
X100330000Y-37465000D01*
X121115000Y-36195000D02*
X121115000Y-37465000D01*
X121115000Y-37465000D02*
X121285000Y-37465000D01*
X143975000Y-36195000D02*
X143975000Y-37465000D01*
X143975000Y-37465000D02*
X144145000Y-37465000D01*
X165565000Y-36195000D02*
X165565000Y-37465000D01*
X165565000Y-37465000D02*
X165735000Y-37465000D01*
X189695000Y-36195000D02*
X189695000Y-37465000D01*
X189695000Y-37465000D02*
X189865000Y-37465000D01*
X212555000Y-36195000D02*
X212555000Y-37465000D01*
X212555000Y-37465000D02*
X212725000Y-37465000D01*
X1270000Y-635000D02*
X10160000Y-635000D01*
X10160000Y-635000D02*
X13970000Y-635000D01*
X13970000Y-635000D02*
X31115000Y-635000D01*
X31115000Y-635000D02*
X33020000Y-635000D01*
X33020000Y-635000D02*
X33655000Y-635000D01*
X635000Y-1270000D02*
X1270000Y-635000D01*
X635000Y-36830000D02*
X635000Y-26670000D01*
X635000Y-26670000D02*
X635000Y-10795000D01*
X635000Y-10795000D02*
X635000Y-1270000D01*
X1270000Y-37465000D02*
X635000Y-36830000D01*
X212725000Y-37465000D02*
X192405000Y-37465000D01*
X192405000Y-37465000D02*
X189865000Y-37465000D01*
X189865000Y-37465000D02*
X165735000Y-37465000D01*
X165735000Y-37465000D02*
X144145000Y-37465000D01*
X144145000Y-37465000D02*
X121285000Y-37465000D01*
X121285000Y-37465000D02*
X108585000Y-37465000D01*
X108585000Y-37465000D02*
X100330000Y-37465000D01*
X100330000Y-37465000D02*
X85090000Y-37465000D01*
X85090000Y-37465000D02*
X83820000Y-37465000D01*
X83820000Y-37465000D02*
X76835000Y-37465000D01*
X76835000Y-37465000D02*
X57785000Y-37465000D01*
X57785000Y-37465000D02*
X55880000Y-37465000D01*
X55880000Y-37465000D02*
X37465000Y-37465000D01*
X37465000Y-37465000D02*
X33655000Y-37465000D01*
X33655000Y-37465000D02*
X1270000Y-37465000D01*
D32*
X38608000Y-34798000D02*
X34544000Y-34798000D01*
X38862000Y-35052000D02*
X38608000Y-34798000D01*
D31*
X75565000Y-13970000D02*
X77470000Y-13970000D01*
X71755000Y-10160000D02*
X75565000Y-13970000D01*
X77470000Y-23030000D02*
X77470000Y-22860000D01*
X77470000Y-22860000D02*
X75565000Y-20955000D01*
X75565000Y-20955000D02*
X75565000Y-15875000D01*
X75565000Y-15875000D02*
X77470000Y-13970000D01*
X41910000Y-2560000D02*
X42565000Y-2560000D01*
X62865000Y-3810000D02*
X64135000Y-2540000D01*
X64135000Y-2540000D02*
X66040000Y-2540000D01*
X62845000Y-3830000D02*
X62865000Y-3810000D01*
X56515000Y-3830000D02*
X62845000Y-3830000D01*
X56495000Y-3810000D02*
X56515000Y-3830000D01*
X51435000Y-3810000D02*
X56495000Y-3810000D01*
X43815000Y-3810000D02*
X51435000Y-3810000D01*
X42565000Y-2560000D02*
X43815000Y-3810000D01*
X37465000Y-2540000D02*
X41890000Y-2540000D01*
X41890000Y-2540000D02*
X41910000Y-2560000D01*
X19050000Y-2540000D02*
X20320000Y-3810000D01*
X34925000Y-2540000D02*
X37465000Y-2540000D01*
X33655000Y-3810000D02*
X34925000Y-2540000D01*
X20320000Y-3810000D02*
X33655000Y-3810000D01*
D33*
X66040000Y-2540000D02*
X65405000Y-2540000D01*
D30*
X19050000Y-9355000D02*
X19050000Y-13550000D01*
X19050000Y-13550000D02*
X19050000Y-13335000D01*
X46990000Y-8085000D02*
X46990000Y-11430000D01*
X95250000Y-13550000D02*
X95250000Y-13335000D01*
X95250000Y-13335000D02*
X97325000Y-11260000D01*
X97325000Y-11260000D02*
X109855000Y-11260000D01*
X121920000Y-11260000D02*
X131060000Y-11260000D01*
X131060000Y-11260000D02*
X133350000Y-13550000D01*
X180975000Y-10625000D02*
X174375000Y-10625000D01*
X174375000Y-10625000D02*
X171450000Y-13550000D01*
X201295000Y-10625000D02*
X206625000Y-10625000D01*
X206625000Y-10625000D02*
X209550000Y-13550000D01*
X60495000Y-36195000D02*
X60495000Y-34755000D01*
X61280000Y-33970000D02*
X61960000Y-33970000D01*
X60495000Y-34755000D02*
X61280000Y-33970000D01*
X71585000Y-32385000D02*
X74250000Y-32385000D01*
X74250000Y-32385000D02*
X74615000Y-32750000D01*
X39735000Y-22540000D02*
X39735000Y-27840000D01*
X39735000Y-27840000D02*
X40005000Y-28110000D01*
X46085000Y-22540000D02*
X46085000Y-27840000D01*
X46085000Y-27840000D02*
X46355000Y-28110000D01*
X34925000Y-24130000D02*
X36195000Y-25400000D01*
X33385000Y-22590000D02*
X34925000Y-24130000D01*
X34755000Y-28110000D02*
X33655000Y-28110000D01*
X36195000Y-26670000D02*
X34755000Y-28110000D01*
X36195000Y-25400000D02*
X36195000Y-26670000D01*
X33385000Y-22540000D02*
X33385000Y-22590000D01*
X70315000Y-22860000D02*
X72340000Y-22860000D01*
X72340000Y-22860000D02*
X72660000Y-23180000D01*
X74660000Y-24130000D02*
X74660000Y-22590000D01*
X71120000Y-19050000D02*
X69850000Y-19050000D01*
X74660000Y-22590000D02*
X71120000Y-19050000D01*
X77470000Y-25230000D02*
X75760000Y-25230000D01*
X75760000Y-25230000D02*
X74660000Y-24130000D01*
X217805000Y-22860000D02*
X222715000Y-22860000D01*
X222715000Y-22860000D02*
X223520000Y-23665000D01*
X68115000Y-22860000D02*
X68115000Y-21760000D01*
X67310000Y-20955000D02*
X67310000Y-19050000D01*
X68115000Y-21760000D02*
X67310000Y-20955000D01*
X69385000Y-32385000D02*
X68580000Y-32385000D01*
X68580000Y-32385000D02*
X67945000Y-31750000D01*
X62695000Y-36195000D02*
X63500000Y-36195000D01*
X63500000Y-36195000D02*
X64135000Y-35560000D01*
X60325000Y-26035000D02*
X51435000Y-26035000D01*
X64135000Y-22225000D02*
X60325000Y-26035000D01*
X47160000Y-30310000D02*
X51435000Y-26035000D01*
X47160000Y-30310000D02*
X46355000Y-30310000D01*
X40005000Y-30310000D02*
X46355000Y-30310000D01*
X33655000Y-30310000D02*
X40005000Y-30310000D01*
X61960000Y-32070000D02*
X63185000Y-32070000D01*
X64135000Y-33655000D02*
X66040000Y-35560000D01*
X64135000Y-33020000D02*
X64135000Y-33655000D01*
X63185000Y-32070000D02*
X64135000Y-33020000D01*
X65675000Y-35925000D02*
X66040000Y-35560000D01*
X76515000Y-32750000D02*
X81010000Y-32750000D01*
X81010000Y-32750000D02*
X81280000Y-33020000D01*
X39735000Y-18050000D02*
X41275000Y-16510000D01*
X62230000Y-12700000D02*
X59690000Y-10160000D01*
X59690000Y-10160000D02*
X54610000Y-10160000D01*
X54610000Y-10160000D02*
X48260000Y-16510000D01*
X66040000Y-12700000D02*
X62230000Y-12700000D01*
X39735000Y-18050000D02*
X39735000Y-20640000D01*
X41275000Y-16510000D02*
X48260000Y-16510000D01*
X40005000Y-19050000D02*
X40005000Y-20370000D01*
X40005000Y-20370000D02*
X39735000Y-20640000D01*
X66040000Y-15240000D02*
X63500000Y-15240000D01*
X46085000Y-19955000D02*
X46085000Y-20640000D01*
X54610000Y-11430000D02*
X46085000Y-19955000D01*
X59690000Y-11430000D02*
X54610000Y-11430000D01*
X63500000Y-15240000D02*
X59690000Y-11430000D01*
X33385000Y-20640000D02*
X33970000Y-20640000D01*
X34290000Y-18415000D02*
X36830000Y-15875000D01*
X34290000Y-20320000D02*
X34290000Y-18415000D01*
X33970000Y-20640000D02*
X34290000Y-20320000D01*
X33655000Y-20370000D02*
X33385000Y-20640000D01*
X66040000Y-10160000D02*
X60960000Y-10160000D01*
X47625000Y-15875000D02*
X36830000Y-15875000D01*
X54610000Y-8890000D02*
X47625000Y-15875000D01*
X59690000Y-8890000D02*
X54610000Y-8890000D01*
X60325000Y-9525000D02*
X59690000Y-8890000D01*
X60960000Y-10160000D02*
X60325000Y-9525000D01*
X72660000Y-25080000D02*
X66995000Y-25080000D01*
X66040000Y-24125000D02*
X66040000Y-17780000D01*
X66995000Y-25080000D02*
X66040000Y-24125000D01*
X80645000Y-12700000D02*
X81280000Y-12700000D01*
X2540000Y-4275000D02*
X2540000Y-7620000D01*
X9525000Y-10160000D02*
X12700000Y-6985000D01*
X5080000Y-10160000D02*
X9525000Y-10160000D01*
X2540000Y-7620000D02*
X5080000Y-10160000D01*
X2540000Y-2075000D02*
X7620000Y-2075000D01*
X7620000Y-2075000D02*
X7790000Y-1905000D01*
X20955000Y-1905000D02*
X23792000Y-1905000D01*
X43815000Y-1905000D02*
X46144000Y-1905000D01*
X48344000Y-1905000D02*
X54145000Y-1905000D01*
X69215000Y-3810000D02*
X71120000Y-5715000D01*
X68496000Y-1905000D02*
X68496000Y-3091000D01*
X69215000Y-3810000D02*
X68496000Y-3091000D01*
X77470000Y-6350000D02*
X78105000Y-6985000D01*
X71755000Y-6350000D02*
X77470000Y-6350000D01*
X71120000Y-5715000D02*
X71755000Y-6350000D01*
X88265000Y-5715000D02*
X85090000Y-8890000D01*
X70696000Y-1905000D02*
X73195000Y-1905000D01*
X88265000Y-1905000D02*
X90848000Y-1905000D01*
X93048000Y-1905000D02*
X97960000Y-1905000D01*
X111125000Y-1905000D02*
X113200000Y-1905000D01*
X115400000Y-1905000D02*
X120185000Y-1905000D01*
X132715000Y-1905000D02*
X135552000Y-1905000D01*
X137752000Y-1905000D02*
X142410000Y-1905000D01*
X155575000Y-1905000D02*
X157904000Y-1905000D01*
X160104000Y-1905000D02*
X164000000Y-1905000D01*
X177800000Y-1905000D02*
X180256000Y-1905000D01*
X182456000Y-1905000D02*
X186860000Y-1905000D01*
X199390000Y-1905000D02*
X202608000Y-1905000D01*
X204808000Y-1905000D02*
X208450000Y-1905000D01*
X226060000Y-5715000D02*
X226060000Y-4275000D01*
X226695000Y-6350000D02*
X226060000Y-5715000D01*
X226060000Y-5080000D02*
X226060000Y-4275000D01*
X222080000Y-1905000D02*
X225890000Y-1905000D01*
X225890000Y-1905000D02*
X226060000Y-2075000D01*
X223520000Y-19685000D02*
X223985000Y-20150000D01*
X226060000Y-20150000D02*
X223985000Y-20150000D01*
X226060000Y-15070000D02*
X226060000Y-17950000D01*
X223055000Y-36025000D02*
X226060000Y-36025000D01*
X222885000Y-36195000D02*
X223055000Y-36025000D01*
X226060000Y-29040000D02*
X226060000Y-31115000D01*
X226060000Y-30945000D02*
X226060000Y-31115000D01*
X226060000Y-31115000D02*
X226060000Y-33825000D01*
X199390000Y-36195000D02*
X202608000Y-36195000D01*
X210355000Y-36195000D02*
X204808000Y-36195000D01*
X179070000Y-34925000D02*
X180256000Y-36111000D01*
X180256000Y-36111000D02*
X180256000Y-36195000D01*
X187495000Y-36195000D02*
X182456000Y-36195000D01*
X156845000Y-36195000D02*
X157904000Y-36195000D01*
X156210000Y-35560000D02*
X156845000Y-36195000D01*
X156210000Y-34290000D02*
X156210000Y-35560000D01*
X163365000Y-36195000D02*
X160104000Y-36195000D01*
X134620000Y-36195000D02*
X135552000Y-36195000D01*
X133350000Y-34925000D02*
X134620000Y-36195000D01*
X141775000Y-36195000D02*
X137752000Y-36195000D01*
X110490000Y-36195000D02*
X113200000Y-36195000D01*
X118915000Y-36195000D02*
X115400000Y-36195000D01*
X87630000Y-36195000D02*
X90848000Y-36195000D01*
X97960000Y-36195000D02*
X93048000Y-36195000D01*
X68496000Y-34374000D02*
X68496000Y-36195000D01*
X68580000Y-34290000D02*
X68496000Y-34374000D01*
X74465000Y-36195000D02*
X70696000Y-36195000D01*
X43815000Y-36195000D02*
X46144000Y-36195000D01*
X53510000Y-36195000D02*
X48344000Y-36195000D01*
X20955000Y-36195000D02*
X23792000Y-36195000D01*
X31285000Y-36195000D02*
X25992000Y-36195000D01*
X3810000Y-36025000D02*
X9060000Y-36025000D01*
X9060000Y-36025000D02*
X14605000Y-30480000D01*
X3980000Y-36025000D02*
X3810000Y-36025000D01*
X3810000Y-36025000D02*
X2540000Y-36025000D01*
X2540000Y-33825000D02*
X2540000Y-29040000D01*
X2540000Y-22225000D02*
X2540000Y-20150000D01*
X2540000Y-17950000D02*
X2540000Y-13165000D01*
D34*
X161925000Y-10160000D02*
X163830000Y-8255000D01*
X135890000Y-8890000D02*
X134620000Y-8890000D01*
X143510000Y-16510000D02*
X135890000Y-8890000D01*
X122090000Y-8890000D02*
X134620000Y-8890000D01*
X163830000Y-8255000D02*
X197485000Y-8255000D01*
X143510000Y-16510000D02*
X145415000Y-18415000D01*
X146685000Y-19685000D02*
X152400000Y-19685000D01*
X145415000Y-18415000D02*
X146685000Y-19685000D01*
X152400000Y-19685000D02*
X161925000Y-10160000D01*
X217805000Y-20320000D02*
X215265000Y-22860000D01*
X215265000Y-22860000D02*
X215265000Y-25400000D01*
X215265000Y-25400000D02*
X213360000Y-27305000D01*
X213360000Y-27305000D02*
X205105000Y-27305000D01*
X205105000Y-27305000D02*
X197485000Y-19685000D01*
X197485000Y-19685000D02*
X197485000Y-8255000D01*
X201125000Y-8255000D02*
X197485000Y-8255000D01*
X201125000Y-8255000D02*
X201295000Y-8425000D01*
X46990000Y-5885000D02*
X46990000Y-5715000D01*
X46990000Y-5715000D02*
X47625000Y-5080000D01*
X47625000Y-5080000D02*
X60960000Y-5080000D01*
X19050000Y-7155000D02*
X43010000Y-7155000D01*
X44280000Y-5885000D02*
X46990000Y-5885000D01*
X43010000Y-7155000D02*
X44280000Y-5885000D01*
X110025000Y-9060000D02*
X121920000Y-9060000D01*
X108585000Y-7620000D02*
X110025000Y-9060000D01*
X122090000Y-8890000D02*
X121920000Y-9060000D01*
X201295000Y-8425000D02*
X180975000Y-8425000D01*
D30*
X73335000Y-4445000D02*
X73335000Y-4755000D01*
X73335000Y-4755000D02*
X73830000Y-5250000D01*
X83185000Y-3810000D02*
X81915000Y-5080000D01*
X125095000Y-3810000D02*
X83185000Y-3810000D01*
X81915000Y-5080000D02*
X81280000Y-5080000D01*
X84455000Y-5080000D02*
X81915000Y-7620000D01*
X123825000Y-5080000D02*
X84455000Y-5080000D01*
X81915000Y-7620000D02*
X81280000Y-7620000D01*
X130230000Y-31060000D02*
X131445000Y-31060000D01*
X127635000Y-33655000D02*
X130230000Y-31060000D01*
X57785000Y-33825000D02*
X53510000Y-33825000D01*
X53510000Y-33825000D02*
X51435000Y-31750000D01*
X59960000Y-33020000D02*
X58590000Y-33020000D01*
X58590000Y-33020000D02*
X57785000Y-33825000D01*
X50800000Y-32385000D02*
X48895000Y-34290000D01*
X43815000Y-34290000D02*
X48895000Y-34290000D01*
X40386000Y-34290000D02*
X43815000Y-34290000D01*
X51435000Y-31750000D02*
X50800000Y-32385000D01*
X39878000Y-34544000D02*
X40132000Y-34290000D01*
X40132000Y-34290000D02*
X40386000Y-34290000D01*
X92075000Y-33020000D02*
X87630000Y-28575000D01*
X54610000Y-28575000D02*
X51435000Y-31750000D01*
X87630000Y-28575000D02*
X54610000Y-28575000D01*
X92075000Y-33020000D02*
X114300000Y-33020000D01*
X117475000Y-33020000D02*
X118745000Y-33020000D01*
X118745000Y-33020000D02*
X123190000Y-28575000D01*
X114300000Y-33020000D02*
X117475000Y-33020000D01*
X189680002Y-33839998D02*
X190500000Y-33020000D01*
X182429998Y-33839998D02*
X189680002Y-33839998D01*
X177165000Y-28575000D02*
X182429998Y-33839998D01*
X123190000Y-28575000D02*
X177165000Y-28575000D01*
X56515000Y-30480000D02*
X75295000Y-30480000D01*
X53975000Y-33020000D02*
X56515000Y-30480000D01*
X75295000Y-30480000D02*
X75565000Y-30750000D01*
X75565000Y-30750000D02*
X79910000Y-30750000D01*
X79910000Y-30750000D02*
X80180000Y-30480000D01*
X48260000Y-33655000D02*
X53975000Y-27940000D01*
X88265000Y-27940000D02*
X92710000Y-32385000D01*
X53975000Y-27940000D02*
X88265000Y-27940000D01*
X37465000Y-24130000D02*
X37465000Y-21860000D01*
X35560000Y-21420000D02*
X37565000Y-21420000D01*
X37565000Y-21420000D02*
X37735000Y-21590000D01*
X37465000Y-21860000D02*
X37735000Y-21590000D01*
X116840000Y-32385000D02*
X118110000Y-32385000D01*
X118110000Y-32385000D02*
X122555000Y-27940000D01*
X111760000Y-32385000D02*
X116840000Y-32385000D01*
X187325000Y-33020000D02*
X187960000Y-32385000D01*
X182880000Y-33020000D02*
X187325000Y-33020000D01*
X177800000Y-27940000D02*
X182880000Y-33020000D01*
X122555000Y-27940000D02*
X177800000Y-27940000D01*
X92710000Y-32385000D02*
X111760000Y-32385000D01*
X36830000Y-33655000D02*
X48260000Y-33655000D01*
X41910000Y-34925000D02*
X41783000Y-34925000D01*
X41783000Y-34925000D02*
X41656000Y-35052000D01*
X49530000Y-34925000D02*
X50165000Y-34925000D01*
X49530000Y-34925000D02*
X41910000Y-34925000D01*
X53340000Y-31750000D02*
X55880000Y-29210000D01*
X50165000Y-34925000D02*
X51435000Y-33655000D01*
X86995000Y-29210000D02*
X91440000Y-33655000D01*
X115570000Y-33655000D02*
X91440000Y-33655000D01*
X55880000Y-29210000D02*
X86995000Y-29210000D01*
X41910000Y-21420000D02*
X43915000Y-21420000D01*
X43915000Y-21420000D02*
X44085000Y-21590000D01*
X44085000Y-21590000D02*
X44085000Y-21955000D01*
X44085000Y-21955000D02*
X41275000Y-24765000D01*
X41275000Y-24765000D02*
X40640000Y-24765000D01*
X118110000Y-33655000D02*
X119380000Y-33655000D01*
X119380000Y-33655000D02*
X123825000Y-29210000D01*
X181610000Y-34290000D02*
X182245000Y-34925000D01*
X190500000Y-34925000D02*
X191135000Y-34290000D01*
X182245000Y-34925000D02*
X190500000Y-34925000D01*
X177165000Y-29845000D02*
X181610000Y-34290000D01*
X176530000Y-29210000D02*
X123825000Y-29210000D01*
X177165000Y-29845000D02*
X176530000Y-29210000D01*
X118110000Y-33655000D02*
X115570000Y-33655000D01*
X120015000Y-27940000D02*
X116840000Y-31115000D01*
X36195000Y-32385000D02*
X46990000Y-32385000D01*
X93980000Y-31115000D02*
X109855000Y-31115000D01*
X52705000Y-26670000D02*
X89535000Y-26670000D01*
X89535000Y-26670000D02*
X93980000Y-31115000D01*
X46990000Y-32385000D02*
X52705000Y-26670000D01*
X35560000Y-32385000D02*
X36195000Y-32385000D01*
X34925000Y-31750000D02*
X35560000Y-32385000D01*
X29210000Y-28110000D02*
X29210000Y-27305000D01*
X31115000Y-25400000D02*
X33020000Y-25400000D01*
X29210000Y-27305000D02*
X31115000Y-25400000D01*
X31115000Y-21320000D02*
X31385000Y-21590000D01*
X34290000Y-25400000D02*
X33020000Y-25400000D01*
X31385000Y-23765000D02*
X31385000Y-21590000D01*
X33020000Y-25400000D02*
X31750000Y-24130000D01*
X31750000Y-24130000D02*
X31385000Y-23765000D01*
X34290000Y-25400000D02*
X34925000Y-25400000D01*
X109855000Y-31115000D02*
X116840000Y-31115000D01*
X120015000Y-27940000D02*
X121285000Y-26670000D01*
X121285000Y-26670000D02*
X179070000Y-26670000D01*
X179070000Y-26670000D02*
X184150000Y-31750000D01*
X184150000Y-31750000D02*
X185420000Y-31750000D01*
X185420000Y-31750000D02*
X186055000Y-31115000D01*
X47625000Y-33020000D02*
X53340000Y-27305000D01*
X88900000Y-27305000D02*
X93345000Y-31750000D01*
X87630000Y-27305000D02*
X88900000Y-27305000D01*
X53340000Y-27305000D02*
X87630000Y-27305000D01*
X110490000Y-31750000D02*
X111125000Y-31750000D01*
X93345000Y-31750000D02*
X110490000Y-31750000D01*
X43815000Y-33020000D02*
X47625000Y-33020000D01*
X186690000Y-32385000D02*
X187325000Y-31750000D01*
X183515000Y-32385000D02*
X186690000Y-32385000D01*
X178435000Y-27305000D02*
X183515000Y-32385000D01*
X121920000Y-27305000D02*
X178435000Y-27305000D01*
X121285000Y-27940000D02*
X121920000Y-27305000D01*
D33*
G36*
X79795000Y-1563690D02*
X79795000Y-2254250D01*
X79953750Y-2413000D01*
X81153000Y-2413000D01*
X81153000Y-2393000D01*
X81407000Y-2393000D01*
X81407000Y-2413000D01*
X82606250Y-2413000D01*
X82765000Y-2254250D01*
X82765000Y-1563690D01*
X82748560Y-1524000D01*
X87410802Y-1524000D01*
X87330162Y-1718201D01*
X87329838Y-2090167D01*
X87471883Y-2433943D01*
X87734673Y-2697192D01*
X88078201Y-2839838D01*
X88450167Y-2840162D01*
X88793943Y-2698117D01*
X88827118Y-2665000D01*
X89692895Y-2665000D01*
X89783910Y-2806441D01*
X89996110Y-2951431D01*
X90248000Y-3002440D01*
X91448000Y-3002440D01*
X91683317Y-2958162D01*
X91899441Y-2819090D01*
X91947134Y-2749289D01*
X91983910Y-2806441D01*
X92196110Y-2951431D01*
X92448000Y-3002440D01*
X93648000Y-3002440D01*
X93883317Y-2958162D01*
X94099441Y-2819090D01*
X94204726Y-2665000D01*
X96804895Y-2665000D01*
X96895910Y-2806441D01*
X97108110Y-2951431D01*
X97360000Y-3002440D01*
X98560000Y-3002440D01*
X98795317Y-2958162D01*
X99011441Y-2819090D01*
X99059134Y-2749289D01*
X99095910Y-2806441D01*
X99308110Y-2951431D01*
X99560000Y-3002440D01*
X100760000Y-3002440D01*
X100995317Y-2958162D01*
X101211441Y-2819090D01*
X101356431Y-2606890D01*
X101407440Y-2355000D01*
X101407440Y-1524000D01*
X110270802Y-1524000D01*
X110190162Y-1718201D01*
X110189838Y-2090167D01*
X110331883Y-2433943D01*
X110594673Y-2697192D01*
X110938201Y-2839838D01*
X111310167Y-2840162D01*
X111653943Y-2698117D01*
X111687118Y-2665000D01*
X112044895Y-2665000D01*
X112135910Y-2806441D01*
X112348110Y-2951431D01*
X112600000Y-3002440D01*
X113800000Y-3002440D01*
X114035317Y-2958162D01*
X114251441Y-2819090D01*
X114299134Y-2749289D01*
X114335910Y-2806441D01*
X114548110Y-2951431D01*
X114800000Y-3002440D01*
X116000000Y-3002440D01*
X116235317Y-2958162D01*
X116451441Y-2819090D01*
X116556726Y-2665000D01*
X119029895Y-2665000D01*
X119120910Y-2806441D01*
X119333110Y-2951431D01*
X119585000Y-3002440D01*
X120785000Y-3002440D01*
X121020317Y-2958162D01*
X121236441Y-2819090D01*
X121284134Y-2749289D01*
X121320910Y-2806441D01*
X121533110Y-2951431D01*
X121785000Y-3002440D01*
X122985000Y-3002440D01*
X123220317Y-2958162D01*
X123436441Y-2819090D01*
X123581431Y-2606890D01*
X123632440Y-2355000D01*
X123632440Y-1524000D01*
X131860802Y-1524000D01*
X131780162Y-1718201D01*
X131779838Y-2090167D01*
X131921883Y-2433943D01*
X132184673Y-2697192D01*
X132528201Y-2839838D01*
X132900167Y-2840162D01*
X133243943Y-2698117D01*
X133277118Y-2665000D01*
X134396895Y-2665000D01*
X134487910Y-2806441D01*
X134700110Y-2951431D01*
X134952000Y-3002440D01*
X136152000Y-3002440D01*
X136387317Y-2958162D01*
X136603441Y-2819090D01*
X136651134Y-2749289D01*
X136687910Y-2806441D01*
X136900110Y-2951431D01*
X137152000Y-3002440D01*
X138352000Y-3002440D01*
X138587317Y-2958162D01*
X138803441Y-2819090D01*
X138908726Y-2665000D01*
X141254895Y-2665000D01*
X141345910Y-2806441D01*
X141558110Y-2951431D01*
X141810000Y-3002440D01*
X143010000Y-3002440D01*
X143245317Y-2958162D01*
X143461441Y-2819090D01*
X143509134Y-2749289D01*
X143545910Y-2806441D01*
X143758110Y-2951431D01*
X144010000Y-3002440D01*
X145210000Y-3002440D01*
X145445317Y-2958162D01*
X145661441Y-2819090D01*
X145806431Y-2606890D01*
X145857440Y-2355000D01*
X145857440Y-1524000D01*
X151396764Y-1524000D01*
X154305000Y-4432236D01*
X154305000Y-6557417D01*
X154217169Y-6345375D01*
X153820467Y-6094138D01*
X151944605Y-7970000D01*
X153820467Y-9845862D01*
X154217169Y-9594625D01*
X154305000Y-9380210D01*
X154305000Y-9896974D01*
X153406974Y-10795000D01*
X152489534Y-10795000D01*
X153389625Y-10422169D01*
X153640862Y-10025467D01*
X151765000Y-8149605D01*
X151750858Y-8163748D01*
X151571253Y-7984143D01*
X151585395Y-7970000D01*
X149709533Y-6094138D01*
X149312831Y-6345375D01*
X148877773Y-7407446D01*
X148882270Y-8555162D01*
X149004688Y-8850704D01*
X148940861Y-8914531D01*
X148689625Y-8517831D01*
X147627554Y-8082773D01*
X146479838Y-8087270D01*
X145440375Y-8517831D01*
X145189138Y-8914533D01*
X147065000Y-10790395D01*
X147079143Y-10776253D01*
X147258748Y-10955858D01*
X147244605Y-10970000D01*
X147258748Y-10984143D01*
X147079143Y-11163748D01*
X147065000Y-11149605D01*
X145189138Y-13025467D01*
X145440375Y-13422169D01*
X146502446Y-13857227D01*
X147650162Y-13852730D01*
X148590000Y-13463435D01*
X148590000Y-16510000D01*
X148636672Y-16748946D01*
X148775987Y-16959013D01*
X150680987Y-18864013D01*
X150730880Y-18897600D01*
X147011152Y-18897600D01*
X138520998Y-10407446D01*
X144177773Y-10407446D01*
X144182270Y-11555162D01*
X144612831Y-12594625D01*
X145009533Y-12845862D01*
X146885395Y-10970000D01*
X145009533Y-9094138D01*
X144612831Y-9345375D01*
X144177773Y-10407446D01*
X138520998Y-10407446D01*
X136446776Y-8333224D01*
X136191325Y-8162537D01*
X135890000Y-8102600D01*
X122894604Y-8102600D01*
X122834090Y-8008559D01*
X122621890Y-7863569D01*
X122370000Y-7812560D01*
X121470000Y-7812560D01*
X121234683Y-7856838D01*
X121018559Y-7995910D01*
X120873569Y-8208110D01*
X120860509Y-8272600D01*
X110917178Y-8272600D01*
X110908162Y-8224683D01*
X110769090Y-8008559D01*
X110556890Y-7863569D01*
X110305000Y-7812560D01*
X109891112Y-7812560D01*
X109520156Y-7441604D01*
X109520162Y-7434833D01*
X109378117Y-7091057D01*
X109115327Y-6827808D01*
X108771799Y-6685162D01*
X108399833Y-6684838D01*
X108056057Y-6826883D01*
X107792808Y-7089673D01*
X107650162Y-7433201D01*
X107649838Y-7805167D01*
X107791883Y-8148943D01*
X108054673Y-8412192D01*
X108398201Y-8554838D01*
X108406293Y-8554845D01*
X108757560Y-8906112D01*
X108757560Y-9660000D01*
X108801838Y-9895317D01*
X108940910Y-10111441D01*
X109010711Y-10159134D01*
X108953559Y-10195910D01*
X108808569Y-10408110D01*
X108789961Y-10500000D01*
X97325000Y-10500000D01*
X97034161Y-10557852D01*
X96787599Y-10722599D01*
X95357105Y-12153093D01*
X94973339Y-12152758D01*
X94459697Y-12364990D01*
X94066371Y-12757630D01*
X93853243Y-13270900D01*
X93853158Y-13367807D01*
X93482370Y-12996371D01*
X92969100Y-12783243D01*
X92413339Y-12782758D01*
X91899697Y-12994990D01*
X91506371Y-13387630D01*
X91293243Y-13900900D01*
X91292758Y-14456661D01*
X91391772Y-14696295D01*
X90999100Y-14533243D01*
X90443339Y-14532758D01*
X89929697Y-14744990D01*
X89536371Y-15137630D01*
X89323243Y-15650900D01*
X89322758Y-16206661D01*
X89534990Y-16720303D01*
X89807226Y-16993014D01*
X89513339Y-16992758D01*
X88999697Y-17204990D01*
X88606371Y-17597630D01*
X88393243Y-18110900D01*
X88392758Y-18666661D01*
X88604990Y-19180303D01*
X88997630Y-19573629D01*
X89449615Y-19761309D01*
X89319697Y-19814990D01*
X88926371Y-20207630D01*
X88713243Y-20720900D01*
X88712758Y-21276661D01*
X88924990Y-21790303D01*
X89317630Y-22183629D01*
X89830900Y-22396757D01*
X90386661Y-22397242D01*
X90412694Y-22386485D01*
X90203243Y-22890900D01*
X90202758Y-23446661D01*
X90414990Y-23960303D01*
X90807630Y-24353629D01*
X91320900Y-24566757D01*
X91876661Y-24567242D01*
X92390303Y-24355010D01*
X92533154Y-24212408D01*
X92532758Y-24666661D01*
X92744990Y-25180303D01*
X93137630Y-25573629D01*
X93650900Y-25786757D01*
X94206661Y-25787242D01*
X94720303Y-25575010D01*
X95113629Y-25182370D01*
X95250073Y-24853777D01*
X95384990Y-25180303D01*
X95777630Y-25573629D01*
X96290900Y-25786757D01*
X96846661Y-25787242D01*
X97360303Y-25575010D01*
X97753629Y-25182370D01*
X97966757Y-24669100D01*
X97967155Y-24212909D01*
X98107630Y-24353629D01*
X98620900Y-24566757D01*
X99176661Y-24567242D01*
X99690303Y-24355010D01*
X100083629Y-23962370D01*
X100296757Y-23449100D01*
X100297242Y-22893339D01*
X100088157Y-22387313D01*
X100110900Y-22396757D01*
X100666661Y-22397242D01*
X101180303Y-22185010D01*
X101573629Y-21792370D01*
X101786757Y-21279100D01*
X101787242Y-20723339D01*
X101575010Y-20209697D01*
X101182370Y-19816371D01*
X101049595Y-19761238D01*
X101500303Y-19575010D01*
X101893629Y-19182370D01*
X102106757Y-18669100D01*
X102107242Y-18113339D01*
X101895010Y-17599697D01*
X101502370Y-17206371D01*
X100989100Y-16993243D01*
X100692542Y-16992984D01*
X100963629Y-16722370D01*
X101176757Y-16209100D01*
X101177242Y-15653339D01*
X100965010Y-15139697D01*
X100572370Y-14746371D01*
X100059100Y-14533243D01*
X99503339Y-14532758D01*
X99108414Y-14695937D01*
X99206757Y-14459100D01*
X99207242Y-13903339D01*
X98995010Y-13389697D01*
X98602370Y-12996371D01*
X98089100Y-12783243D01*
X97533339Y-12782758D01*
X97019697Y-12994990D01*
X96647160Y-13366877D01*
X96647242Y-13273339D01*
X96570995Y-13088807D01*
X97639802Y-12020000D01*
X108787666Y-12020000D01*
X108801838Y-12095317D01*
X108940910Y-12311441D01*
X109153110Y-12456431D01*
X109405000Y-12507440D01*
X110305000Y-12507440D01*
X110540317Y-12463162D01*
X110756441Y-12324090D01*
X110901431Y-12111890D01*
X110952440Y-11860000D01*
X110952440Y-10660000D01*
X110908162Y-10424683D01*
X110769090Y-10208559D01*
X110699289Y-10160866D01*
X110756441Y-10124090D01*
X110901431Y-9911890D01*
X110914491Y-9847400D01*
X120857822Y-9847400D01*
X120866838Y-9895317D01*
X121005910Y-10111441D01*
X121075711Y-10159134D01*
X121018559Y-10195910D01*
X120873569Y-10408110D01*
X120822560Y-10660000D01*
X120822560Y-11860000D01*
X120866838Y-12095317D01*
X121005910Y-12311441D01*
X121218110Y-12456431D01*
X121470000Y-12507440D01*
X122370000Y-12507440D01*
X122605317Y-12463162D01*
X122821441Y-12324090D01*
X122966431Y-12111890D01*
X122985039Y-12020000D01*
X130745198Y-12020000D01*
X131965817Y-13240619D01*
X131953243Y-13270900D01*
X131953158Y-13367807D01*
X131582370Y-12996371D01*
X131069100Y-12783243D01*
X130513339Y-12782758D01*
X129999697Y-12994990D01*
X129606371Y-13387630D01*
X129393243Y-13900900D01*
X129392758Y-14456661D01*
X129491772Y-14696295D01*
X129099100Y-14533243D01*
X128543339Y-14532758D01*
X128029697Y-14744990D01*
X127636371Y-15137630D01*
X127423243Y-15650900D01*
X127422758Y-16206661D01*
X127634990Y-16720303D01*
X127907226Y-16993014D01*
X127613339Y-16992758D01*
X127099697Y-17204990D01*
X126706371Y-17597630D01*
X126493243Y-18110900D01*
X126492758Y-18666661D01*
X126704990Y-19180303D01*
X127097630Y-19573629D01*
X127549615Y-19761309D01*
X127419697Y-19814990D01*
X127026371Y-20207630D01*
X126813243Y-20720900D01*
X126812758Y-21276661D01*
X127024990Y-21790303D01*
X127417630Y-22183629D01*
X127930900Y-22396757D01*
X128486661Y-22397242D01*
X128512694Y-22386485D01*
X128303243Y-22890900D01*
X128302758Y-23446661D01*
X128514990Y-23960303D01*
X128907630Y-24353629D01*
X129420900Y-24566757D01*
X129976661Y-24567242D01*
X130490303Y-24355010D01*
X130633154Y-24212408D01*
X130632758Y-24666661D01*
X130844990Y-25180303D01*
X131237630Y-25573629D01*
X131750900Y-25786757D01*
X132306661Y-25787242D01*
X132820303Y-25575010D01*
X133213629Y-25182370D01*
X133350073Y-24853777D01*
X133484990Y-25180303D01*
X133877630Y-25573629D01*
X134390900Y-25786757D01*
X134946661Y-25787242D01*
X135460303Y-25575010D01*
X135853629Y-25182370D01*
X136066757Y-24669100D01*
X136067155Y-24212909D01*
X136207630Y-24353629D01*
X136720900Y-24566757D01*
X137276661Y-24567242D01*
X137790303Y-24355010D01*
X138183629Y-23962370D01*
X138396757Y-23449100D01*
X138397242Y-22893339D01*
X138188157Y-22387313D01*
X138210900Y-22396757D01*
X138766661Y-22397242D01*
X139280303Y-22185010D01*
X139673629Y-21792370D01*
X139886757Y-21279100D01*
X139887242Y-20723339D01*
X139675010Y-20209697D01*
X139282370Y-19816371D01*
X139149595Y-19761238D01*
X139600303Y-19575010D01*
X139993629Y-19182370D01*
X140206757Y-18669100D01*
X140207242Y-18113339D01*
X139995010Y-17599697D01*
X139602370Y-17206371D01*
X139089100Y-16993243D01*
X138792542Y-16992984D01*
X139063629Y-16722370D01*
X139276757Y-16209100D01*
X139277242Y-15653339D01*
X139065010Y-15139697D01*
X138672370Y-14746371D01*
X138159100Y-14533243D01*
X137603339Y-14532758D01*
X137208414Y-14695937D01*
X137306757Y-14459100D01*
X137307242Y-13903339D01*
X137095010Y-13389697D01*
X136702370Y-12996371D01*
X136189100Y-12783243D01*
X135633339Y-12782758D01*
X135119697Y-12994990D01*
X134747160Y-13366877D01*
X134747242Y-13273339D01*
X134535010Y-12759697D01*
X134142370Y-12366371D01*
X133629100Y-12153243D01*
X133073339Y-12152758D01*
X133040945Y-12166143D01*
X131597401Y-10722599D01*
X131350839Y-10557852D01*
X131060000Y-10500000D01*
X122987334Y-10500000D01*
X122973162Y-10424683D01*
X122834090Y-10208559D01*
X122764289Y-10160866D01*
X122821441Y-10124090D01*
X122966431Y-9911890D01*
X123013916Y-9677400D01*
X135563848Y-9677400D01*
X146128224Y-20241776D01*
X146383675Y-20412463D01*
X146685000Y-20472400D01*
X152400000Y-20472400D01*
X152701325Y-20412463D01*
X152956776Y-20241776D01*
X164156152Y-9042400D01*
X179880834Y-9042400D01*
X179921838Y-9260317D01*
X180060910Y-9476441D01*
X180130711Y-9524134D01*
X180073559Y-9560910D01*
X179928569Y-9773110D01*
X179909961Y-9865000D01*
X174375000Y-9865000D01*
X174084161Y-9922852D01*
X173837599Y-10087599D01*
X171759381Y-12165817D01*
X171729100Y-12153243D01*
X171173339Y-12152758D01*
X170659697Y-12364990D01*
X170266371Y-12757630D01*
X170053243Y-13270900D01*
X170053158Y-13367807D01*
X169682370Y-12996371D01*
X169169100Y-12783243D01*
X168613339Y-12782758D01*
X168099697Y-12994990D01*
X167706371Y-13387630D01*
X167493243Y-13900900D01*
X167492758Y-14456661D01*
X167591772Y-14696295D01*
X167199100Y-14533243D01*
X166643339Y-14532758D01*
X166129697Y-14744990D01*
X165736371Y-15137630D01*
X165523243Y-15650900D01*
X165522758Y-16206661D01*
X165734990Y-16720303D01*
X166007226Y-16993014D01*
X165713339Y-16992758D01*
X165199697Y-17204990D01*
X164806371Y-17597630D01*
X164593243Y-18110900D01*
X164592758Y-18666661D01*
X164804990Y-19180303D01*
X165197630Y-19573629D01*
X165649615Y-19761309D01*
X165519697Y-19814990D01*
X165126371Y-20207630D01*
X164913243Y-20720900D01*
X164912758Y-21276661D01*
X165124990Y-21790303D01*
X165517630Y-22183629D01*
X166030900Y-22396757D01*
X166586661Y-22397242D01*
X166612694Y-22386485D01*
X166403243Y-22890900D01*
X166402758Y-23446661D01*
X166614990Y-23960303D01*
X167007630Y-24353629D01*
X167520900Y-24566757D01*
X168076661Y-24567242D01*
X168590303Y-24355010D01*
X168733154Y-24212408D01*
X168732758Y-24666661D01*
X168944990Y-25180303D01*
X169337630Y-25573629D01*
X169850900Y-25786757D01*
X170406661Y-25787242D01*
X170920303Y-25575010D01*
X171313629Y-25182370D01*
X171450073Y-24853777D01*
X171584990Y-25180303D01*
X171977630Y-25573629D01*
X172490900Y-25786757D01*
X173046661Y-25787242D01*
X173560303Y-25575010D01*
X173953629Y-25182370D01*
X174166757Y-24669100D01*
X174167155Y-24212909D01*
X174307630Y-24353629D01*
X174820900Y-24566757D01*
X175376661Y-24567242D01*
X175890303Y-24355010D01*
X176283629Y-23962370D01*
X176496757Y-23449100D01*
X176497242Y-22893339D01*
X176288157Y-22387313D01*
X176310900Y-22396757D01*
X176866661Y-22397242D01*
X177380303Y-22185010D01*
X177773629Y-21792370D01*
X177986757Y-21279100D01*
X177987242Y-20723339D01*
X177775010Y-20209697D01*
X177382370Y-19816371D01*
X177249595Y-19761238D01*
X177700303Y-19575010D01*
X178093629Y-19182370D01*
X178306757Y-18669100D01*
X178307242Y-18113339D01*
X178095010Y-17599697D01*
X177702370Y-17206371D01*
X177189100Y-16993243D01*
X176892542Y-16992984D01*
X177163629Y-16722370D01*
X177376757Y-16209100D01*
X177377242Y-15653339D01*
X177165010Y-15139697D01*
X176772370Y-14746371D01*
X176259100Y-14533243D01*
X175703339Y-14532758D01*
X175308414Y-14695937D01*
X175406757Y-14459100D01*
X175407242Y-13903339D01*
X175195010Y-13389697D01*
X174802370Y-12996371D01*
X174289100Y-12783243D01*
X173733339Y-12782758D01*
X173219697Y-12994990D01*
X172847160Y-13366877D01*
X172847242Y-13273339D01*
X172833857Y-13240945D01*
X174689802Y-11385000D01*
X179907666Y-11385000D01*
X179921838Y-11460317D01*
X180060910Y-11676441D01*
X180273110Y-11821431D01*
X180525000Y-11872440D01*
X181425000Y-11872440D01*
X181660317Y-11828162D01*
X181876441Y-11689090D01*
X182021431Y-11476890D01*
X182072440Y-11225000D01*
X182072440Y-10025000D01*
X182028162Y-9789683D01*
X181889090Y-9573559D01*
X181819289Y-9525866D01*
X181876441Y-9489090D01*
X182021431Y-9276890D01*
X182034491Y-9212400D01*
X196697600Y-9212400D01*
X196697600Y-19685000D01*
X196757537Y-19986325D01*
X196928224Y-20241776D01*
X204548224Y-27861776D01*
X204803675Y-28032463D01*
X205105000Y-28092400D01*
X213360000Y-28092400D01*
X213661325Y-28032463D01*
X213916776Y-27861776D01*
X215821776Y-25956776D01*
X215992463Y-25701325D01*
X216052400Y-25400000D01*
X216052400Y-23186152D01*
X216305448Y-22933104D01*
X216403946Y-23428285D01*
X216725853Y-23910054D01*
X217055026Y-24130000D01*
X216725853Y-24349946D01*
X216403946Y-24831715D01*
X216290907Y-25400000D01*
X216403946Y-25968285D01*
X216725853Y-26450054D01*
X217066553Y-26677702D01*
X216923642Y-26744817D01*
X216533355Y-27173076D01*
X216363524Y-27583110D01*
X216484845Y-27813000D01*
X217678000Y-27813000D01*
X217678000Y-27793000D01*
X217932000Y-27793000D01*
X217932000Y-27813000D01*
X219125155Y-27813000D01*
X219246476Y-27583110D01*
X219076645Y-27173076D01*
X218686358Y-26744817D01*
X218543447Y-26677702D01*
X218884147Y-26450054D01*
X219084135Y-26150750D01*
X222435000Y-26150750D01*
X222435000Y-26591309D01*
X222531673Y-26824698D01*
X222710301Y-27003327D01*
X222943690Y-27100000D01*
X223234250Y-27100000D01*
X223393000Y-26941250D01*
X223393000Y-25992000D01*
X223647000Y-25992000D01*
X223647000Y-26941250D01*
X223805750Y-27100000D01*
X224096310Y-27100000D01*
X224329699Y-27003327D01*
X224508327Y-26824698D01*
X224605000Y-26591309D01*
X224605000Y-26150750D01*
X224446250Y-25992000D01*
X223647000Y-25992000D01*
X223393000Y-25992000D01*
X222593750Y-25992000D01*
X222435000Y-26150750D01*
X219084135Y-26150750D01*
X219206054Y-25968285D01*
X219319093Y-25400000D01*
X219206054Y-24831715D01*
X218884147Y-24349946D01*
X218554974Y-24130000D01*
X218884147Y-23910054D01*
X219077954Y-23620000D01*
X222400198Y-23620000D01*
X222422560Y-23642362D01*
X222422560Y-24265000D01*
X222466838Y-24500317D01*
X222605910Y-24716441D01*
X222674006Y-24762969D01*
X222531673Y-24905302D01*
X222435000Y-25138691D01*
X222435000Y-25579250D01*
X222593750Y-25738000D01*
X223393000Y-25738000D01*
X223393000Y-25718000D01*
X223647000Y-25718000D01*
X223647000Y-25738000D01*
X224446250Y-25738000D01*
X224605000Y-25579250D01*
X224605000Y-25138691D01*
X224508327Y-24905302D01*
X224367090Y-24764064D01*
X224421441Y-24729090D01*
X224566431Y-24516890D01*
X224617440Y-24265000D01*
X224617440Y-23065000D01*
X224573162Y-22829683D01*
X224434090Y-22613559D01*
X224221890Y-22468569D01*
X223970000Y-22417560D01*
X223347362Y-22417560D01*
X223252401Y-22322599D01*
X223005839Y-22157852D01*
X222715000Y-22100000D01*
X219077954Y-22100000D01*
X218884147Y-21809946D01*
X218554974Y-21590000D01*
X218884147Y-21370054D01*
X219206054Y-20888285D01*
X219319093Y-20320000D01*
X219206054Y-19751715D01*
X218884147Y-19269946D01*
X218554974Y-19050000D01*
X218884147Y-18830054D01*
X219206054Y-18348285D01*
X219319093Y-17780000D01*
X219206054Y-17211715D01*
X218884147Y-16729946D01*
X218554974Y-16510000D01*
X218884147Y-16290054D01*
X219206054Y-15808285D01*
X219319093Y-15240000D01*
X219206054Y-14671715D01*
X218884147Y-14189946D01*
X218543447Y-13962298D01*
X218686358Y-13895183D01*
X219076645Y-13466924D01*
X219246476Y-13056890D01*
X219125155Y-12827000D01*
X217932000Y-12827000D01*
X217932000Y-12847000D01*
X217678000Y-12847000D01*
X217678000Y-12827000D01*
X216484845Y-12827000D01*
X216363524Y-13056890D01*
X216533355Y-13466924D01*
X216923642Y-13895183D01*
X217066553Y-13962298D01*
X216725853Y-14189946D01*
X216403946Y-14671715D01*
X216290907Y-15240000D01*
X216403946Y-15808285D01*
X216725853Y-16290054D01*
X217055026Y-16510000D01*
X216725853Y-16729946D01*
X216403946Y-17211715D01*
X216290907Y-17780000D01*
X216310770Y-17879859D01*
X216195010Y-17599697D01*
X215802370Y-17206371D01*
X215289100Y-16993243D01*
X214992542Y-16992984D01*
X215263629Y-16722370D01*
X215476757Y-16209100D01*
X215477242Y-15653339D01*
X215265010Y-15139697D01*
X214872370Y-14746371D01*
X214359100Y-14533243D01*
X213803339Y-14532758D01*
X213408414Y-14695937D01*
X213506757Y-14459100D01*
X213507242Y-13903339D01*
X213295010Y-13389697D01*
X212902370Y-12996371D01*
X212389100Y-12783243D01*
X211833339Y-12782758D01*
X211319697Y-12994990D01*
X210947160Y-13366877D01*
X210947242Y-13273339D01*
X210735010Y-12759697D01*
X210342370Y-12366371D01*
X209829100Y-12153243D01*
X209273339Y-12152758D01*
X209240945Y-12166143D01*
X207162401Y-10087599D01*
X206915839Y-9922852D01*
X206625000Y-9865000D01*
X202362334Y-9865000D01*
X202348162Y-9789683D01*
X202209090Y-9573559D01*
X202139289Y-9525866D01*
X202196441Y-9489090D01*
X202341431Y-9276890D01*
X202392440Y-9025000D01*
X202392440Y-8255000D01*
X212490098Y-8255000D01*
X216642045Y-11813812D01*
X216533355Y-11933076D01*
X216363524Y-12343110D01*
X216484845Y-12573000D01*
X217678000Y-12573000D01*
X217678000Y-12553000D01*
X217932000Y-12553000D01*
X217932000Y-12573000D01*
X219125155Y-12573000D01*
X219246476Y-12343110D01*
X219131286Y-12065000D01*
X223520000Y-12065000D01*
X223520000Y-13970000D01*
X223563427Y-14200795D01*
X223699827Y-14412767D01*
X223907949Y-14554971D01*
X224155000Y-14605000D01*
X224962560Y-14605000D01*
X224962560Y-15670000D01*
X225006838Y-15905317D01*
X225145910Y-16121441D01*
X225300000Y-16226726D01*
X225300000Y-16794895D01*
X225158559Y-16885910D01*
X225013569Y-17098110D01*
X224962560Y-17350000D01*
X224962560Y-18550000D01*
X225006838Y-18785317D01*
X225145910Y-19001441D01*
X225215711Y-19049134D01*
X225158559Y-19085910D01*
X225013569Y-19298110D01*
X224994961Y-19390000D01*
X224409780Y-19390000D01*
X224313117Y-19156057D01*
X224050327Y-18892808D01*
X223706799Y-18750162D01*
X223334833Y-18749838D01*
X222991057Y-18891883D01*
X222727808Y-19154673D01*
X222585162Y-19498201D01*
X222584838Y-19870167D01*
X222726883Y-20213943D01*
X222989673Y-20477192D01*
X223333201Y-20619838D01*
X223380077Y-20619879D01*
X223447599Y-20687401D01*
X223694160Y-20852148D01*
X223985000Y-20910000D01*
X224992666Y-20910000D01*
X225006838Y-20985317D01*
X225145910Y-21201441D01*
X225358110Y-21346431D01*
X225610000Y-21397440D01*
X226510000Y-21397440D01*
X226745317Y-21353162D01*
X226961441Y-21214090D01*
X227076000Y-21046427D01*
X227076000Y-25946932D01*
X226974090Y-25788559D01*
X226761890Y-25643569D01*
X226510000Y-25592560D01*
X225610000Y-25592560D01*
X225374683Y-25636838D01*
X225158559Y-25775910D01*
X225013569Y-25988110D01*
X224962560Y-26240000D01*
X224962560Y-27440000D01*
X225006838Y-27675317D01*
X225145910Y-27891441D01*
X225215711Y-27939134D01*
X225158559Y-27975910D01*
X225013569Y-28188110D01*
X224962560Y-28440000D01*
X224962560Y-29605229D01*
X224198312Y-28839646D01*
X222936261Y-28315597D01*
X221569734Y-28314405D01*
X220306771Y-28836250D01*
X219339646Y-29801688D01*
X218815597Y-31063739D01*
X218814405Y-32430266D01*
X219336250Y-33693229D01*
X220301688Y-34660354D01*
X221563739Y-35184403D01*
X222930266Y-35185595D01*
X224193229Y-34663750D01*
X224962560Y-33895761D01*
X224962560Y-34425000D01*
X225006838Y-34660317D01*
X225145910Y-34876441D01*
X225215711Y-34924134D01*
X225158559Y-34960910D01*
X225013569Y-35173110D01*
X224994961Y-35265000D01*
X223083450Y-35265000D01*
X223071799Y-35260162D01*
X222699833Y-35259838D01*
X222356057Y-35401883D01*
X222092808Y-35664673D01*
X221950162Y-36008201D01*
X221949838Y-36380167D01*
X222030754Y-36576000D01*
X213802440Y-36576000D01*
X213802440Y-35745000D01*
X213758162Y-35509683D01*
X213619090Y-35293559D01*
X213406890Y-35148569D01*
X213155000Y-35097560D01*
X211955000Y-35097560D01*
X211719683Y-35141838D01*
X211503559Y-35280910D01*
X211455866Y-35350711D01*
X211419090Y-35293559D01*
X211206890Y-35148569D01*
X210955000Y-35097560D01*
X209755000Y-35097560D01*
X209519683Y-35141838D01*
X209303559Y-35280910D01*
X209198274Y-35435000D01*
X205963105Y-35435000D01*
X205872090Y-35293559D01*
X205659890Y-35148569D01*
X205408000Y-35097560D01*
X204208000Y-35097560D01*
X203972683Y-35141838D01*
X203756559Y-35280910D01*
X203708866Y-35350711D01*
X203672090Y-35293559D01*
X203459890Y-35148569D01*
X203208000Y-35097560D01*
X202008000Y-35097560D01*
X201772683Y-35141838D01*
X201556559Y-35280910D01*
X201451274Y-35435000D01*
X199952463Y-35435000D01*
X199920327Y-35402808D01*
X199576799Y-35260162D01*
X199204833Y-35259838D01*
X198861057Y-35401883D01*
X198597808Y-35664673D01*
X198455162Y-36008201D01*
X198454838Y-36380167D01*
X198535754Y-36576000D01*
X193294000Y-36576000D01*
X193294000Y-36492189D01*
X193339838Y-36381799D01*
X193340162Y-36009833D01*
X193198117Y-35666057D01*
X192935327Y-35402808D01*
X192591799Y-35260162D01*
X192219833Y-35259838D01*
X191876057Y-35401883D01*
X191612808Y-35664673D01*
X191470162Y-36008201D01*
X191469838Y-36380167D01*
X191516000Y-36491888D01*
X191516000Y-36576000D01*
X190942440Y-36576000D01*
X190942440Y-35745000D01*
X190905810Y-35550327D01*
X191037401Y-35462401D01*
X191274680Y-35225122D01*
X191320167Y-35225162D01*
X191663943Y-35083117D01*
X191927192Y-34820327D01*
X192069838Y-34476799D01*
X192070162Y-34104833D01*
X191928117Y-33761057D01*
X191665327Y-33497808D01*
X191365668Y-33373378D01*
X191434838Y-33206799D01*
X191435162Y-32834833D01*
X191293117Y-32491057D01*
X191030327Y-32227808D01*
X190686799Y-32085162D01*
X190314833Y-32084838D01*
X189971057Y-32226883D01*
X189707808Y-32489673D01*
X189565162Y-32833201D01*
X189565121Y-32880077D01*
X189365200Y-33079998D01*
X188587233Y-33079998D01*
X188752192Y-32915327D01*
X188894838Y-32571799D01*
X188895162Y-32199833D01*
X188753117Y-31856057D01*
X188490327Y-31592808D01*
X188226446Y-31483235D01*
X188118117Y-31221057D01*
X187855327Y-30957808D01*
X187511799Y-30815162D01*
X187139833Y-30814838D01*
X186971403Y-30884432D01*
X186848117Y-30586057D01*
X186585327Y-30322808D01*
X186241799Y-30180162D01*
X185869833Y-30179838D01*
X185526057Y-30321883D01*
X185262808Y-30584673D01*
X185120162Y-30928201D01*
X185120121Y-30975077D01*
X185105198Y-30990000D01*
X184464802Y-30990000D01*
X181771692Y-28296890D01*
X216363524Y-28296890D01*
X216533355Y-28706924D01*
X216923642Y-29135183D01*
X217448108Y-29381486D01*
X217678000Y-29260819D01*
X217678000Y-28067000D01*
X217932000Y-28067000D01*
X217932000Y-29260819D01*
X218161892Y-29381486D01*
X218686358Y-29135183D01*
X219076645Y-28706924D01*
X219246476Y-28296890D01*
X219125155Y-28067000D01*
X217932000Y-28067000D01*
X217678000Y-28067000D01*
X216484845Y-28067000D01*
X216363524Y-28296890D01*
X181771692Y-28296890D01*
X179607401Y-26132599D01*
X179360839Y-25967852D01*
X179070000Y-25910000D01*
X121285000Y-25910000D01*
X120994160Y-25967852D01*
X120747599Y-26132599D01*
X116525198Y-30355000D01*
X110417463Y-30355000D01*
X110385327Y-30322808D01*
X110041799Y-30180162D01*
X109669833Y-30179838D01*
X109326057Y-30321883D01*
X109292882Y-30355000D01*
X94294802Y-30355000D01*
X90072401Y-26132599D01*
X89825839Y-25967852D01*
X89535000Y-25910000D01*
X78551240Y-25910000D01*
X78567440Y-25830000D01*
X78567440Y-24630000D01*
X78523162Y-24394683D01*
X78384090Y-24178559D01*
X78314289Y-24130866D01*
X78371441Y-24094090D01*
X78516431Y-23881890D01*
X78567440Y-23630000D01*
X78567440Y-22430000D01*
X78523162Y-22194683D01*
X78384090Y-21978559D01*
X78171890Y-21833569D01*
X77920000Y-21782560D01*
X77649796Y-21782560D01*
X76454000Y-20586764D01*
X76454000Y-20453699D01*
X76670000Y-20497440D01*
X78270000Y-20497440D01*
X78505317Y-20453162D01*
X78721441Y-20314090D01*
X78866431Y-20101890D01*
X78917440Y-19850000D01*
X78917440Y-18250000D01*
X78873162Y-18014683D01*
X78734090Y-17798559D01*
X78521890Y-17653569D01*
X78362384Y-17621268D01*
X78701041Y-17247423D01*
X78861904Y-16859039D01*
X78739915Y-16637000D01*
X77597000Y-16637000D01*
X77597000Y-16657000D01*
X77343000Y-16657000D01*
X77343000Y-16637000D01*
X77323000Y-16637000D01*
X77323000Y-16383000D01*
X77343000Y-16383000D01*
X77343000Y-16363000D01*
X77597000Y-16363000D01*
X77597000Y-16383000D01*
X78739915Y-16383000D01*
X78861904Y-16160961D01*
X78701041Y-15772577D01*
X78325134Y-15357611D01*
X78108297Y-15254986D01*
X78512811Y-14984698D01*
X78823880Y-14519151D01*
X78933113Y-13970000D01*
X78823880Y-13420849D01*
X78512811Y-12955302D01*
X78130725Y-12700000D01*
X78512811Y-12444698D01*
X78823880Y-11979151D01*
X78933113Y-11430000D01*
X78823880Y-10880849D01*
X78512811Y-10415302D01*
X78047264Y-10104233D01*
X77498113Y-9995000D01*
X77441887Y-9995000D01*
X76892736Y-10104233D01*
X76427189Y-10415302D01*
X76116120Y-10880849D01*
X76006887Y-11430000D01*
X76116120Y-11979151D01*
X76427189Y-12444698D01*
X76809275Y-12700000D01*
X76427189Y-12955302D01*
X76343200Y-13081000D01*
X75933236Y-13081000D01*
X72593762Y-9741526D01*
X72548117Y-9631057D01*
X72285327Y-9367808D01*
X71941799Y-9225162D01*
X71569833Y-9224838D01*
X71226057Y-9366883D01*
X70962808Y-9629673D01*
X70820162Y-9973201D01*
X70819838Y-10345167D01*
X70832039Y-10374695D01*
X70427264Y-10104233D01*
X69878113Y-9995000D01*
X69821887Y-9995000D01*
X69272736Y-10104233D01*
X68807189Y-10415302D01*
X68496120Y-10880849D01*
X68386887Y-11430000D01*
X68496120Y-11979151D01*
X68807189Y-12444698D01*
X69189275Y-12700000D01*
X68807189Y-12955302D01*
X68496120Y-13420849D01*
X68386887Y-13970000D01*
X68496120Y-14519151D01*
X68807189Y-14984698D01*
X69189275Y-15240000D01*
X68807189Y-15495302D01*
X68496120Y-15960849D01*
X68386887Y-16510000D01*
X68496120Y-17059151D01*
X68807189Y-17524698D01*
X69189275Y-17780000D01*
X68807189Y-18035302D01*
X68496120Y-18500849D01*
X68386887Y-19050000D01*
X68496120Y-19599151D01*
X68807189Y-20064698D01*
X69272736Y-20375767D01*
X69821887Y-20485000D01*
X69878113Y-20485000D01*
X70427264Y-20375767D01*
X70892811Y-20064698D01*
X70959736Y-19964538D01*
X73132267Y-22137069D01*
X73110000Y-22132560D01*
X72503689Y-22132560D01*
X72340000Y-22100000D01*
X71470105Y-22100000D01*
X71379090Y-21958559D01*
X71166890Y-21813569D01*
X70915000Y-21762560D01*
X69715000Y-21762560D01*
X69479683Y-21806838D01*
X69263559Y-21945910D01*
X69215866Y-22015711D01*
X69179090Y-21958559D01*
X68966890Y-21813569D01*
X68875000Y-21794961D01*
X68875000Y-21760000D01*
X68817148Y-21469161D01*
X68652401Y-21222599D01*
X68070000Y-20640198D01*
X68070000Y-19612463D01*
X68102192Y-19580327D01*
X68244838Y-19236799D01*
X68245162Y-18864833D01*
X68103117Y-18521057D01*
X67840327Y-18257808D01*
X67496799Y-18115162D01*
X67487427Y-18115154D01*
X67554093Y-17780000D01*
X67441054Y-17211715D01*
X67119147Y-16729946D01*
X66789974Y-16510000D01*
X67119147Y-16290054D01*
X67441054Y-15808285D01*
X67554093Y-15240000D01*
X67441054Y-14671715D01*
X67119147Y-14189946D01*
X66789974Y-13970000D01*
X67119147Y-13750054D01*
X67441054Y-13268285D01*
X67554093Y-12700000D01*
X67441054Y-12131715D01*
X67119147Y-11649946D01*
X66789974Y-11430000D01*
X67119147Y-11210054D01*
X67441054Y-10728285D01*
X67554093Y-10160000D01*
X67441054Y-9591715D01*
X67119147Y-9109946D01*
X66789974Y-8890000D01*
X67044397Y-8720000D01*
X74805000Y-8720000D01*
X74862852Y-9010839D01*
X75027599Y-9257401D01*
X75274161Y-9422148D01*
X75565000Y-9480000D01*
X75855839Y-9422148D01*
X76102401Y-9257401D01*
X76567401Y-8792401D01*
X76732148Y-8545840D01*
X76790000Y-8255000D01*
X76732148Y-7964161D01*
X76567401Y-7717599D01*
X76320839Y-7552852D01*
X76030000Y-7495000D01*
X75739160Y-7552852D01*
X75492599Y-7717599D01*
X75027599Y-8182599D01*
X74862852Y-8429161D01*
X74805000Y-8720000D01*
X67044397Y-8720000D01*
X67119147Y-8670054D01*
X67441054Y-8188285D01*
X67554093Y-7620000D01*
X67441054Y-7051715D01*
X67119147Y-6569946D01*
X66637378Y-6248039D01*
X66069093Y-6135000D01*
X66010907Y-6135000D01*
X65442622Y-6248039D01*
X64960853Y-6569946D01*
X64638946Y-7051715D01*
X64525907Y-7620000D01*
X64638946Y-8188285D01*
X64960853Y-8670054D01*
X65290026Y-8890000D01*
X64960853Y-9109946D01*
X64767046Y-9400000D01*
X61274802Y-9400000D01*
X60227401Y-8352599D01*
X59980839Y-8187852D01*
X59690000Y-8130000D01*
X54610000Y-8130000D01*
X54319161Y-8187852D01*
X54072599Y-8352599D01*
X47310198Y-15115000D01*
X36830000Y-15115000D01*
X36587414Y-15163254D01*
X36539160Y-15172852D01*
X36292599Y-15337599D01*
X33752599Y-17877599D01*
X33587852Y-18124161D01*
X33530000Y-18415000D01*
X33530000Y-19592560D01*
X32935000Y-19592560D01*
X32699683Y-19636838D01*
X32483559Y-19775910D01*
X32338569Y-19988110D01*
X32287560Y-20240000D01*
X32287560Y-20730681D01*
X32086890Y-20593569D01*
X31835000Y-20542560D01*
X30935000Y-20542560D01*
X30699683Y-20586838D01*
X30483559Y-20725910D01*
X30338569Y-20938110D01*
X30287560Y-21190000D01*
X30287560Y-21990000D01*
X30331838Y-22225317D01*
X30470910Y-22441441D01*
X30625000Y-22546726D01*
X30625000Y-23765000D01*
X30682852Y-24055839D01*
X30847599Y-24302401D01*
X31185198Y-24640000D01*
X31115000Y-24640000D01*
X30824161Y-24697852D01*
X30577599Y-24862599D01*
X28672599Y-26767599D01*
X28587455Y-26895027D01*
X28524683Y-26906838D01*
X28308559Y-27045910D01*
X28163569Y-27258110D01*
X28112560Y-27510000D01*
X28112560Y-28710000D01*
X28156838Y-28945317D01*
X28295910Y-29161441D01*
X28365711Y-29209134D01*
X28308559Y-29245910D01*
X28163569Y-29458110D01*
X28112560Y-29710000D01*
X28112560Y-30910000D01*
X28156838Y-31145317D01*
X28295910Y-31361441D01*
X28508110Y-31506431D01*
X28760000Y-31557440D01*
X29660000Y-31557440D01*
X29895317Y-31513162D01*
X30111441Y-31374090D01*
X30113638Y-31370874D01*
X32596000Y-33853236D01*
X32596000Y-35176382D01*
X32433559Y-35280910D01*
X32385866Y-35350711D01*
X32349090Y-35293559D01*
X32136890Y-35148569D01*
X31885000Y-35097560D01*
X30685000Y-35097560D01*
X30449683Y-35141838D01*
X30233559Y-35280910D01*
X30128274Y-35435000D01*
X27147105Y-35435000D01*
X27056090Y-35293559D01*
X26843890Y-35148569D01*
X26592000Y-35097560D01*
X25392000Y-35097560D01*
X25156683Y-35141838D01*
X24940559Y-35280910D01*
X24892866Y-35350711D01*
X24856090Y-35293559D01*
X24643890Y-35148569D01*
X24392000Y-35097560D01*
X23192000Y-35097560D01*
X22956683Y-35141838D01*
X22740559Y-35280910D01*
X22635274Y-35435000D01*
X21517463Y-35435000D01*
X21485327Y-35402808D01*
X21141799Y-35260162D01*
X20769833Y-35259838D01*
X20426057Y-35401883D01*
X20162808Y-35664673D01*
X20020162Y-36008201D01*
X20019838Y-36380167D01*
X20100754Y-36576000D01*
X9577049Y-36576000D01*
X9597401Y-36562401D01*
X14744680Y-31415122D01*
X14790167Y-31415162D01*
X15133943Y-31273117D01*
X15397192Y-31010327D01*
X15539838Y-30666799D01*
X15540162Y-30294833D01*
X15398117Y-29951057D01*
X15135327Y-29687808D01*
X14791799Y-29545162D01*
X14419833Y-29544838D01*
X14076057Y-29686883D01*
X13812808Y-29949673D01*
X13670162Y-30293201D01*
X13670121Y-30340077D01*
X8745198Y-35265000D01*
X3607334Y-35265000D01*
X3593162Y-35189683D01*
X3454090Y-34973559D01*
X3384289Y-34925866D01*
X3441441Y-34889090D01*
X3586431Y-34676890D01*
X3637440Y-34425000D01*
X3637440Y-33894771D01*
X4401688Y-34660354D01*
X5663739Y-35184403D01*
X7030266Y-35185595D01*
X8293229Y-34663750D01*
X9260354Y-33698312D01*
X9784403Y-32436261D01*
X9785595Y-31069734D01*
X9263750Y-29806771D01*
X8298312Y-28839646D01*
X7036261Y-28315597D01*
X5669734Y-28314405D01*
X4406771Y-28836250D01*
X3637440Y-29604239D01*
X3637440Y-28440000D01*
X3593162Y-28204683D01*
X3454090Y-27988559D01*
X3384289Y-27940866D01*
X3441441Y-27904090D01*
X3586431Y-27691890D01*
X3637440Y-27440000D01*
X3637440Y-26240000D01*
X3593162Y-26004683D01*
X3454090Y-25788559D01*
X3241890Y-25643569D01*
X2990000Y-25592560D01*
X2090000Y-25592560D01*
X1854683Y-25636838D01*
X1638559Y-25775910D01*
X1524000Y-25943573D01*
X1524000Y-21043068D01*
X1625910Y-21201441D01*
X1780000Y-21306726D01*
X1780000Y-21662537D01*
X1747808Y-21694673D01*
X1605162Y-22038201D01*
X1604838Y-22410167D01*
X1746883Y-22753943D01*
X2009673Y-23017192D01*
X2353201Y-23159838D01*
X2725167Y-23160162D01*
X3068943Y-23018117D01*
X3332192Y-22755327D01*
X3474838Y-22411799D01*
X3475162Y-22039833D01*
X3333117Y-21696057D01*
X3300000Y-21662882D01*
X3300000Y-21305105D01*
X3441441Y-21214090D01*
X3586431Y-21001890D01*
X3637440Y-20750000D01*
X3637440Y-19550000D01*
X3593162Y-19314683D01*
X3454090Y-19098559D01*
X3384289Y-19050866D01*
X3441441Y-19014090D01*
X3586431Y-18801890D01*
X3637440Y-18550000D01*
X3637440Y-17350000D01*
X3593162Y-17114683D01*
X3454090Y-16898559D01*
X3300000Y-16793274D01*
X3300000Y-14320105D01*
X3441441Y-14229090D01*
X3586431Y-14016890D01*
X3637440Y-13765000D01*
X3637440Y-13753223D01*
X5443035Y-13753223D01*
X5470222Y-14323454D01*
X5636136Y-14724005D01*
X5882255Y-14798139D01*
X6710395Y-13970000D01*
X5882255Y-13141861D01*
X5636136Y-13215995D01*
X5443035Y-13753223D01*
X3637440Y-13753223D01*
X3637440Y-12565000D01*
X3593162Y-12329683D01*
X3454090Y-12113559D01*
X3384289Y-12065866D01*
X3441441Y-12029090D01*
X3586431Y-11816890D01*
X3637440Y-11565000D01*
X3637440Y-10365000D01*
X3593162Y-10129683D01*
X3454090Y-9913559D01*
X3241890Y-9768569D01*
X2990000Y-9717560D01*
X2090000Y-9717560D01*
X1854683Y-9761838D01*
X1638559Y-9900910D01*
X1524000Y-10068573D01*
X1524000Y-5168068D01*
X1625910Y-5326441D01*
X1780000Y-5431726D01*
X1780000Y-7620000D01*
X1837852Y-7910839D01*
X2002599Y-8157401D01*
X4542599Y-10697401D01*
X4789160Y-10862148D01*
X4837414Y-10871746D01*
X5080000Y-10920000D01*
X9525000Y-10920000D01*
X9815839Y-10862148D01*
X10062401Y-10697401D01*
X12839680Y-7920122D01*
X12885167Y-7920162D01*
X13081000Y-7839246D01*
X13081000Y-8521764D01*
X9080204Y-12522560D01*
X8090000Y-12522560D01*
X7854683Y-12566838D01*
X7638559Y-12705910D01*
X7634023Y-12712548D01*
X7106777Y-12523035D01*
X6536546Y-12550222D01*
X6135995Y-12716136D01*
X6061861Y-12962255D01*
X6890000Y-13790395D01*
X6904142Y-13776252D01*
X7083748Y-13955858D01*
X7069605Y-13970000D01*
X7083748Y-13984143D01*
X6904142Y-14163748D01*
X6890000Y-14149605D01*
X6061861Y-14977745D01*
X6135995Y-15223864D01*
X6673223Y-15416965D01*
X7243454Y-15389778D01*
X7634947Y-15227616D01*
X7838110Y-15366431D01*
X8090000Y-15417440D01*
X9690000Y-15417440D01*
X9925317Y-15373162D01*
X10141441Y-15234090D01*
X10286431Y-15021890D01*
X10337440Y-14770000D01*
X10337440Y-13779796D01*
X14598618Y-9518618D01*
X14626800Y-9476441D01*
X14791329Y-9230206D01*
X14859000Y-8890000D01*
X14859000Y-5547745D01*
X36636861Y-5547745D01*
X36710995Y-5793864D01*
X37248223Y-5986965D01*
X37818454Y-5959778D01*
X38219005Y-5793864D01*
X38293139Y-5547745D01*
X37465000Y-4719605D01*
X36636861Y-5547745D01*
X14859000Y-5547745D01*
X14859000Y-4184797D01*
X15137433Y-3998754D01*
X15254054Y-3824219D01*
X15432370Y-4051236D01*
X15995523Y-4367926D01*
X16127056Y-4399975D01*
X16383000Y-4280836D01*
X16383000Y-2667000D01*
X16363000Y-2667000D01*
X16363000Y-2413000D01*
X16383000Y-2413000D01*
X16383000Y-2393000D01*
X16637000Y-2393000D01*
X16637000Y-2413000D01*
X16657000Y-2413000D01*
X16657000Y-2667000D01*
X16637000Y-2667000D01*
X16637000Y-4280836D01*
X16892944Y-4399975D01*
X17024477Y-4367926D01*
X17587630Y-4051236D01*
X17765946Y-3824219D01*
X17882567Y-3998754D01*
X18418190Y-4356646D01*
X19050000Y-4482321D01*
X19621422Y-4368658D01*
X19691382Y-4438618D01*
X19979794Y-4631329D01*
X20320000Y-4699000D01*
X33655000Y-4699000D01*
X33995206Y-4631329D01*
X34283618Y-4438618D01*
X35293236Y-3429000D01*
X36034307Y-3429000D01*
X36061838Y-3575317D01*
X36200910Y-3791441D01*
X36207548Y-3795977D01*
X36018035Y-4323223D01*
X36045222Y-4893454D01*
X36211136Y-5294005D01*
X36457255Y-5368139D01*
X37285395Y-4540000D01*
X37271252Y-4525858D01*
X37450858Y-4346253D01*
X37465000Y-4360395D01*
X37479143Y-4346253D01*
X37658748Y-4525858D01*
X37644605Y-4540000D01*
X38472745Y-5368139D01*
X38718864Y-5294005D01*
X38911965Y-4756777D01*
X38884778Y-4186546D01*
X38722616Y-3795053D01*
X38861431Y-3591890D01*
X38894417Y-3429000D01*
X40659951Y-3429000D01*
X40681838Y-3545317D01*
X40820910Y-3761441D01*
X40889006Y-3807969D01*
X40746673Y-3950302D01*
X40650000Y-4183691D01*
X40650000Y-4774250D01*
X40808750Y-4933000D01*
X41783000Y-4933000D01*
X41783000Y-4913000D01*
X42037000Y-4913000D01*
X42037000Y-4933000D01*
X43011250Y-4933000D01*
X43170000Y-4774250D01*
X43170000Y-4422236D01*
X43186382Y-4438618D01*
X43474794Y-4631329D01*
X43815000Y-4699000D01*
X46278012Y-4699000D01*
X46088559Y-4820910D01*
X45943569Y-5033110D01*
X45930509Y-5097600D01*
X44280000Y-5097600D01*
X43978675Y-5157537D01*
X43723224Y-5328224D01*
X43170000Y-5881448D01*
X43170000Y-5345750D01*
X43011250Y-5187000D01*
X42037000Y-5187000D01*
X42037000Y-5207000D01*
X41783000Y-5207000D01*
X41783000Y-5187000D01*
X40808750Y-5187000D01*
X40650000Y-5345750D01*
X40650000Y-5936309D01*
X40746673Y-6169698D01*
X40925301Y-6348327D01*
X40971830Y-6367600D01*
X20112178Y-6367600D01*
X20103162Y-6319683D01*
X19964090Y-6103559D01*
X19751890Y-5958569D01*
X19500000Y-5907560D01*
X18600000Y-5907560D01*
X18364683Y-5951838D01*
X18148559Y-6090910D01*
X18003569Y-6303110D01*
X17952560Y-6555000D01*
X17952560Y-7755000D01*
X17996838Y-7990317D01*
X18135910Y-8206441D01*
X18205711Y-8254134D01*
X18148559Y-8290910D01*
X18003569Y-8503110D01*
X17952560Y-8755000D01*
X17952560Y-9955000D01*
X17996838Y-10190317D01*
X18135910Y-10406441D01*
X18290000Y-10511726D01*
X18290000Y-12352469D01*
X18259697Y-12364990D01*
X17866371Y-12757630D01*
X17653243Y-13270900D01*
X17653158Y-13367807D01*
X17282370Y-12996371D01*
X16769100Y-12783243D01*
X16213339Y-12782758D01*
X15699697Y-12994990D01*
X15306371Y-13387630D01*
X15093243Y-13900900D01*
X15092758Y-14456661D01*
X15191772Y-14696295D01*
X14799100Y-14533243D01*
X14243339Y-14532758D01*
X13729697Y-14744990D01*
X13336371Y-15137630D01*
X13123243Y-15650900D01*
X13122758Y-16206661D01*
X13334990Y-16720303D01*
X13607226Y-16993014D01*
X13313339Y-16992758D01*
X12799697Y-17204990D01*
X12406371Y-17597630D01*
X12193243Y-18110900D01*
X12192758Y-18666661D01*
X12404990Y-19180303D01*
X12797630Y-19573629D01*
X13249615Y-19761309D01*
X13119697Y-19814990D01*
X12726371Y-20207630D01*
X12513243Y-20720900D01*
X12512758Y-21276661D01*
X12724990Y-21790303D01*
X13117630Y-22183629D01*
X13630900Y-22396757D01*
X14186661Y-22397242D01*
X14212694Y-22386485D01*
X14003243Y-22890900D01*
X14002758Y-23446661D01*
X14214990Y-23960303D01*
X14607630Y-24353629D01*
X15120900Y-24566757D01*
X15676661Y-24567242D01*
X16190303Y-24355010D01*
X16333154Y-24212408D01*
X16332758Y-24666661D01*
X16544990Y-25180303D01*
X16937630Y-25573629D01*
X17450900Y-25786757D01*
X18006661Y-25787242D01*
X18520303Y-25575010D01*
X18913629Y-25182370D01*
X19050073Y-24853777D01*
X19184990Y-25180303D01*
X19577630Y-25573629D01*
X20090900Y-25786757D01*
X20646661Y-25787242D01*
X21160303Y-25575010D01*
X21553629Y-25182370D01*
X21766757Y-24669100D01*
X21767155Y-24212909D01*
X21907630Y-24353629D01*
X22420900Y-24566757D01*
X22976661Y-24567242D01*
X23490303Y-24355010D01*
X23883629Y-23962370D01*
X24096757Y-23449100D01*
X24097242Y-22893339D01*
X23888157Y-22387313D01*
X23910900Y-22396757D01*
X24466661Y-22397242D01*
X24980303Y-22185010D01*
X25373629Y-21792370D01*
X25586757Y-21279100D01*
X25587242Y-20723339D01*
X25375010Y-20209697D01*
X24982370Y-19816371D01*
X24849595Y-19761238D01*
X25300303Y-19575010D01*
X25693629Y-19182370D01*
X25906757Y-18669100D01*
X25907242Y-18113339D01*
X25695010Y-17599697D01*
X25302370Y-17206371D01*
X24789100Y-16993243D01*
X24492542Y-16992984D01*
X24763629Y-16722370D01*
X24976757Y-16209100D01*
X24977242Y-15653339D01*
X24765010Y-15139697D01*
X24372370Y-14746371D01*
X23859100Y-14533243D01*
X23303339Y-14532758D01*
X22908414Y-14695937D01*
X23006757Y-14459100D01*
X23007242Y-13903339D01*
X22795010Y-13389697D01*
X22402370Y-12996371D01*
X21889100Y-12783243D01*
X21333339Y-12782758D01*
X20819697Y-12994990D01*
X20447160Y-13366877D01*
X20447242Y-13273339D01*
X20235010Y-12759697D01*
X19842370Y-12366371D01*
X19810000Y-12352930D01*
X19810000Y-10510105D01*
X19951441Y-10419090D01*
X20096431Y-10206890D01*
X20147440Y-9955000D01*
X20147440Y-8755000D01*
X20103162Y-8519683D01*
X19964090Y-8303559D01*
X19894289Y-8255866D01*
X19951441Y-8219090D01*
X20096431Y-8006890D01*
X20109491Y-7942400D01*
X43010000Y-7942400D01*
X43311325Y-7882463D01*
X43566776Y-7711776D01*
X44606152Y-6672400D01*
X45927822Y-6672400D01*
X45936838Y-6720317D01*
X46075910Y-6936441D01*
X46145711Y-6984134D01*
X46088559Y-7020910D01*
X45943569Y-7233110D01*
X45892560Y-7485000D01*
X45892560Y-8685000D01*
X45936838Y-8920317D01*
X46075910Y-9136441D01*
X46230000Y-9241726D01*
X46230000Y-10867537D01*
X46197808Y-10899673D01*
X46055162Y-11243201D01*
X46054838Y-11615167D01*
X46196883Y-11958943D01*
X46459673Y-12222192D01*
X46803201Y-12364838D01*
X47175167Y-12365162D01*
X47518943Y-12223117D01*
X47782192Y-11960327D01*
X47924838Y-11616799D01*
X47925162Y-11244833D01*
X47783117Y-10901057D01*
X47750000Y-10867882D01*
X47750000Y-9240105D01*
X47891441Y-9149090D01*
X48036431Y-8936890D01*
X48087440Y-8685000D01*
X48087440Y-7485000D01*
X48043162Y-7249683D01*
X47904090Y-7033559D01*
X47834289Y-6985866D01*
X47891441Y-6949090D01*
X48036431Y-6736890D01*
X48087440Y-6485000D01*
X48087440Y-5867400D01*
X60424889Y-5867400D01*
X60429673Y-5872192D01*
X60773201Y-6014838D01*
X61145167Y-6015162D01*
X61488943Y-5873117D01*
X61752192Y-5610327D01*
X61894838Y-5266799D01*
X61895162Y-4894833D01*
X61822509Y-4719000D01*
X62845000Y-4719000D01*
X63185206Y-4651329D01*
X63473618Y-4458618D01*
X64503236Y-3429000D01*
X64853240Y-3429000D01*
X64960853Y-3590054D01*
X65442622Y-3911961D01*
X66010907Y-4025000D01*
X66069093Y-4025000D01*
X66637378Y-3911961D01*
X67119147Y-3590054D01*
X67441054Y-3108285D01*
X67492817Y-2848057D01*
X67644110Y-2951431D01*
X67736000Y-2970039D01*
X67736000Y-3091000D01*
X67793852Y-3381839D01*
X67958599Y-3628401D01*
X71217599Y-6887401D01*
X71464161Y-7052148D01*
X71755000Y-7110000D01*
X77155198Y-7110000D01*
X77169878Y-7124680D01*
X77169838Y-7170167D01*
X77311883Y-7513943D01*
X77574673Y-7777192D01*
X77918201Y-7919838D01*
X78290167Y-7920162D01*
X78633943Y-7778117D01*
X78897192Y-7515327D01*
X79039838Y-7171799D01*
X79040162Y-6799833D01*
X78898117Y-6456057D01*
X78635327Y-6192808D01*
X78465761Y-6122398D01*
X78486441Y-6109090D01*
X78631431Y-5896890D01*
X78682440Y-5645000D01*
X78682440Y-5080000D01*
X79765907Y-5080000D01*
X79878946Y-5648285D01*
X80200853Y-6130054D01*
X80530026Y-6350000D01*
X80200853Y-6569946D01*
X79878946Y-7051715D01*
X79765907Y-7620000D01*
X79878946Y-8188285D01*
X80200853Y-8670054D01*
X80530026Y-8890000D01*
X80200853Y-9109946D01*
X79878946Y-9591715D01*
X79765907Y-10160000D01*
X79878946Y-10728285D01*
X80200853Y-11210054D01*
X80530026Y-11430000D01*
X80200853Y-11649946D01*
X79878946Y-12131715D01*
X79765907Y-12700000D01*
X79878946Y-13268285D01*
X80200853Y-13750054D01*
X80530026Y-13970000D01*
X80200853Y-14189946D01*
X79878946Y-14671715D01*
X79765907Y-15240000D01*
X79878946Y-15808285D01*
X80200853Y-16290054D01*
X80682622Y-16611961D01*
X81250907Y-16725000D01*
X81309093Y-16725000D01*
X81877378Y-16611961D01*
X82359147Y-16290054D01*
X82681054Y-15808285D01*
X82794093Y-15240000D01*
X82681054Y-14671715D01*
X82359147Y-14189946D01*
X82029974Y-13970000D01*
X82359147Y-13750054D01*
X82681054Y-13268285D01*
X82794093Y-12700000D01*
X82681054Y-12131715D01*
X82359147Y-11649946D01*
X82029974Y-11430000D01*
X82359147Y-11210054D01*
X82681054Y-10728285D01*
X82794093Y-10160000D01*
X82681054Y-9591715D01*
X82359147Y-9109946D01*
X82029974Y-8890000D01*
X82359147Y-8670054D01*
X82681054Y-8188285D01*
X82745498Y-7864304D01*
X84769802Y-5840000D01*
X87065198Y-5840000D01*
X84950320Y-7954878D01*
X84904833Y-7954838D01*
X84561057Y-8096883D01*
X84297808Y-8359673D01*
X84155162Y-8703201D01*
X84154838Y-9075167D01*
X84296883Y-9418943D01*
X84559673Y-9682192D01*
X84903201Y-9824838D01*
X85275167Y-9825162D01*
X85618943Y-9683117D01*
X85882192Y-9420327D01*
X86024838Y-9076799D01*
X86024879Y-9029923D01*
X88404680Y-6650122D01*
X88450167Y-6650162D01*
X88793943Y-6508117D01*
X89057192Y-6245327D01*
X89199838Y-5901799D01*
X89199892Y-5840000D01*
X123262537Y-5840000D01*
X123294673Y-5872192D01*
X123638201Y-6014838D01*
X124010167Y-6015162D01*
X124253708Y-5914533D01*
X149889138Y-5914533D01*
X151765000Y-7790395D01*
X153640862Y-5914533D01*
X153389625Y-5517831D01*
X152327554Y-5082773D01*
X151179838Y-5087270D01*
X150140375Y-5517831D01*
X149889138Y-5914533D01*
X124253708Y-5914533D01*
X124353943Y-5873117D01*
X124617192Y-5610327D01*
X124759838Y-5266799D01*
X124760162Y-4894833D01*
X124654690Y-4639570D01*
X124908201Y-4744838D01*
X125280167Y-4745162D01*
X125623943Y-4603117D01*
X125887192Y-4340327D01*
X126029838Y-3996799D01*
X126030162Y-3624833D01*
X125888117Y-3281057D01*
X125625327Y-3017808D01*
X125281799Y-2875162D01*
X124909833Y-2874838D01*
X124566057Y-3016883D01*
X124532882Y-3050000D01*
X83185000Y-3050000D01*
X82894160Y-3107852D01*
X82765000Y-3194154D01*
X82765000Y-2825750D01*
X82606250Y-2667000D01*
X81407000Y-2667000D01*
X81407000Y-2687000D01*
X81153000Y-2687000D01*
X81153000Y-2667000D01*
X79953750Y-2667000D01*
X79795000Y-2825750D01*
X79795000Y-3516310D01*
X79891673Y-3749699D01*
X80070302Y-3928327D01*
X80244777Y-4000597D01*
X80200853Y-4029946D01*
X79878946Y-4511715D01*
X79765907Y-5080000D01*
X78682440Y-5080000D01*
X78682440Y-3245000D01*
X78638162Y-3009683D01*
X78499090Y-2793559D01*
X78286890Y-2648569D01*
X78035000Y-2597560D01*
X76593320Y-2597560D01*
X76642440Y-2355000D01*
X76642440Y-1524000D01*
X79811440Y-1524000D01*
X79795000Y-1563690D01*
X79795000Y-1563690D01*
G37*
X79795000Y-1563690D02*
X79795000Y-2254250D01*
X79953750Y-2413000D01*
X81153000Y-2413000D01*
X81153000Y-2393000D01*
X81407000Y-2393000D01*
X81407000Y-2413000D01*
X82606250Y-2413000D01*
X82765000Y-2254250D01*
X82765000Y-1563690D01*
X82748560Y-1524000D01*
X87410802Y-1524000D01*
X87330162Y-1718201D01*
X87329838Y-2090167D01*
X87471883Y-2433943D01*
X87734673Y-2697192D01*
X88078201Y-2839838D01*
X88450167Y-2840162D01*
X88793943Y-2698117D01*
X88827118Y-2665000D01*
X89692895Y-2665000D01*
X89783910Y-2806441D01*
X89996110Y-2951431D01*
X90248000Y-3002440D01*
X91448000Y-3002440D01*
X91683317Y-2958162D01*
X91899441Y-2819090D01*
X91947134Y-2749289D01*
X91983910Y-2806441D01*
X92196110Y-2951431D01*
X92448000Y-3002440D01*
X93648000Y-3002440D01*
X93883317Y-2958162D01*
X94099441Y-2819090D01*
X94204726Y-2665000D01*
X96804895Y-2665000D01*
X96895910Y-2806441D01*
X97108110Y-2951431D01*
X97360000Y-3002440D01*
X98560000Y-3002440D01*
X98795317Y-2958162D01*
X99011441Y-2819090D01*
X99059134Y-2749289D01*
X99095910Y-2806441D01*
X99308110Y-2951431D01*
X99560000Y-3002440D01*
X100760000Y-3002440D01*
X100995317Y-2958162D01*
X101211441Y-2819090D01*
X101356431Y-2606890D01*
X101407440Y-2355000D01*
X101407440Y-1524000D01*
X110270802Y-1524000D01*
X110190162Y-1718201D01*
X110189838Y-2090167D01*
X110331883Y-2433943D01*
X110594673Y-2697192D01*
X110938201Y-2839838D01*
X111310167Y-2840162D01*
X111653943Y-2698117D01*
X111687118Y-2665000D01*
X112044895Y-2665000D01*
X112135910Y-2806441D01*
X112348110Y-2951431D01*
X112600000Y-3002440D01*
X113800000Y-3002440D01*
X114035317Y-2958162D01*
X114251441Y-2819090D01*
X114299134Y-2749289D01*
X114335910Y-2806441D01*
X114548110Y-2951431D01*
X114800000Y-3002440D01*
X116000000Y-3002440D01*
X116235317Y-2958162D01*
X116451441Y-2819090D01*
X116556726Y-2665000D01*
X119029895Y-2665000D01*
X119120910Y-2806441D01*
X119333110Y-2951431D01*
X119585000Y-3002440D01*
X120785000Y-3002440D01*
X121020317Y-2958162D01*
X121236441Y-2819090D01*
X121284134Y-2749289D01*
X121320910Y-2806441D01*
X121533110Y-2951431D01*
X121785000Y-3002440D01*
X122985000Y-3002440D01*
X123220317Y-2958162D01*
X123436441Y-2819090D01*
X123581431Y-2606890D01*
X123632440Y-2355000D01*
X123632440Y-1524000D01*
X131860802Y-1524000D01*
X131780162Y-1718201D01*
X131779838Y-2090167D01*
X131921883Y-2433943D01*
X132184673Y-2697192D01*
X132528201Y-2839838D01*
X132900167Y-2840162D01*
X133243943Y-2698117D01*
X133277118Y-2665000D01*
X134396895Y-2665000D01*
X134487910Y-2806441D01*
X134700110Y-2951431D01*
X134952000Y-3002440D01*
X136152000Y-3002440D01*
X136387317Y-2958162D01*
X136603441Y-2819090D01*
X136651134Y-2749289D01*
X136687910Y-2806441D01*
X136900110Y-2951431D01*
X137152000Y-3002440D01*
X138352000Y-3002440D01*
X138587317Y-2958162D01*
X138803441Y-2819090D01*
X138908726Y-2665000D01*
X141254895Y-2665000D01*
X141345910Y-2806441D01*
X141558110Y-2951431D01*
X141810000Y-3002440D01*
X143010000Y-3002440D01*
X143245317Y-2958162D01*
X143461441Y-2819090D01*
X143509134Y-2749289D01*
X143545910Y-2806441D01*
X143758110Y-2951431D01*
X144010000Y-3002440D01*
X145210000Y-3002440D01*
X145445317Y-2958162D01*
X145661441Y-2819090D01*
X145806431Y-2606890D01*
X145857440Y-2355000D01*
X145857440Y-1524000D01*
X151396764Y-1524000D01*
X154305000Y-4432236D01*
X154305000Y-6557417D01*
X154217169Y-6345375D01*
X153820467Y-6094138D01*
X151944605Y-7970000D01*
X153820467Y-9845862D01*
X154217169Y-9594625D01*
X154305000Y-9380210D01*
X154305000Y-9896974D01*
X153406974Y-10795000D01*
X152489534Y-10795000D01*
X153389625Y-10422169D01*
X153640862Y-10025467D01*
X151765000Y-8149605D01*
X151750858Y-8163748D01*
X151571253Y-7984143D01*
X151585395Y-7970000D01*
X149709533Y-6094138D01*
X149312831Y-6345375D01*
X148877773Y-7407446D01*
X148882270Y-8555162D01*
X149004688Y-8850704D01*
X148940861Y-8914531D01*
X148689625Y-8517831D01*
X147627554Y-8082773D01*
X146479838Y-8087270D01*
X145440375Y-8517831D01*
X145189138Y-8914533D01*
X147065000Y-10790395D01*
X147079143Y-10776253D01*
X147258748Y-10955858D01*
X147244605Y-10970000D01*
X147258748Y-10984143D01*
X147079143Y-11163748D01*
X147065000Y-11149605D01*
X145189138Y-13025467D01*
X145440375Y-13422169D01*
X146502446Y-13857227D01*
X147650162Y-13852730D01*
X148590000Y-13463435D01*
X148590000Y-16510000D01*
X148636672Y-16748946D01*
X148775987Y-16959013D01*
X150680987Y-18864013D01*
X150730880Y-18897600D01*
X147011152Y-18897600D01*
X138520998Y-10407446D01*
X144177773Y-10407446D01*
X144182270Y-11555162D01*
X144612831Y-12594625D01*
X145009533Y-12845862D01*
X146885395Y-10970000D01*
X145009533Y-9094138D01*
X144612831Y-9345375D01*
X144177773Y-10407446D01*
X138520998Y-10407446D01*
X136446776Y-8333224D01*
X136191325Y-8162537D01*
X135890000Y-8102600D01*
X122894604Y-8102600D01*
X122834090Y-8008559D01*
X122621890Y-7863569D01*
X122370000Y-7812560D01*
X121470000Y-7812560D01*
X121234683Y-7856838D01*
X121018559Y-7995910D01*
X120873569Y-8208110D01*
X120860509Y-8272600D01*
X110917178Y-8272600D01*
X110908162Y-8224683D01*
X110769090Y-8008559D01*
X110556890Y-7863569D01*
X110305000Y-7812560D01*
X109891112Y-7812560D01*
X109520156Y-7441604D01*
X109520162Y-7434833D01*
X109378117Y-7091057D01*
X109115327Y-6827808D01*
X108771799Y-6685162D01*
X108399833Y-6684838D01*
X108056057Y-6826883D01*
X107792808Y-7089673D01*
X107650162Y-7433201D01*
X107649838Y-7805167D01*
X107791883Y-8148943D01*
X108054673Y-8412192D01*
X108398201Y-8554838D01*
X108406293Y-8554845D01*
X108757560Y-8906112D01*
X108757560Y-9660000D01*
X108801838Y-9895317D01*
X108940910Y-10111441D01*
X109010711Y-10159134D01*
X108953559Y-10195910D01*
X108808569Y-10408110D01*
X108789961Y-10500000D01*
X97325000Y-10500000D01*
X97034161Y-10557852D01*
X96787599Y-10722599D01*
X95357105Y-12153093D01*
X94973339Y-12152758D01*
X94459697Y-12364990D01*
X94066371Y-12757630D01*
X93853243Y-13270900D01*
X93853158Y-13367807D01*
X93482370Y-12996371D01*
X92969100Y-12783243D01*
X92413339Y-12782758D01*
X91899697Y-12994990D01*
X91506371Y-13387630D01*
X91293243Y-13900900D01*
X91292758Y-14456661D01*
X91391772Y-14696295D01*
X90999100Y-14533243D01*
X90443339Y-14532758D01*
X89929697Y-14744990D01*
X89536371Y-15137630D01*
X89323243Y-15650900D01*
X89322758Y-16206661D01*
X89534990Y-16720303D01*
X89807226Y-16993014D01*
X89513339Y-16992758D01*
X88999697Y-17204990D01*
X88606371Y-17597630D01*
X88393243Y-18110900D01*
X88392758Y-18666661D01*
X88604990Y-19180303D01*
X88997630Y-19573629D01*
X89449615Y-19761309D01*
X89319697Y-19814990D01*
X88926371Y-20207630D01*
X88713243Y-20720900D01*
X88712758Y-21276661D01*
X88924990Y-21790303D01*
X89317630Y-22183629D01*
X89830900Y-22396757D01*
X90386661Y-22397242D01*
X90412694Y-22386485D01*
X90203243Y-22890900D01*
X90202758Y-23446661D01*
X90414990Y-23960303D01*
X90807630Y-24353629D01*
X91320900Y-24566757D01*
X91876661Y-24567242D01*
X92390303Y-24355010D01*
X92533154Y-24212408D01*
X92532758Y-24666661D01*
X92744990Y-25180303D01*
X93137630Y-25573629D01*
X93650900Y-25786757D01*
X94206661Y-25787242D01*
X94720303Y-25575010D01*
X95113629Y-25182370D01*
X95250073Y-24853777D01*
X95384990Y-25180303D01*
X95777630Y-25573629D01*
X96290900Y-25786757D01*
X96846661Y-25787242D01*
X97360303Y-25575010D01*
X97753629Y-25182370D01*
X97966757Y-24669100D01*
X97967155Y-24212909D01*
X98107630Y-24353629D01*
X98620900Y-24566757D01*
X99176661Y-24567242D01*
X99690303Y-24355010D01*
X100083629Y-23962370D01*
X100296757Y-23449100D01*
X100297242Y-22893339D01*
X100088157Y-22387313D01*
X100110900Y-22396757D01*
X100666661Y-22397242D01*
X101180303Y-22185010D01*
X101573629Y-21792370D01*
X101786757Y-21279100D01*
X101787242Y-20723339D01*
X101575010Y-20209697D01*
X101182370Y-19816371D01*
X101049595Y-19761238D01*
X101500303Y-19575010D01*
X101893629Y-19182370D01*
X102106757Y-18669100D01*
X102107242Y-18113339D01*
X101895010Y-17599697D01*
X101502370Y-17206371D01*
X100989100Y-16993243D01*
X100692542Y-16992984D01*
X100963629Y-16722370D01*
X101176757Y-16209100D01*
X101177242Y-15653339D01*
X100965010Y-15139697D01*
X100572370Y-14746371D01*
X100059100Y-14533243D01*
X99503339Y-14532758D01*
X99108414Y-14695937D01*
X99206757Y-14459100D01*
X99207242Y-13903339D01*
X98995010Y-13389697D01*
X98602370Y-12996371D01*
X98089100Y-12783243D01*
X97533339Y-12782758D01*
X97019697Y-12994990D01*
X96647160Y-13366877D01*
X96647242Y-13273339D01*
X96570995Y-13088807D01*
X97639802Y-12020000D01*
X108787666Y-12020000D01*
X108801838Y-12095317D01*
X108940910Y-12311441D01*
X109153110Y-12456431D01*
X109405000Y-12507440D01*
X110305000Y-12507440D01*
X110540317Y-12463162D01*
X110756441Y-12324090D01*
X110901431Y-12111890D01*
X110952440Y-11860000D01*
X110952440Y-10660000D01*
X110908162Y-10424683D01*
X110769090Y-10208559D01*
X110699289Y-10160866D01*
X110756441Y-10124090D01*
X110901431Y-9911890D01*
X110914491Y-9847400D01*
X120857822Y-9847400D01*
X120866838Y-9895317D01*
X121005910Y-10111441D01*
X121075711Y-10159134D01*
X121018559Y-10195910D01*
X120873569Y-10408110D01*
X120822560Y-10660000D01*
X120822560Y-11860000D01*
X120866838Y-12095317D01*
X121005910Y-12311441D01*
X121218110Y-12456431D01*
X121470000Y-12507440D01*
X122370000Y-12507440D01*
X122605317Y-12463162D01*
X122821441Y-12324090D01*
X122966431Y-12111890D01*
X122985039Y-12020000D01*
X130745198Y-12020000D01*
X131965817Y-13240619D01*
X131953243Y-13270900D01*
X131953158Y-13367807D01*
X131582370Y-12996371D01*
X131069100Y-12783243D01*
X130513339Y-12782758D01*
X129999697Y-12994990D01*
X129606371Y-13387630D01*
X129393243Y-13900900D01*
X129392758Y-14456661D01*
X129491772Y-14696295D01*
X129099100Y-14533243D01*
X128543339Y-14532758D01*
X128029697Y-14744990D01*
X127636371Y-15137630D01*
X127423243Y-15650900D01*
X127422758Y-16206661D01*
X127634990Y-16720303D01*
X127907226Y-16993014D01*
X127613339Y-16992758D01*
X127099697Y-17204990D01*
X126706371Y-17597630D01*
X126493243Y-18110900D01*
X126492758Y-18666661D01*
X126704990Y-19180303D01*
X127097630Y-19573629D01*
X127549615Y-19761309D01*
X127419697Y-19814990D01*
X127026371Y-20207630D01*
X126813243Y-20720900D01*
X126812758Y-21276661D01*
X127024990Y-21790303D01*
X127417630Y-22183629D01*
X127930900Y-22396757D01*
X128486661Y-22397242D01*
X128512694Y-22386485D01*
X128303243Y-22890900D01*
X128302758Y-23446661D01*
X128514990Y-23960303D01*
X128907630Y-24353629D01*
X129420900Y-24566757D01*
X129976661Y-24567242D01*
X130490303Y-24355010D01*
X130633154Y-24212408D01*
X130632758Y-24666661D01*
X130844990Y-25180303D01*
X131237630Y-25573629D01*
X131750900Y-25786757D01*
X132306661Y-25787242D01*
X132820303Y-25575010D01*
X133213629Y-25182370D01*
X133350073Y-24853777D01*
X133484990Y-25180303D01*
X133877630Y-25573629D01*
X134390900Y-25786757D01*
X134946661Y-25787242D01*
X135460303Y-25575010D01*
X135853629Y-25182370D01*
X136066757Y-24669100D01*
X136067155Y-24212909D01*
X136207630Y-24353629D01*
X136720900Y-24566757D01*
X137276661Y-24567242D01*
X137790303Y-24355010D01*
X138183629Y-23962370D01*
X138396757Y-23449100D01*
X138397242Y-22893339D01*
X138188157Y-22387313D01*
X138210900Y-22396757D01*
X138766661Y-22397242D01*
X139280303Y-22185010D01*
X139673629Y-21792370D01*
X139886757Y-21279100D01*
X139887242Y-20723339D01*
X139675010Y-20209697D01*
X139282370Y-19816371D01*
X139149595Y-19761238D01*
X139600303Y-19575010D01*
X139993629Y-19182370D01*
X140206757Y-18669100D01*
X140207242Y-18113339D01*
X139995010Y-17599697D01*
X139602370Y-17206371D01*
X139089100Y-16993243D01*
X138792542Y-16992984D01*
X139063629Y-16722370D01*
X139276757Y-16209100D01*
X139277242Y-15653339D01*
X139065010Y-15139697D01*
X138672370Y-14746371D01*
X138159100Y-14533243D01*
X137603339Y-14532758D01*
X137208414Y-14695937D01*
X137306757Y-14459100D01*
X137307242Y-13903339D01*
X137095010Y-13389697D01*
X136702370Y-12996371D01*
X136189100Y-12783243D01*
X135633339Y-12782758D01*
X135119697Y-12994990D01*
X134747160Y-13366877D01*
X134747242Y-13273339D01*
X134535010Y-12759697D01*
X134142370Y-12366371D01*
X133629100Y-12153243D01*
X133073339Y-12152758D01*
X133040945Y-12166143D01*
X131597401Y-10722599D01*
X131350839Y-10557852D01*
X131060000Y-10500000D01*
X122987334Y-10500000D01*
X122973162Y-10424683D01*
X122834090Y-10208559D01*
X122764289Y-10160866D01*
X122821441Y-10124090D01*
X122966431Y-9911890D01*
X123013916Y-9677400D01*
X135563848Y-9677400D01*
X146128224Y-20241776D01*
X146383675Y-20412463D01*
X146685000Y-20472400D01*
X152400000Y-20472400D01*
X152701325Y-20412463D01*
X152956776Y-20241776D01*
X164156152Y-9042400D01*
X179880834Y-9042400D01*
X179921838Y-9260317D01*
X180060910Y-9476441D01*
X180130711Y-9524134D01*
X180073559Y-9560910D01*
X179928569Y-9773110D01*
X179909961Y-9865000D01*
X174375000Y-9865000D01*
X174084161Y-9922852D01*
X173837599Y-10087599D01*
X171759381Y-12165817D01*
X171729100Y-12153243D01*
X171173339Y-12152758D01*
X170659697Y-12364990D01*
X170266371Y-12757630D01*
X170053243Y-13270900D01*
X170053158Y-13367807D01*
X169682370Y-12996371D01*
X169169100Y-12783243D01*
X168613339Y-12782758D01*
X168099697Y-12994990D01*
X167706371Y-13387630D01*
X167493243Y-13900900D01*
X167492758Y-14456661D01*
X167591772Y-14696295D01*
X167199100Y-14533243D01*
X166643339Y-14532758D01*
X166129697Y-14744990D01*
X165736371Y-15137630D01*
X165523243Y-15650900D01*
X165522758Y-16206661D01*
X165734990Y-16720303D01*
X166007226Y-16993014D01*
X165713339Y-16992758D01*
X165199697Y-17204990D01*
X164806371Y-17597630D01*
X164593243Y-18110900D01*
X164592758Y-18666661D01*
X164804990Y-19180303D01*
X165197630Y-19573629D01*
X165649615Y-19761309D01*
X165519697Y-19814990D01*
X165126371Y-20207630D01*
X164913243Y-20720900D01*
X164912758Y-21276661D01*
X165124990Y-21790303D01*
X165517630Y-22183629D01*
X166030900Y-22396757D01*
X166586661Y-22397242D01*
X166612694Y-22386485D01*
X166403243Y-22890900D01*
X166402758Y-23446661D01*
X166614990Y-23960303D01*
X167007630Y-24353629D01*
X167520900Y-24566757D01*
X168076661Y-24567242D01*
X168590303Y-24355010D01*
X168733154Y-24212408D01*
X168732758Y-24666661D01*
X168944990Y-25180303D01*
X169337630Y-25573629D01*
X169850900Y-25786757D01*
X170406661Y-25787242D01*
X170920303Y-25575010D01*
X171313629Y-25182370D01*
X171450073Y-24853777D01*
X171584990Y-25180303D01*
X171977630Y-25573629D01*
X172490900Y-25786757D01*
X173046661Y-25787242D01*
X173560303Y-25575010D01*
X173953629Y-25182370D01*
X174166757Y-24669100D01*
X174167155Y-24212909D01*
X174307630Y-24353629D01*
X174820900Y-24566757D01*
X175376661Y-24567242D01*
X175890303Y-24355010D01*
X176283629Y-23962370D01*
X176496757Y-23449100D01*
X176497242Y-22893339D01*
X176288157Y-22387313D01*
X176310900Y-22396757D01*
X176866661Y-22397242D01*
X177380303Y-22185010D01*
X177773629Y-21792370D01*
X177986757Y-21279100D01*
X177987242Y-20723339D01*
X177775010Y-20209697D01*
X177382370Y-19816371D01*
X177249595Y-19761238D01*
X177700303Y-19575010D01*
X178093629Y-19182370D01*
X178306757Y-18669100D01*
X178307242Y-18113339D01*
X178095010Y-17599697D01*
X177702370Y-17206371D01*
X177189100Y-16993243D01*
X176892542Y-16992984D01*
X177163629Y-16722370D01*
X177376757Y-16209100D01*
X177377242Y-15653339D01*
X177165010Y-15139697D01*
X176772370Y-14746371D01*
X176259100Y-14533243D01*
X175703339Y-14532758D01*
X175308414Y-14695937D01*
X175406757Y-14459100D01*
X175407242Y-13903339D01*
X175195010Y-13389697D01*
X174802370Y-12996371D01*
X174289100Y-12783243D01*
X173733339Y-12782758D01*
X173219697Y-12994990D01*
X172847160Y-13366877D01*
X172847242Y-13273339D01*
X172833857Y-13240945D01*
X174689802Y-11385000D01*
X179907666Y-11385000D01*
X179921838Y-11460317D01*
X180060910Y-11676441D01*
X180273110Y-11821431D01*
X180525000Y-11872440D01*
X181425000Y-11872440D01*
X181660317Y-11828162D01*
X181876441Y-11689090D01*
X182021431Y-11476890D01*
X182072440Y-11225000D01*
X182072440Y-10025000D01*
X182028162Y-9789683D01*
X181889090Y-9573559D01*
X181819289Y-9525866D01*
X181876441Y-9489090D01*
X182021431Y-9276890D01*
X182034491Y-9212400D01*
X196697600Y-9212400D01*
X196697600Y-19685000D01*
X196757537Y-19986325D01*
X196928224Y-20241776D01*
X204548224Y-27861776D01*
X204803675Y-28032463D01*
X205105000Y-28092400D01*
X213360000Y-28092400D01*
X213661325Y-28032463D01*
X213916776Y-27861776D01*
X215821776Y-25956776D01*
X215992463Y-25701325D01*
X216052400Y-25400000D01*
X216052400Y-23186152D01*
X216305448Y-22933104D01*
X216403946Y-23428285D01*
X216725853Y-23910054D01*
X217055026Y-24130000D01*
X216725853Y-24349946D01*
X216403946Y-24831715D01*
X216290907Y-25400000D01*
X216403946Y-25968285D01*
X216725853Y-26450054D01*
X217066553Y-26677702D01*
X216923642Y-26744817D01*
X216533355Y-27173076D01*
X216363524Y-27583110D01*
X216484845Y-27813000D01*
X217678000Y-27813000D01*
X217678000Y-27793000D01*
X217932000Y-27793000D01*
X217932000Y-27813000D01*
X219125155Y-27813000D01*
X219246476Y-27583110D01*
X219076645Y-27173076D01*
X218686358Y-26744817D01*
X218543447Y-26677702D01*
X218884147Y-26450054D01*
X219084135Y-26150750D01*
X222435000Y-26150750D01*
X222435000Y-26591309D01*
X222531673Y-26824698D01*
X222710301Y-27003327D01*
X222943690Y-27100000D01*
X223234250Y-27100000D01*
X223393000Y-26941250D01*
X223393000Y-25992000D01*
X223647000Y-25992000D01*
X223647000Y-26941250D01*
X223805750Y-27100000D01*
X224096310Y-27100000D01*
X224329699Y-27003327D01*
X224508327Y-26824698D01*
X224605000Y-26591309D01*
X224605000Y-26150750D01*
X224446250Y-25992000D01*
X223647000Y-25992000D01*
X223393000Y-25992000D01*
X222593750Y-25992000D01*
X222435000Y-26150750D01*
X219084135Y-26150750D01*
X219206054Y-25968285D01*
X219319093Y-25400000D01*
X219206054Y-24831715D01*
X218884147Y-24349946D01*
X218554974Y-24130000D01*
X218884147Y-23910054D01*
X219077954Y-23620000D01*
X222400198Y-23620000D01*
X222422560Y-23642362D01*
X222422560Y-24265000D01*
X222466838Y-24500317D01*
X222605910Y-24716441D01*
X222674006Y-24762969D01*
X222531673Y-24905302D01*
X222435000Y-25138691D01*
X222435000Y-25579250D01*
X222593750Y-25738000D01*
X223393000Y-25738000D01*
X223393000Y-25718000D01*
X223647000Y-25718000D01*
X223647000Y-25738000D01*
X224446250Y-25738000D01*
X224605000Y-25579250D01*
X224605000Y-25138691D01*
X224508327Y-24905302D01*
X224367090Y-24764064D01*
X224421441Y-24729090D01*
X224566431Y-24516890D01*
X224617440Y-24265000D01*
X224617440Y-23065000D01*
X224573162Y-22829683D01*
X224434090Y-22613559D01*
X224221890Y-22468569D01*
X223970000Y-22417560D01*
X223347362Y-22417560D01*
X223252401Y-22322599D01*
X223005839Y-22157852D01*
X222715000Y-22100000D01*
X219077954Y-22100000D01*
X218884147Y-21809946D01*
X218554974Y-21590000D01*
X218884147Y-21370054D01*
X219206054Y-20888285D01*
X219319093Y-20320000D01*
X219206054Y-19751715D01*
X218884147Y-19269946D01*
X218554974Y-19050000D01*
X218884147Y-18830054D01*
X219206054Y-18348285D01*
X219319093Y-17780000D01*
X219206054Y-17211715D01*
X218884147Y-16729946D01*
X218554974Y-16510000D01*
X218884147Y-16290054D01*
X219206054Y-15808285D01*
X219319093Y-15240000D01*
X219206054Y-14671715D01*
X218884147Y-14189946D01*
X218543447Y-13962298D01*
X218686358Y-13895183D01*
X219076645Y-13466924D01*
X219246476Y-13056890D01*
X219125155Y-12827000D01*
X217932000Y-12827000D01*
X217932000Y-12847000D01*
X217678000Y-12847000D01*
X217678000Y-12827000D01*
X216484845Y-12827000D01*
X216363524Y-13056890D01*
X216533355Y-13466924D01*
X216923642Y-13895183D01*
X217066553Y-13962298D01*
X216725853Y-14189946D01*
X216403946Y-14671715D01*
X216290907Y-15240000D01*
X216403946Y-15808285D01*
X216725853Y-16290054D01*
X217055026Y-16510000D01*
X216725853Y-16729946D01*
X216403946Y-17211715D01*
X216290907Y-17780000D01*
X216310770Y-17879859D01*
X216195010Y-17599697D01*
X215802370Y-17206371D01*
X215289100Y-16993243D01*
X214992542Y-16992984D01*
X215263629Y-16722370D01*
X215476757Y-16209100D01*
X215477242Y-15653339D01*
X215265010Y-15139697D01*
X214872370Y-14746371D01*
X214359100Y-14533243D01*
X213803339Y-14532758D01*
X213408414Y-14695937D01*
X213506757Y-14459100D01*
X213507242Y-13903339D01*
X213295010Y-13389697D01*
X212902370Y-12996371D01*
X212389100Y-12783243D01*
X211833339Y-12782758D01*
X211319697Y-12994990D01*
X210947160Y-13366877D01*
X210947242Y-13273339D01*
X210735010Y-12759697D01*
X210342370Y-12366371D01*
X209829100Y-12153243D01*
X209273339Y-12152758D01*
X209240945Y-12166143D01*
X207162401Y-10087599D01*
X206915839Y-9922852D01*
X206625000Y-9865000D01*
X202362334Y-9865000D01*
X202348162Y-9789683D01*
X202209090Y-9573559D01*
X202139289Y-9525866D01*
X202196441Y-9489090D01*
X202341431Y-9276890D01*
X202392440Y-9025000D01*
X202392440Y-8255000D01*
X212490098Y-8255000D01*
X216642045Y-11813812D01*
X216533355Y-11933076D01*
X216363524Y-12343110D01*
X216484845Y-12573000D01*
X217678000Y-12573000D01*
X217678000Y-12553000D01*
X217932000Y-12553000D01*
X217932000Y-12573000D01*
X219125155Y-12573000D01*
X219246476Y-12343110D01*
X219131286Y-12065000D01*
X223520000Y-12065000D01*
X223520000Y-13970000D01*
X223563427Y-14200795D01*
X223699827Y-14412767D01*
X223907949Y-14554971D01*
X224155000Y-14605000D01*
X224962560Y-14605000D01*
X224962560Y-15670000D01*
X225006838Y-15905317D01*
X225145910Y-16121441D01*
X225300000Y-16226726D01*
X225300000Y-16794895D01*
X225158559Y-16885910D01*
X225013569Y-17098110D01*
X224962560Y-17350000D01*
X224962560Y-18550000D01*
X225006838Y-18785317D01*
X225145910Y-19001441D01*
X225215711Y-19049134D01*
X225158559Y-19085910D01*
X225013569Y-19298110D01*
X224994961Y-19390000D01*
X224409780Y-19390000D01*
X224313117Y-19156057D01*
X224050327Y-18892808D01*
X223706799Y-18750162D01*
X223334833Y-18749838D01*
X222991057Y-18891883D01*
X222727808Y-19154673D01*
X222585162Y-19498201D01*
X222584838Y-19870167D01*
X222726883Y-20213943D01*
X222989673Y-20477192D01*
X223333201Y-20619838D01*
X223380077Y-20619879D01*
X223447599Y-20687401D01*
X223694160Y-20852148D01*
X223985000Y-20910000D01*
X224992666Y-20910000D01*
X225006838Y-20985317D01*
X225145910Y-21201441D01*
X225358110Y-21346431D01*
X225610000Y-21397440D01*
X226510000Y-21397440D01*
X226745317Y-21353162D01*
X226961441Y-21214090D01*
X227076000Y-21046427D01*
X227076000Y-25946932D01*
X226974090Y-25788559D01*
X226761890Y-25643569D01*
X226510000Y-25592560D01*
X225610000Y-25592560D01*
X225374683Y-25636838D01*
X225158559Y-25775910D01*
X225013569Y-25988110D01*
X224962560Y-26240000D01*
X224962560Y-27440000D01*
X225006838Y-27675317D01*
X225145910Y-27891441D01*
X225215711Y-27939134D01*
X225158559Y-27975910D01*
X225013569Y-28188110D01*
X224962560Y-28440000D01*
X224962560Y-29605229D01*
X224198312Y-28839646D01*
X222936261Y-28315597D01*
X221569734Y-28314405D01*
X220306771Y-28836250D01*
X219339646Y-29801688D01*
X218815597Y-31063739D01*
X218814405Y-32430266D01*
X219336250Y-33693229D01*
X220301688Y-34660354D01*
X221563739Y-35184403D01*
X222930266Y-35185595D01*
X224193229Y-34663750D01*
X224962560Y-33895761D01*
X224962560Y-34425000D01*
X225006838Y-34660317D01*
X225145910Y-34876441D01*
X225215711Y-34924134D01*
X225158559Y-34960910D01*
X225013569Y-35173110D01*
X224994961Y-35265000D01*
X223083450Y-35265000D01*
X223071799Y-35260162D01*
X222699833Y-35259838D01*
X222356057Y-35401883D01*
X222092808Y-35664673D01*
X221950162Y-36008201D01*
X221949838Y-36380167D01*
X222030754Y-36576000D01*
X213802440Y-36576000D01*
X213802440Y-35745000D01*
X213758162Y-35509683D01*
X213619090Y-35293559D01*
X213406890Y-35148569D01*
X213155000Y-35097560D01*
X211955000Y-35097560D01*
X211719683Y-35141838D01*
X211503559Y-35280910D01*
X211455866Y-35350711D01*
X211419090Y-35293559D01*
X211206890Y-35148569D01*
X210955000Y-35097560D01*
X209755000Y-35097560D01*
X209519683Y-35141838D01*
X209303559Y-35280910D01*
X209198274Y-35435000D01*
X205963105Y-35435000D01*
X205872090Y-35293559D01*
X205659890Y-35148569D01*
X205408000Y-35097560D01*
X204208000Y-35097560D01*
X203972683Y-35141838D01*
X203756559Y-35280910D01*
X203708866Y-35350711D01*
X203672090Y-35293559D01*
X203459890Y-35148569D01*
X203208000Y-35097560D01*
X202008000Y-35097560D01*
X201772683Y-35141838D01*
X201556559Y-35280910D01*
X201451274Y-35435000D01*
X199952463Y-35435000D01*
X199920327Y-35402808D01*
X199576799Y-35260162D01*
X199204833Y-35259838D01*
X198861057Y-35401883D01*
X198597808Y-35664673D01*
X198455162Y-36008201D01*
X198454838Y-36380167D01*
X198535754Y-36576000D01*
X193294000Y-36576000D01*
X193294000Y-36492189D01*
X193339838Y-36381799D01*
X193340162Y-36009833D01*
X193198117Y-35666057D01*
X192935327Y-35402808D01*
X192591799Y-35260162D01*
X192219833Y-35259838D01*
X191876057Y-35401883D01*
X191612808Y-35664673D01*
X191470162Y-36008201D01*
X191469838Y-36380167D01*
X191516000Y-36491888D01*
X191516000Y-36576000D01*
X190942440Y-36576000D01*
X190942440Y-35745000D01*
X190905810Y-35550327D01*
X191037401Y-35462401D01*
X191274680Y-35225122D01*
X191320167Y-35225162D01*
X191663943Y-35083117D01*
X191927192Y-34820327D01*
X192069838Y-34476799D01*
X192070162Y-34104833D01*
X191928117Y-33761057D01*
X191665327Y-33497808D01*
X191365668Y-33373378D01*
X191434838Y-33206799D01*
X191435162Y-32834833D01*
X191293117Y-32491057D01*
X191030327Y-32227808D01*
X190686799Y-32085162D01*
X190314833Y-32084838D01*
X189971057Y-32226883D01*
X189707808Y-32489673D01*
X189565162Y-32833201D01*
X189565121Y-32880077D01*
X189365200Y-33079998D01*
X188587233Y-33079998D01*
X188752192Y-32915327D01*
X188894838Y-32571799D01*
X188895162Y-32199833D01*
X188753117Y-31856057D01*
X188490327Y-31592808D01*
X188226446Y-31483235D01*
X188118117Y-31221057D01*
X187855327Y-30957808D01*
X187511799Y-30815162D01*
X187139833Y-30814838D01*
X186971403Y-30884432D01*
X186848117Y-30586057D01*
X186585327Y-30322808D01*
X186241799Y-30180162D01*
X185869833Y-30179838D01*
X185526057Y-30321883D01*
X185262808Y-30584673D01*
X185120162Y-30928201D01*
X185120121Y-30975077D01*
X185105198Y-30990000D01*
X184464802Y-30990000D01*
X181771692Y-28296890D01*
X216363524Y-28296890D01*
X216533355Y-28706924D01*
X216923642Y-29135183D01*
X217448108Y-29381486D01*
X217678000Y-29260819D01*
X217678000Y-28067000D01*
X217932000Y-28067000D01*
X217932000Y-29260819D01*
X218161892Y-29381486D01*
X218686358Y-29135183D01*
X219076645Y-28706924D01*
X219246476Y-28296890D01*
X219125155Y-28067000D01*
X217932000Y-28067000D01*
X217678000Y-28067000D01*
X216484845Y-28067000D01*
X216363524Y-28296890D01*
X181771692Y-28296890D01*
X179607401Y-26132599D01*
X179360839Y-25967852D01*
X179070000Y-25910000D01*
X121285000Y-25910000D01*
X120994160Y-25967852D01*
X120747599Y-26132599D01*
X116525198Y-30355000D01*
X110417463Y-30355000D01*
X110385327Y-30322808D01*
X110041799Y-30180162D01*
X109669833Y-30179838D01*
X109326057Y-30321883D01*
X109292882Y-30355000D01*
X94294802Y-30355000D01*
X90072401Y-26132599D01*
X89825839Y-25967852D01*
X89535000Y-25910000D01*
X78551240Y-25910000D01*
X78567440Y-25830000D01*
X78567440Y-24630000D01*
X78523162Y-24394683D01*
X78384090Y-24178559D01*
X78314289Y-24130866D01*
X78371441Y-24094090D01*
X78516431Y-23881890D01*
X78567440Y-23630000D01*
X78567440Y-22430000D01*
X78523162Y-22194683D01*
X78384090Y-21978559D01*
X78171890Y-21833569D01*
X77920000Y-21782560D01*
X77649796Y-21782560D01*
X76454000Y-20586764D01*
X76454000Y-20453699D01*
X76670000Y-20497440D01*
X78270000Y-20497440D01*
X78505317Y-20453162D01*
X78721441Y-20314090D01*
X78866431Y-20101890D01*
X78917440Y-19850000D01*
X78917440Y-18250000D01*
X78873162Y-18014683D01*
X78734090Y-17798559D01*
X78521890Y-17653569D01*
X78362384Y-17621268D01*
X78701041Y-17247423D01*
X78861904Y-16859039D01*
X78739915Y-16637000D01*
X77597000Y-16637000D01*
X77597000Y-16657000D01*
X77343000Y-16657000D01*
X77343000Y-16637000D01*
X77323000Y-16637000D01*
X77323000Y-16383000D01*
X77343000Y-16383000D01*
X77343000Y-16363000D01*
X77597000Y-16363000D01*
X77597000Y-16383000D01*
X78739915Y-16383000D01*
X78861904Y-16160961D01*
X78701041Y-15772577D01*
X78325134Y-15357611D01*
X78108297Y-15254986D01*
X78512811Y-14984698D01*
X78823880Y-14519151D01*
X78933113Y-13970000D01*
X78823880Y-13420849D01*
X78512811Y-12955302D01*
X78130725Y-12700000D01*
X78512811Y-12444698D01*
X78823880Y-11979151D01*
X78933113Y-11430000D01*
X78823880Y-10880849D01*
X78512811Y-10415302D01*
X78047264Y-10104233D01*
X77498113Y-9995000D01*
X77441887Y-9995000D01*
X76892736Y-10104233D01*
X76427189Y-10415302D01*
X76116120Y-10880849D01*
X76006887Y-11430000D01*
X76116120Y-11979151D01*
X76427189Y-12444698D01*
X76809275Y-12700000D01*
X76427189Y-12955302D01*
X76343200Y-13081000D01*
X75933236Y-13081000D01*
X72593762Y-9741526D01*
X72548117Y-9631057D01*
X72285327Y-9367808D01*
X71941799Y-9225162D01*
X71569833Y-9224838D01*
X71226057Y-9366883D01*
X70962808Y-9629673D01*
X70820162Y-9973201D01*
X70819838Y-10345167D01*
X70832039Y-10374695D01*
X70427264Y-10104233D01*
X69878113Y-9995000D01*
X69821887Y-9995000D01*
X69272736Y-10104233D01*
X68807189Y-10415302D01*
X68496120Y-10880849D01*
X68386887Y-11430000D01*
X68496120Y-11979151D01*
X68807189Y-12444698D01*
X69189275Y-12700000D01*
X68807189Y-12955302D01*
X68496120Y-13420849D01*
X68386887Y-13970000D01*
X68496120Y-14519151D01*
X68807189Y-14984698D01*
X69189275Y-15240000D01*
X68807189Y-15495302D01*
X68496120Y-15960849D01*
X68386887Y-16510000D01*
X68496120Y-17059151D01*
X68807189Y-17524698D01*
X69189275Y-17780000D01*
X68807189Y-18035302D01*
X68496120Y-18500849D01*
X68386887Y-19050000D01*
X68496120Y-19599151D01*
X68807189Y-20064698D01*
X69272736Y-20375767D01*
X69821887Y-20485000D01*
X69878113Y-20485000D01*
X70427264Y-20375767D01*
X70892811Y-20064698D01*
X70959736Y-19964538D01*
X73132267Y-22137069D01*
X73110000Y-22132560D01*
X72503689Y-22132560D01*
X72340000Y-22100000D01*
X71470105Y-22100000D01*
X71379090Y-21958559D01*
X71166890Y-21813569D01*
X70915000Y-21762560D01*
X69715000Y-21762560D01*
X69479683Y-21806838D01*
X69263559Y-21945910D01*
X69215866Y-22015711D01*
X69179090Y-21958559D01*
X68966890Y-21813569D01*
X68875000Y-21794961D01*
X68875000Y-21760000D01*
X68817148Y-21469161D01*
X68652401Y-21222599D01*
X68070000Y-20640198D01*
X68070000Y-19612463D01*
X68102192Y-19580327D01*
X68244838Y-19236799D01*
X68245162Y-18864833D01*
X68103117Y-18521057D01*
X67840327Y-18257808D01*
X67496799Y-18115162D01*
X67487427Y-18115154D01*
X67554093Y-17780000D01*
X67441054Y-17211715D01*
X67119147Y-16729946D01*
X66789974Y-16510000D01*
X67119147Y-16290054D01*
X67441054Y-15808285D01*
X67554093Y-15240000D01*
X67441054Y-14671715D01*
X67119147Y-14189946D01*
X66789974Y-13970000D01*
X67119147Y-13750054D01*
X67441054Y-13268285D01*
X67554093Y-12700000D01*
X67441054Y-12131715D01*
X67119147Y-11649946D01*
X66789974Y-11430000D01*
X67119147Y-11210054D01*
X67441054Y-10728285D01*
X67554093Y-10160000D01*
X67441054Y-9591715D01*
X67119147Y-9109946D01*
X66789974Y-8890000D01*
X67044397Y-8720000D01*
X74805000Y-8720000D01*
X74862852Y-9010839D01*
X75027599Y-9257401D01*
X75274161Y-9422148D01*
X75565000Y-9480000D01*
X75855839Y-9422148D01*
X76102401Y-9257401D01*
X76567401Y-8792401D01*
X76732148Y-8545840D01*
X76790000Y-8255000D01*
X76732148Y-7964161D01*
X76567401Y-7717599D01*
X76320839Y-7552852D01*
X76030000Y-7495000D01*
X75739160Y-7552852D01*
X75492599Y-7717599D01*
X75027599Y-8182599D01*
X74862852Y-8429161D01*
X74805000Y-8720000D01*
X67044397Y-8720000D01*
X67119147Y-8670054D01*
X67441054Y-8188285D01*
X67554093Y-7620000D01*
X67441054Y-7051715D01*
X67119147Y-6569946D01*
X66637378Y-6248039D01*
X66069093Y-6135000D01*
X66010907Y-6135000D01*
X65442622Y-6248039D01*
X64960853Y-6569946D01*
X64638946Y-7051715D01*
X64525907Y-7620000D01*
X64638946Y-8188285D01*
X64960853Y-8670054D01*
X65290026Y-8890000D01*
X64960853Y-9109946D01*
X64767046Y-9400000D01*
X61274802Y-9400000D01*
X60227401Y-8352599D01*
X59980839Y-8187852D01*
X59690000Y-8130000D01*
X54610000Y-8130000D01*
X54319161Y-8187852D01*
X54072599Y-8352599D01*
X47310198Y-15115000D01*
X36830000Y-15115000D01*
X36587414Y-15163254D01*
X36539160Y-15172852D01*
X36292599Y-15337599D01*
X33752599Y-17877599D01*
X33587852Y-18124161D01*
X33530000Y-18415000D01*
X33530000Y-19592560D01*
X32935000Y-19592560D01*
X32699683Y-19636838D01*
X32483559Y-19775910D01*
X32338569Y-19988110D01*
X32287560Y-20240000D01*
X32287560Y-20730681D01*
X32086890Y-20593569D01*
X31835000Y-20542560D01*
X30935000Y-20542560D01*
X30699683Y-20586838D01*
X30483559Y-20725910D01*
X30338569Y-20938110D01*
X30287560Y-21190000D01*
X30287560Y-21990000D01*
X30331838Y-22225317D01*
X30470910Y-22441441D01*
X30625000Y-22546726D01*
X30625000Y-23765000D01*
X30682852Y-24055839D01*
X30847599Y-24302401D01*
X31185198Y-24640000D01*
X31115000Y-24640000D01*
X30824161Y-24697852D01*
X30577599Y-24862599D01*
X28672599Y-26767599D01*
X28587455Y-26895027D01*
X28524683Y-26906838D01*
X28308559Y-27045910D01*
X28163569Y-27258110D01*
X28112560Y-27510000D01*
X28112560Y-28710000D01*
X28156838Y-28945317D01*
X28295910Y-29161441D01*
X28365711Y-29209134D01*
X28308559Y-29245910D01*
X28163569Y-29458110D01*
X28112560Y-29710000D01*
X28112560Y-30910000D01*
X28156838Y-31145317D01*
X28295910Y-31361441D01*
X28508110Y-31506431D01*
X28760000Y-31557440D01*
X29660000Y-31557440D01*
X29895317Y-31513162D01*
X30111441Y-31374090D01*
X30113638Y-31370874D01*
X32596000Y-33853236D01*
X32596000Y-35176382D01*
X32433559Y-35280910D01*
X32385866Y-35350711D01*
X32349090Y-35293559D01*
X32136890Y-35148569D01*
X31885000Y-35097560D01*
X30685000Y-35097560D01*
X30449683Y-35141838D01*
X30233559Y-35280910D01*
X30128274Y-35435000D01*
X27147105Y-35435000D01*
X27056090Y-35293559D01*
X26843890Y-35148569D01*
X26592000Y-35097560D01*
X25392000Y-35097560D01*
X25156683Y-35141838D01*
X24940559Y-35280910D01*
X24892866Y-35350711D01*
X24856090Y-35293559D01*
X24643890Y-35148569D01*
X24392000Y-35097560D01*
X23192000Y-35097560D01*
X22956683Y-35141838D01*
X22740559Y-35280910D01*
X22635274Y-35435000D01*
X21517463Y-35435000D01*
X21485327Y-35402808D01*
X21141799Y-35260162D01*
X20769833Y-35259838D01*
X20426057Y-35401883D01*
X20162808Y-35664673D01*
X20020162Y-36008201D01*
X20019838Y-36380167D01*
X20100754Y-36576000D01*
X9577049Y-36576000D01*
X9597401Y-36562401D01*
X14744680Y-31415122D01*
X14790167Y-31415162D01*
X15133943Y-31273117D01*
X15397192Y-31010327D01*
X15539838Y-30666799D01*
X15540162Y-30294833D01*
X15398117Y-29951057D01*
X15135327Y-29687808D01*
X14791799Y-29545162D01*
X14419833Y-29544838D01*
X14076057Y-29686883D01*
X13812808Y-29949673D01*
X13670162Y-30293201D01*
X13670121Y-30340077D01*
X8745198Y-35265000D01*
X3607334Y-35265000D01*
X3593162Y-35189683D01*
X3454090Y-34973559D01*
X3384289Y-34925866D01*
X3441441Y-34889090D01*
X3586431Y-34676890D01*
X3637440Y-34425000D01*
X3637440Y-33894771D01*
X4401688Y-34660354D01*
X5663739Y-35184403D01*
X7030266Y-35185595D01*
X8293229Y-34663750D01*
X9260354Y-33698312D01*
X9784403Y-32436261D01*
X9785595Y-31069734D01*
X9263750Y-29806771D01*
X8298312Y-28839646D01*
X7036261Y-28315597D01*
X5669734Y-28314405D01*
X4406771Y-28836250D01*
X3637440Y-29604239D01*
X3637440Y-28440000D01*
X3593162Y-28204683D01*
X3454090Y-27988559D01*
X3384289Y-27940866D01*
X3441441Y-27904090D01*
X3586431Y-27691890D01*
X3637440Y-27440000D01*
X3637440Y-26240000D01*
X3593162Y-26004683D01*
X3454090Y-25788559D01*
X3241890Y-25643569D01*
X2990000Y-25592560D01*
X2090000Y-25592560D01*
X1854683Y-25636838D01*
X1638559Y-25775910D01*
X1524000Y-25943573D01*
X1524000Y-21043068D01*
X1625910Y-21201441D01*
X1780000Y-21306726D01*
X1780000Y-21662537D01*
X1747808Y-21694673D01*
X1605162Y-22038201D01*
X1604838Y-22410167D01*
X1746883Y-22753943D01*
X2009673Y-23017192D01*
X2353201Y-23159838D01*
X2725167Y-23160162D01*
X3068943Y-23018117D01*
X3332192Y-22755327D01*
X3474838Y-22411799D01*
X3475162Y-22039833D01*
X3333117Y-21696057D01*
X3300000Y-21662882D01*
X3300000Y-21305105D01*
X3441441Y-21214090D01*
X3586431Y-21001890D01*
X3637440Y-20750000D01*
X3637440Y-19550000D01*
X3593162Y-19314683D01*
X3454090Y-19098559D01*
X3384289Y-19050866D01*
X3441441Y-19014090D01*
X3586431Y-18801890D01*
X3637440Y-18550000D01*
X3637440Y-17350000D01*
X3593162Y-17114683D01*
X3454090Y-16898559D01*
X3300000Y-16793274D01*
X3300000Y-14320105D01*
X3441441Y-14229090D01*
X3586431Y-14016890D01*
X3637440Y-13765000D01*
X3637440Y-13753223D01*
X5443035Y-13753223D01*
X5470222Y-14323454D01*
X5636136Y-14724005D01*
X5882255Y-14798139D01*
X6710395Y-13970000D01*
X5882255Y-13141861D01*
X5636136Y-13215995D01*
X5443035Y-13753223D01*
X3637440Y-13753223D01*
X3637440Y-12565000D01*
X3593162Y-12329683D01*
X3454090Y-12113559D01*
X3384289Y-12065866D01*
X3441441Y-12029090D01*
X3586431Y-11816890D01*
X3637440Y-11565000D01*
X3637440Y-10365000D01*
X3593162Y-10129683D01*
X3454090Y-9913559D01*
X3241890Y-9768569D01*
X2990000Y-9717560D01*
X2090000Y-9717560D01*
X1854683Y-9761838D01*
X1638559Y-9900910D01*
X1524000Y-10068573D01*
X1524000Y-5168068D01*
X1625910Y-5326441D01*
X1780000Y-5431726D01*
X1780000Y-7620000D01*
X1837852Y-7910839D01*
X2002599Y-8157401D01*
X4542599Y-10697401D01*
X4789160Y-10862148D01*
X4837414Y-10871746D01*
X5080000Y-10920000D01*
X9525000Y-10920000D01*
X9815839Y-10862148D01*
X10062401Y-10697401D01*
X12839680Y-7920122D01*
X12885167Y-7920162D01*
X13081000Y-7839246D01*
X13081000Y-8521764D01*
X9080204Y-12522560D01*
X8090000Y-12522560D01*
X7854683Y-12566838D01*
X7638559Y-12705910D01*
X7634023Y-12712548D01*
X7106777Y-12523035D01*
X6536546Y-12550222D01*
X6135995Y-12716136D01*
X6061861Y-12962255D01*
X6890000Y-13790395D01*
X6904142Y-13776252D01*
X7083748Y-13955858D01*
X7069605Y-13970000D01*
X7083748Y-13984143D01*
X6904142Y-14163748D01*
X6890000Y-14149605D01*
X6061861Y-14977745D01*
X6135995Y-15223864D01*
X6673223Y-15416965D01*
X7243454Y-15389778D01*
X7634947Y-15227616D01*
X7838110Y-15366431D01*
X8090000Y-15417440D01*
X9690000Y-15417440D01*
X9925317Y-15373162D01*
X10141441Y-15234090D01*
X10286431Y-15021890D01*
X10337440Y-14770000D01*
X10337440Y-13779796D01*
X14598618Y-9518618D01*
X14626800Y-9476441D01*
X14791329Y-9230206D01*
X14859000Y-8890000D01*
X14859000Y-5547745D01*
X36636861Y-5547745D01*
X36710995Y-5793864D01*
X37248223Y-5986965D01*
X37818454Y-5959778D01*
X38219005Y-5793864D01*
X38293139Y-5547745D01*
X37465000Y-4719605D01*
X36636861Y-5547745D01*
X14859000Y-5547745D01*
X14859000Y-4184797D01*
X15137433Y-3998754D01*
X15254054Y-3824219D01*
X15432370Y-4051236D01*
X15995523Y-4367926D01*
X16127056Y-4399975D01*
X16383000Y-4280836D01*
X16383000Y-2667000D01*
X16363000Y-2667000D01*
X16363000Y-2413000D01*
X16383000Y-2413000D01*
X16383000Y-2393000D01*
X16637000Y-2393000D01*
X16637000Y-2413000D01*
X16657000Y-2413000D01*
X16657000Y-2667000D01*
X16637000Y-2667000D01*
X16637000Y-4280836D01*
X16892944Y-4399975D01*
X17024477Y-4367926D01*
X17587630Y-4051236D01*
X17765946Y-3824219D01*
X17882567Y-3998754D01*
X18418190Y-4356646D01*
X19050000Y-4482321D01*
X19621422Y-4368658D01*
X19691382Y-4438618D01*
X19979794Y-4631329D01*
X20320000Y-4699000D01*
X33655000Y-4699000D01*
X33995206Y-4631329D01*
X34283618Y-4438618D01*
X35293236Y-3429000D01*
X36034307Y-3429000D01*
X36061838Y-3575317D01*
X36200910Y-3791441D01*
X36207548Y-3795977D01*
X36018035Y-4323223D01*
X36045222Y-4893454D01*
X36211136Y-5294005D01*
X36457255Y-5368139D01*
X37285395Y-4540000D01*
X37271252Y-4525858D01*
X37450858Y-4346253D01*
X37465000Y-4360395D01*
X37479143Y-4346253D01*
X37658748Y-4525858D01*
X37644605Y-4540000D01*
X38472745Y-5368139D01*
X38718864Y-5294005D01*
X38911965Y-4756777D01*
X38884778Y-4186546D01*
X38722616Y-3795053D01*
X38861431Y-3591890D01*
X38894417Y-3429000D01*
X40659951Y-3429000D01*
X40681838Y-3545317D01*
X40820910Y-3761441D01*
X40889006Y-3807969D01*
X40746673Y-3950302D01*
X40650000Y-4183691D01*
X40650000Y-4774250D01*
X40808750Y-4933000D01*
X41783000Y-4933000D01*
X41783000Y-4913000D01*
X42037000Y-4913000D01*
X42037000Y-4933000D01*
X43011250Y-4933000D01*
X43170000Y-4774250D01*
X43170000Y-4422236D01*
X43186382Y-4438618D01*
X43474794Y-4631329D01*
X43815000Y-4699000D01*
X46278012Y-4699000D01*
X46088559Y-4820910D01*
X45943569Y-5033110D01*
X45930509Y-5097600D01*
X44280000Y-5097600D01*
X43978675Y-5157537D01*
X43723224Y-5328224D01*
X43170000Y-5881448D01*
X43170000Y-5345750D01*
X43011250Y-5187000D01*
X42037000Y-5187000D01*
X42037000Y-5207000D01*
X41783000Y-5207000D01*
X41783000Y-5187000D01*
X40808750Y-5187000D01*
X40650000Y-5345750D01*
X40650000Y-5936309D01*
X40746673Y-6169698D01*
X40925301Y-6348327D01*
X40971830Y-6367600D01*
X20112178Y-6367600D01*
X20103162Y-6319683D01*
X19964090Y-6103559D01*
X19751890Y-5958569D01*
X19500000Y-5907560D01*
X18600000Y-5907560D01*
X18364683Y-5951838D01*
X18148559Y-6090910D01*
X18003569Y-6303110D01*
X17952560Y-6555000D01*
X17952560Y-7755000D01*
X17996838Y-7990317D01*
X18135910Y-8206441D01*
X18205711Y-8254134D01*
X18148559Y-8290910D01*
X18003569Y-8503110D01*
X17952560Y-8755000D01*
X17952560Y-9955000D01*
X17996838Y-10190317D01*
X18135910Y-10406441D01*
X18290000Y-10511726D01*
X18290000Y-12352469D01*
X18259697Y-12364990D01*
X17866371Y-12757630D01*
X17653243Y-13270900D01*
X17653158Y-13367807D01*
X17282370Y-12996371D01*
X16769100Y-12783243D01*
X16213339Y-12782758D01*
X15699697Y-12994990D01*
X15306371Y-13387630D01*
X15093243Y-13900900D01*
X15092758Y-14456661D01*
X15191772Y-14696295D01*
X14799100Y-14533243D01*
X14243339Y-14532758D01*
X13729697Y-14744990D01*
X13336371Y-15137630D01*
X13123243Y-15650900D01*
X13122758Y-16206661D01*
X13334990Y-16720303D01*
X13607226Y-16993014D01*
X13313339Y-16992758D01*
X12799697Y-17204990D01*
X12406371Y-17597630D01*
X12193243Y-18110900D01*
X12192758Y-18666661D01*
X12404990Y-19180303D01*
X12797630Y-19573629D01*
X13249615Y-19761309D01*
X13119697Y-19814990D01*
X12726371Y-20207630D01*
X12513243Y-20720900D01*
X12512758Y-21276661D01*
X12724990Y-21790303D01*
X13117630Y-22183629D01*
X13630900Y-22396757D01*
X14186661Y-22397242D01*
X14212694Y-22386485D01*
X14003243Y-22890900D01*
X14002758Y-23446661D01*
X14214990Y-23960303D01*
X14607630Y-24353629D01*
X15120900Y-24566757D01*
X15676661Y-24567242D01*
X16190303Y-24355010D01*
X16333154Y-24212408D01*
X16332758Y-24666661D01*
X16544990Y-25180303D01*
X16937630Y-25573629D01*
X17450900Y-25786757D01*
X18006661Y-25787242D01*
X18520303Y-25575010D01*
X18913629Y-25182370D01*
X19050073Y-24853777D01*
X19184990Y-25180303D01*
X19577630Y-25573629D01*
X20090900Y-25786757D01*
X20646661Y-25787242D01*
X21160303Y-25575010D01*
X21553629Y-25182370D01*
X21766757Y-24669100D01*
X21767155Y-24212909D01*
X21907630Y-24353629D01*
X22420900Y-24566757D01*
X22976661Y-24567242D01*
X23490303Y-24355010D01*
X23883629Y-23962370D01*
X24096757Y-23449100D01*
X24097242Y-22893339D01*
X23888157Y-22387313D01*
X23910900Y-22396757D01*
X24466661Y-22397242D01*
X24980303Y-22185010D01*
X25373629Y-21792370D01*
X25586757Y-21279100D01*
X25587242Y-20723339D01*
X25375010Y-20209697D01*
X24982370Y-19816371D01*
X24849595Y-19761238D01*
X25300303Y-19575010D01*
X25693629Y-19182370D01*
X25906757Y-18669100D01*
X25907242Y-18113339D01*
X25695010Y-17599697D01*
X25302370Y-17206371D01*
X24789100Y-16993243D01*
X24492542Y-16992984D01*
X24763629Y-16722370D01*
X24976757Y-16209100D01*
X24977242Y-15653339D01*
X24765010Y-15139697D01*
X24372370Y-14746371D01*
X23859100Y-14533243D01*
X23303339Y-14532758D01*
X22908414Y-14695937D01*
X23006757Y-14459100D01*
X23007242Y-13903339D01*
X22795010Y-13389697D01*
X22402370Y-12996371D01*
X21889100Y-12783243D01*
X21333339Y-12782758D01*
X20819697Y-12994990D01*
X20447160Y-13366877D01*
X20447242Y-13273339D01*
X20235010Y-12759697D01*
X19842370Y-12366371D01*
X19810000Y-12352930D01*
X19810000Y-10510105D01*
X19951441Y-10419090D01*
X20096431Y-10206890D01*
X20147440Y-9955000D01*
X20147440Y-8755000D01*
X20103162Y-8519683D01*
X19964090Y-8303559D01*
X19894289Y-8255866D01*
X19951441Y-8219090D01*
X20096431Y-8006890D01*
X20109491Y-7942400D01*
X43010000Y-7942400D01*
X43311325Y-7882463D01*
X43566776Y-7711776D01*
X44606152Y-6672400D01*
X45927822Y-6672400D01*
X45936838Y-6720317D01*
X46075910Y-6936441D01*
X46145711Y-6984134D01*
X46088559Y-7020910D01*
X45943569Y-7233110D01*
X45892560Y-7485000D01*
X45892560Y-8685000D01*
X45936838Y-8920317D01*
X46075910Y-9136441D01*
X46230000Y-9241726D01*
X46230000Y-10867537D01*
X46197808Y-10899673D01*
X46055162Y-11243201D01*
X46054838Y-11615167D01*
X46196883Y-11958943D01*
X46459673Y-12222192D01*
X46803201Y-12364838D01*
X47175167Y-12365162D01*
X47518943Y-12223117D01*
X47782192Y-11960327D01*
X47924838Y-11616799D01*
X47925162Y-11244833D01*
X47783117Y-10901057D01*
X47750000Y-10867882D01*
X47750000Y-9240105D01*
X47891441Y-9149090D01*
X48036431Y-8936890D01*
X48087440Y-8685000D01*
X48087440Y-7485000D01*
X48043162Y-7249683D01*
X47904090Y-7033559D01*
X47834289Y-6985866D01*
X47891441Y-6949090D01*
X48036431Y-6736890D01*
X48087440Y-6485000D01*
X48087440Y-5867400D01*
X60424889Y-5867400D01*
X60429673Y-5872192D01*
X60773201Y-6014838D01*
X61145167Y-6015162D01*
X61488943Y-5873117D01*
X61752192Y-5610327D01*
X61894838Y-5266799D01*
X61895162Y-4894833D01*
X61822509Y-4719000D01*
X62845000Y-4719000D01*
X63185206Y-4651329D01*
X63473618Y-4458618D01*
X64503236Y-3429000D01*
X64853240Y-3429000D01*
X64960853Y-3590054D01*
X65442622Y-3911961D01*
X66010907Y-4025000D01*
X66069093Y-4025000D01*
X66637378Y-3911961D01*
X67119147Y-3590054D01*
X67441054Y-3108285D01*
X67492817Y-2848057D01*
X67644110Y-2951431D01*
X67736000Y-2970039D01*
X67736000Y-3091000D01*
X67793852Y-3381839D01*
X67958599Y-3628401D01*
X71217599Y-6887401D01*
X71464161Y-7052148D01*
X71755000Y-7110000D01*
X77155198Y-7110000D01*
X77169878Y-7124680D01*
X77169838Y-7170167D01*
X77311883Y-7513943D01*
X77574673Y-7777192D01*
X77918201Y-7919838D01*
X78290167Y-7920162D01*
X78633943Y-7778117D01*
X78897192Y-7515327D01*
X79039838Y-7171799D01*
X79040162Y-6799833D01*
X78898117Y-6456057D01*
X78635327Y-6192808D01*
X78465761Y-6122398D01*
X78486441Y-6109090D01*
X78631431Y-5896890D01*
X78682440Y-5645000D01*
X78682440Y-5080000D01*
X79765907Y-5080000D01*
X79878946Y-5648285D01*
X80200853Y-6130054D01*
X80530026Y-6350000D01*
X80200853Y-6569946D01*
X79878946Y-7051715D01*
X79765907Y-7620000D01*
X79878946Y-8188285D01*
X80200853Y-8670054D01*
X80530026Y-8890000D01*
X80200853Y-9109946D01*
X79878946Y-9591715D01*
X79765907Y-10160000D01*
X79878946Y-10728285D01*
X80200853Y-11210054D01*
X80530026Y-11430000D01*
X80200853Y-11649946D01*
X79878946Y-12131715D01*
X79765907Y-12700000D01*
X79878946Y-13268285D01*
X80200853Y-13750054D01*
X80530026Y-13970000D01*
X80200853Y-14189946D01*
X79878946Y-14671715D01*
X79765907Y-15240000D01*
X79878946Y-15808285D01*
X80200853Y-16290054D01*
X80682622Y-16611961D01*
X81250907Y-16725000D01*
X81309093Y-16725000D01*
X81877378Y-16611961D01*
X82359147Y-16290054D01*
X82681054Y-15808285D01*
X82794093Y-15240000D01*
X82681054Y-14671715D01*
X82359147Y-14189946D01*
X82029974Y-13970000D01*
X82359147Y-13750054D01*
X82681054Y-13268285D01*
X82794093Y-12700000D01*
X82681054Y-12131715D01*
X82359147Y-11649946D01*
X82029974Y-11430000D01*
X82359147Y-11210054D01*
X82681054Y-10728285D01*
X82794093Y-10160000D01*
X82681054Y-9591715D01*
X82359147Y-9109946D01*
X82029974Y-8890000D01*
X82359147Y-8670054D01*
X82681054Y-8188285D01*
X82745498Y-7864304D01*
X84769802Y-5840000D01*
X87065198Y-5840000D01*
X84950320Y-7954878D01*
X84904833Y-7954838D01*
X84561057Y-8096883D01*
X84297808Y-8359673D01*
X84155162Y-8703201D01*
X84154838Y-9075167D01*
X84296883Y-9418943D01*
X84559673Y-9682192D01*
X84903201Y-9824838D01*
X85275167Y-9825162D01*
X85618943Y-9683117D01*
X85882192Y-9420327D01*
X86024838Y-9076799D01*
X86024879Y-9029923D01*
X88404680Y-6650122D01*
X88450167Y-6650162D01*
X88793943Y-6508117D01*
X89057192Y-6245327D01*
X89199838Y-5901799D01*
X89199892Y-5840000D01*
X123262537Y-5840000D01*
X123294673Y-5872192D01*
X123638201Y-6014838D01*
X124010167Y-6015162D01*
X124253708Y-5914533D01*
X149889138Y-5914533D01*
X151765000Y-7790395D01*
X153640862Y-5914533D01*
X153389625Y-5517831D01*
X152327554Y-5082773D01*
X151179838Y-5087270D01*
X150140375Y-5517831D01*
X149889138Y-5914533D01*
X124253708Y-5914533D01*
X124353943Y-5873117D01*
X124617192Y-5610327D01*
X124759838Y-5266799D01*
X124760162Y-4894833D01*
X124654690Y-4639570D01*
X124908201Y-4744838D01*
X125280167Y-4745162D01*
X125623943Y-4603117D01*
X125887192Y-4340327D01*
X126029838Y-3996799D01*
X126030162Y-3624833D01*
X125888117Y-3281057D01*
X125625327Y-3017808D01*
X125281799Y-2875162D01*
X124909833Y-2874838D01*
X124566057Y-3016883D01*
X124532882Y-3050000D01*
X83185000Y-3050000D01*
X82894160Y-3107852D01*
X82765000Y-3194154D01*
X82765000Y-2825750D01*
X82606250Y-2667000D01*
X81407000Y-2667000D01*
X81407000Y-2687000D01*
X81153000Y-2687000D01*
X81153000Y-2667000D01*
X79953750Y-2667000D01*
X79795000Y-2825750D01*
X79795000Y-3516310D01*
X79891673Y-3749699D01*
X80070302Y-3928327D01*
X80244777Y-4000597D01*
X80200853Y-4029946D01*
X79878946Y-4511715D01*
X79765907Y-5080000D01*
X78682440Y-5080000D01*
X78682440Y-3245000D01*
X78638162Y-3009683D01*
X78499090Y-2793559D01*
X78286890Y-2648569D01*
X78035000Y-2597560D01*
X76593320Y-2597560D01*
X76642440Y-2355000D01*
X76642440Y-1524000D01*
X79811440Y-1524000D01*
X79795000Y-1563690D01*
G36*
X130059722Y-30132637D02*
X129968640Y-30351988D01*
X129939160Y-30357852D01*
X129692599Y-30522599D01*
X127495320Y-32719878D01*
X127449833Y-32719838D01*
X127106057Y-32861883D01*
X126842808Y-33124673D01*
X126700162Y-33468201D01*
X126699838Y-33840167D01*
X126841883Y-34183943D01*
X127104673Y-34447192D01*
X127448201Y-34589838D01*
X127820167Y-34590162D01*
X128163943Y-34448117D01*
X128427192Y-34185327D01*
X128569838Y-33841799D01*
X128569879Y-33794923D01*
X130218842Y-32145960D01*
X130517637Y-32445278D01*
X131118352Y-32694716D01*
X131768795Y-32695284D01*
X132369943Y-32446894D01*
X132830278Y-31987363D01*
X133079716Y-31386648D01*
X133080284Y-30736205D01*
X132831894Y-30135057D01*
X132667125Y-29970000D01*
X145947644Y-29970000D01*
X145784722Y-30132637D01*
X145535284Y-30733352D01*
X145534716Y-31383795D01*
X145783106Y-31984943D01*
X146242637Y-32445278D01*
X146843352Y-32694716D01*
X147493795Y-32695284D01*
X148094943Y-32446894D01*
X148555278Y-31987363D01*
X148804716Y-31386648D01*
X148805284Y-30736205D01*
X148556894Y-30135057D01*
X148392125Y-29970000D01*
X152447644Y-29970000D01*
X152284722Y-30132637D01*
X152035284Y-30733352D01*
X152034716Y-31383795D01*
X152283106Y-31984943D01*
X152742637Y-32445278D01*
X153343352Y-32694716D01*
X153993795Y-32695284D01*
X154594943Y-32446894D01*
X155055278Y-31987363D01*
X155304716Y-31386648D01*
X155305284Y-30736205D01*
X155056894Y-30135057D01*
X154892125Y-29970000D01*
X168172644Y-29970000D01*
X168009722Y-30132637D01*
X167760284Y-30733352D01*
X167759716Y-31383795D01*
X168008106Y-31984943D01*
X168467637Y-32445278D01*
X169068352Y-32694716D01*
X169718795Y-32695284D01*
X170319943Y-32446894D01*
X170780278Y-31987363D01*
X171029716Y-31386648D01*
X171030284Y-30736205D01*
X170781894Y-30135057D01*
X170617125Y-29970000D01*
X174672644Y-29970000D01*
X174509722Y-30132637D01*
X174260284Y-30733352D01*
X174259716Y-31383795D01*
X174508106Y-31984943D01*
X174967637Y-32445278D01*
X175568352Y-32694716D01*
X176218795Y-32695284D01*
X176819943Y-32446894D01*
X177280278Y-31987363D01*
X177529716Y-31386648D01*
X177529805Y-31284607D01*
X181478517Y-35233319D01*
X181404559Y-35280910D01*
X181356866Y-35350711D01*
X181320090Y-35293559D01*
X181107890Y-35148569D01*
X180856000Y-35097560D01*
X180317362Y-35097560D01*
X180005122Y-34785320D01*
X180005162Y-34739833D01*
X179863117Y-34396057D01*
X179600327Y-34132808D01*
X179256799Y-33990162D01*
X178884833Y-33989838D01*
X178541057Y-34131883D01*
X178277808Y-34394673D01*
X178135162Y-34738201D01*
X178134838Y-35110167D01*
X178276883Y-35453943D01*
X178539673Y-35717192D01*
X178883201Y-35859838D01*
X178930077Y-35859879D01*
X179008560Y-35938362D01*
X179008560Y-36576000D01*
X177090608Y-36576000D01*
X177047534Y-36532926D01*
X177314387Y-36434264D01*
X177540908Y-35824539D01*
X177516856Y-35174540D01*
X177314387Y-34685736D01*
X177047532Y-34587073D01*
X176074605Y-35560000D01*
X176088748Y-35574143D01*
X175909143Y-35753748D01*
X175895000Y-35739605D01*
X175880858Y-35753748D01*
X175701253Y-35574143D01*
X175715395Y-35560000D01*
X174742468Y-34587073D01*
X174475613Y-34685736D01*
X174249092Y-35295461D01*
X174273144Y-35945460D01*
X174475613Y-36434264D01*
X174742466Y-36532926D01*
X174699392Y-36576000D01*
X170590608Y-36576000D01*
X170547534Y-36532926D01*
X170814387Y-36434264D01*
X171040908Y-35824539D01*
X171016856Y-35174540D01*
X170814387Y-34685736D01*
X170547532Y-34587073D01*
X169574605Y-35560000D01*
X169588748Y-35574143D01*
X169409143Y-35753748D01*
X169395000Y-35739605D01*
X169380858Y-35753748D01*
X169201253Y-35574143D01*
X169215395Y-35560000D01*
X168242468Y-34587073D01*
X167975613Y-34685736D01*
X167749092Y-35295461D01*
X167773144Y-35945460D01*
X167975613Y-36434264D01*
X168242466Y-36532926D01*
X168199392Y-36576000D01*
X166812440Y-36576000D01*
X166812440Y-35745000D01*
X166768162Y-35509683D01*
X166629090Y-35293559D01*
X166416890Y-35148569D01*
X166165000Y-35097560D01*
X164965000Y-35097560D01*
X164729683Y-35141838D01*
X164513559Y-35280910D01*
X164465866Y-35350711D01*
X164429090Y-35293559D01*
X164216890Y-35148569D01*
X163965000Y-35097560D01*
X162765000Y-35097560D01*
X162529683Y-35141838D01*
X162313559Y-35280910D01*
X162208274Y-35435000D01*
X161259105Y-35435000D01*
X161168090Y-35293559D01*
X160955890Y-35148569D01*
X160704000Y-35097560D01*
X159504000Y-35097560D01*
X159268683Y-35141838D01*
X159052559Y-35280910D01*
X159004866Y-35350711D01*
X158968090Y-35293559D01*
X158755890Y-35148569D01*
X158504000Y-35097560D01*
X157304000Y-35097560D01*
X157068683Y-35141838D01*
X156970000Y-35205339D01*
X156970000Y-34852463D01*
X157002192Y-34820327D01*
X157144838Y-34476799D01*
X157144898Y-34407468D01*
X168422073Y-34407468D01*
X169395000Y-35380395D01*
X170367927Y-34407468D01*
X174922073Y-34407468D01*
X175895000Y-35380395D01*
X176867927Y-34407468D01*
X176769264Y-34140613D01*
X176159539Y-33914092D01*
X175509540Y-33938144D01*
X175020736Y-34140613D01*
X174922073Y-34407468D01*
X170367927Y-34407468D01*
X170269264Y-34140613D01*
X169659539Y-33914092D01*
X169009540Y-33938144D01*
X168520736Y-34140613D01*
X168422073Y-34407468D01*
X157144898Y-34407468D01*
X157145162Y-34104833D01*
X157003117Y-33761057D01*
X156740327Y-33497808D01*
X156396799Y-33355162D01*
X156024833Y-33354838D01*
X155681057Y-33496883D01*
X155417808Y-33759673D01*
X155275162Y-34103201D01*
X155274838Y-34475167D01*
X155416883Y-34818943D01*
X155450000Y-34852118D01*
X155450000Y-35560000D01*
X155507852Y-35850839D01*
X155672599Y-36097401D01*
X156151198Y-36576000D01*
X154865608Y-36576000D01*
X154822534Y-36532926D01*
X155089387Y-36434264D01*
X155315908Y-35824539D01*
X155291856Y-35174540D01*
X155089387Y-34685736D01*
X154822532Y-34587073D01*
X153849605Y-35560000D01*
X153863748Y-35574143D01*
X153684143Y-35753748D01*
X153670000Y-35739605D01*
X153655858Y-35753748D01*
X153476253Y-35574143D01*
X153490395Y-35560000D01*
X152517468Y-34587073D01*
X152250613Y-34685736D01*
X152024092Y-35295461D01*
X152048144Y-35945460D01*
X152250613Y-36434264D01*
X152517466Y-36532926D01*
X152474392Y-36576000D01*
X148365608Y-36576000D01*
X148322534Y-36532926D01*
X148589387Y-36434264D01*
X148815908Y-35824539D01*
X148791856Y-35174540D01*
X148589387Y-34685736D01*
X148322532Y-34587073D01*
X147349605Y-35560000D01*
X147363748Y-35574143D01*
X147184143Y-35753748D01*
X147170000Y-35739605D01*
X147155858Y-35753748D01*
X146976253Y-35574143D01*
X146990395Y-35560000D01*
X146017468Y-34587073D01*
X145750613Y-34685736D01*
X145524092Y-35295461D01*
X145548144Y-35945460D01*
X145750613Y-36434264D01*
X146017466Y-36532926D01*
X145974392Y-36576000D01*
X145222440Y-36576000D01*
X145222440Y-35745000D01*
X145178162Y-35509683D01*
X145039090Y-35293559D01*
X144826890Y-35148569D01*
X144575000Y-35097560D01*
X143375000Y-35097560D01*
X143139683Y-35141838D01*
X142923559Y-35280910D01*
X142875866Y-35350711D01*
X142839090Y-35293559D01*
X142626890Y-35148569D01*
X142375000Y-35097560D01*
X141175000Y-35097560D01*
X140939683Y-35141838D01*
X140723559Y-35280910D01*
X140618274Y-35435000D01*
X138907105Y-35435000D01*
X138816090Y-35293559D01*
X138603890Y-35148569D01*
X138352000Y-35097560D01*
X137152000Y-35097560D01*
X136916683Y-35141838D01*
X136700559Y-35280910D01*
X136652866Y-35350711D01*
X136616090Y-35293559D01*
X136403890Y-35148569D01*
X136152000Y-35097560D01*
X134952000Y-35097560D01*
X134716683Y-35141838D01*
X134671022Y-35171220D01*
X134285122Y-34785320D01*
X134285162Y-34739833D01*
X134147832Y-34407468D01*
X146197073Y-34407468D01*
X147170000Y-35380395D01*
X148142927Y-34407468D01*
X152697073Y-34407468D01*
X153670000Y-35380395D01*
X154642927Y-34407468D01*
X154544264Y-34140613D01*
X153934539Y-33914092D01*
X153284540Y-33938144D01*
X152795736Y-34140613D01*
X152697073Y-34407468D01*
X148142927Y-34407468D01*
X148044264Y-34140613D01*
X147434539Y-33914092D01*
X146784540Y-33938144D01*
X146295736Y-34140613D01*
X146197073Y-34407468D01*
X134147832Y-34407468D01*
X134143117Y-34396057D01*
X133880327Y-34132808D01*
X133536799Y-33990162D01*
X133164833Y-33989838D01*
X132821057Y-34131883D01*
X132595784Y-34356764D01*
X132532206Y-34293186D01*
X132417926Y-34407466D01*
X132319264Y-34140613D01*
X131709539Y-33914092D01*
X131059540Y-33938144D01*
X130570736Y-34140613D01*
X130472073Y-34407468D01*
X131445000Y-35380395D01*
X131459143Y-35366253D01*
X131638748Y-35545858D01*
X131624605Y-35560000D01*
X131638748Y-35574143D01*
X131459143Y-35753748D01*
X131445000Y-35739605D01*
X131430858Y-35753748D01*
X131251253Y-35574143D01*
X131265395Y-35560000D01*
X130292468Y-34587073D01*
X130025613Y-34685736D01*
X129799092Y-35295461D01*
X129823144Y-35945460D01*
X130025613Y-36434264D01*
X130292466Y-36532926D01*
X130249392Y-36576000D01*
X126140608Y-36576000D01*
X126097534Y-36532926D01*
X126364387Y-36434264D01*
X126590908Y-35824539D01*
X126566856Y-35174540D01*
X126364387Y-34685736D01*
X126097532Y-34587073D01*
X125124605Y-35560000D01*
X125138748Y-35574143D01*
X124959143Y-35753748D01*
X124945000Y-35739605D01*
X124930858Y-35753748D01*
X124751253Y-35574143D01*
X124765395Y-35560000D01*
X123792468Y-34587073D01*
X123525613Y-34685736D01*
X123299092Y-35295461D01*
X123323144Y-35945460D01*
X123525613Y-36434264D01*
X123792466Y-36532926D01*
X123749392Y-36576000D01*
X122362440Y-36576000D01*
X122362440Y-35745000D01*
X122318162Y-35509683D01*
X122179090Y-35293559D01*
X121966890Y-35148569D01*
X121715000Y-35097560D01*
X120515000Y-35097560D01*
X120279683Y-35141838D01*
X120063559Y-35280910D01*
X120015866Y-35350711D01*
X119979090Y-35293559D01*
X119766890Y-35148569D01*
X119515000Y-35097560D01*
X118315000Y-35097560D01*
X118079683Y-35141838D01*
X117863559Y-35280910D01*
X117758274Y-35435000D01*
X116555105Y-35435000D01*
X116464090Y-35293559D01*
X116251890Y-35148569D01*
X116000000Y-35097560D01*
X114800000Y-35097560D01*
X114564683Y-35141838D01*
X114348559Y-35280910D01*
X114300866Y-35350711D01*
X114264090Y-35293559D01*
X114051890Y-35148569D01*
X113800000Y-35097560D01*
X112600000Y-35097560D01*
X112364683Y-35141838D01*
X112148559Y-35280910D01*
X112043274Y-35435000D01*
X111052463Y-35435000D01*
X111020327Y-35402808D01*
X110676799Y-35260162D01*
X110304833Y-35259838D01*
X109961057Y-35401883D01*
X109697808Y-35664673D01*
X109555162Y-36008201D01*
X109554838Y-36380167D01*
X109635754Y-36576000D01*
X109474000Y-36576000D01*
X109474000Y-34587189D01*
X109519838Y-34476799D01*
X109519892Y-34415000D01*
X115007537Y-34415000D01*
X115039673Y-34447192D01*
X115383201Y-34589838D01*
X115755167Y-34590162D01*
X116098943Y-34448117D01*
X116132118Y-34415000D01*
X119380000Y-34415000D01*
X119417865Y-34407468D01*
X123972073Y-34407468D01*
X124945000Y-35380395D01*
X125917927Y-34407468D01*
X125819264Y-34140613D01*
X125209539Y-33914092D01*
X124559540Y-33938144D01*
X124070736Y-34140613D01*
X123972073Y-34407468D01*
X119417865Y-34407468D01*
X119670839Y-34357148D01*
X119917401Y-34192401D01*
X123310226Y-30799576D01*
X123309716Y-31383795D01*
X123558106Y-31984943D01*
X124017637Y-32445278D01*
X124618352Y-32694716D01*
X125268795Y-32695284D01*
X125869943Y-32446894D01*
X126330278Y-31987363D01*
X126579716Y-31386648D01*
X126580284Y-30736205D01*
X126331894Y-30135057D01*
X126167125Y-29970000D01*
X130222644Y-29970000D01*
X130059722Y-30132637D01*
X130059722Y-30132637D01*
G37*
X130059722Y-30132637D02*
X129968640Y-30351988D01*
X129939160Y-30357852D01*
X129692599Y-30522599D01*
X127495320Y-32719878D01*
X127449833Y-32719838D01*
X127106057Y-32861883D01*
X126842808Y-33124673D01*
X126700162Y-33468201D01*
X126699838Y-33840167D01*
X126841883Y-34183943D01*
X127104673Y-34447192D01*
X127448201Y-34589838D01*
X127820167Y-34590162D01*
X128163943Y-34448117D01*
X128427192Y-34185327D01*
X128569838Y-33841799D01*
X128569879Y-33794923D01*
X130218842Y-32145960D01*
X130517637Y-32445278D01*
X131118352Y-32694716D01*
X131768795Y-32695284D01*
X132369943Y-32446894D01*
X132830278Y-31987363D01*
X133079716Y-31386648D01*
X133080284Y-30736205D01*
X132831894Y-30135057D01*
X132667125Y-29970000D01*
X145947644Y-29970000D01*
X145784722Y-30132637D01*
X145535284Y-30733352D01*
X145534716Y-31383795D01*
X145783106Y-31984943D01*
X146242637Y-32445278D01*
X146843352Y-32694716D01*
X147493795Y-32695284D01*
X148094943Y-32446894D01*
X148555278Y-31987363D01*
X148804716Y-31386648D01*
X148805284Y-30736205D01*
X148556894Y-30135057D01*
X148392125Y-29970000D01*
X152447644Y-29970000D01*
X152284722Y-30132637D01*
X152035284Y-30733352D01*
X152034716Y-31383795D01*
X152283106Y-31984943D01*
X152742637Y-32445278D01*
X153343352Y-32694716D01*
X153993795Y-32695284D01*
X154594943Y-32446894D01*
X155055278Y-31987363D01*
X155304716Y-31386648D01*
X155305284Y-30736205D01*
X155056894Y-30135057D01*
X154892125Y-29970000D01*
X168172644Y-29970000D01*
X168009722Y-30132637D01*
X167760284Y-30733352D01*
X167759716Y-31383795D01*
X168008106Y-31984943D01*
X168467637Y-32445278D01*
X169068352Y-32694716D01*
X169718795Y-32695284D01*
X170319943Y-32446894D01*
X170780278Y-31987363D01*
X171029716Y-31386648D01*
X171030284Y-30736205D01*
X170781894Y-30135057D01*
X170617125Y-29970000D01*
X174672644Y-29970000D01*
X174509722Y-30132637D01*
X174260284Y-30733352D01*
X174259716Y-31383795D01*
X174508106Y-31984943D01*
X174967637Y-32445278D01*
X175568352Y-32694716D01*
X176218795Y-32695284D01*
X176819943Y-32446894D01*
X177280278Y-31987363D01*
X177529716Y-31386648D01*
X177529805Y-31284607D01*
X181478517Y-35233319D01*
X181404559Y-35280910D01*
X181356866Y-35350711D01*
X181320090Y-35293559D01*
X181107890Y-35148569D01*
X180856000Y-35097560D01*
X180317362Y-35097560D01*
X180005122Y-34785320D01*
X180005162Y-34739833D01*
X179863117Y-34396057D01*
X179600327Y-34132808D01*
X179256799Y-33990162D01*
X178884833Y-33989838D01*
X178541057Y-34131883D01*
X178277808Y-34394673D01*
X178135162Y-34738201D01*
X178134838Y-35110167D01*
X178276883Y-35453943D01*
X178539673Y-35717192D01*
X178883201Y-35859838D01*
X178930077Y-35859879D01*
X179008560Y-35938362D01*
X179008560Y-36576000D01*
X177090608Y-36576000D01*
X177047534Y-36532926D01*
X177314387Y-36434264D01*
X177540908Y-35824539D01*
X177516856Y-35174540D01*
X177314387Y-34685736D01*
X177047532Y-34587073D01*
X176074605Y-35560000D01*
X176088748Y-35574143D01*
X175909143Y-35753748D01*
X175895000Y-35739605D01*
X175880858Y-35753748D01*
X175701253Y-35574143D01*
X175715395Y-35560000D01*
X174742468Y-34587073D01*
X174475613Y-34685736D01*
X174249092Y-35295461D01*
X174273144Y-35945460D01*
X174475613Y-36434264D01*
X174742466Y-36532926D01*
X174699392Y-36576000D01*
X170590608Y-36576000D01*
X170547534Y-36532926D01*
X170814387Y-36434264D01*
X171040908Y-35824539D01*
X171016856Y-35174540D01*
X170814387Y-34685736D01*
X170547532Y-34587073D01*
X169574605Y-35560000D01*
X169588748Y-35574143D01*
X169409143Y-35753748D01*
X169395000Y-35739605D01*
X169380858Y-35753748D01*
X169201253Y-35574143D01*
X169215395Y-35560000D01*
X168242468Y-34587073D01*
X167975613Y-34685736D01*
X167749092Y-35295461D01*
X167773144Y-35945460D01*
X167975613Y-36434264D01*
X168242466Y-36532926D01*
X168199392Y-36576000D01*
X166812440Y-36576000D01*
X166812440Y-35745000D01*
X166768162Y-35509683D01*
X166629090Y-35293559D01*
X166416890Y-35148569D01*
X166165000Y-35097560D01*
X164965000Y-35097560D01*
X164729683Y-35141838D01*
X164513559Y-35280910D01*
X164465866Y-35350711D01*
X164429090Y-35293559D01*
X164216890Y-35148569D01*
X163965000Y-35097560D01*
X162765000Y-35097560D01*
X162529683Y-35141838D01*
X162313559Y-35280910D01*
X162208274Y-35435000D01*
X161259105Y-35435000D01*
X161168090Y-35293559D01*
X160955890Y-35148569D01*
X160704000Y-35097560D01*
X159504000Y-35097560D01*
X159268683Y-35141838D01*
X159052559Y-35280910D01*
X159004866Y-35350711D01*
X158968090Y-35293559D01*
X158755890Y-35148569D01*
X158504000Y-35097560D01*
X157304000Y-35097560D01*
X157068683Y-35141838D01*
X156970000Y-35205339D01*
X156970000Y-34852463D01*
X157002192Y-34820327D01*
X157144838Y-34476799D01*
X157144898Y-34407468D01*
X168422073Y-34407468D01*
X169395000Y-35380395D01*
X170367927Y-34407468D01*
X174922073Y-34407468D01*
X175895000Y-35380395D01*
X176867927Y-34407468D01*
X176769264Y-34140613D01*
X176159539Y-33914092D01*
X175509540Y-33938144D01*
X175020736Y-34140613D01*
X174922073Y-34407468D01*
X170367927Y-34407468D01*
X170269264Y-34140613D01*
X169659539Y-33914092D01*
X169009540Y-33938144D01*
X168520736Y-34140613D01*
X168422073Y-34407468D01*
X157144898Y-34407468D01*
X157145162Y-34104833D01*
X157003117Y-33761057D01*
X156740327Y-33497808D01*
X156396799Y-33355162D01*
X156024833Y-33354838D01*
X155681057Y-33496883D01*
X155417808Y-33759673D01*
X155275162Y-34103201D01*
X155274838Y-34475167D01*
X155416883Y-34818943D01*
X155450000Y-34852118D01*
X155450000Y-35560000D01*
X155507852Y-35850839D01*
X155672599Y-36097401D01*
X156151198Y-36576000D01*
X154865608Y-36576000D01*
X154822534Y-36532926D01*
X155089387Y-36434264D01*
X155315908Y-35824539D01*
X155291856Y-35174540D01*
X155089387Y-34685736D01*
X154822532Y-34587073D01*
X153849605Y-35560000D01*
X153863748Y-35574143D01*
X153684143Y-35753748D01*
X153670000Y-35739605D01*
X153655858Y-35753748D01*
X153476253Y-35574143D01*
X153490395Y-35560000D01*
X152517468Y-34587073D01*
X152250613Y-34685736D01*
X152024092Y-35295461D01*
X152048144Y-35945460D01*
X152250613Y-36434264D01*
X152517466Y-36532926D01*
X152474392Y-36576000D01*
X148365608Y-36576000D01*
X148322534Y-36532926D01*
X148589387Y-36434264D01*
X148815908Y-35824539D01*
X148791856Y-35174540D01*
X148589387Y-34685736D01*
X148322532Y-34587073D01*
X147349605Y-35560000D01*
X147363748Y-35574143D01*
X147184143Y-35753748D01*
X147170000Y-35739605D01*
X147155858Y-35753748D01*
X146976253Y-35574143D01*
X146990395Y-35560000D01*
X146017468Y-34587073D01*
X145750613Y-34685736D01*
X145524092Y-35295461D01*
X145548144Y-35945460D01*
X145750613Y-36434264D01*
X146017466Y-36532926D01*
X145974392Y-36576000D01*
X145222440Y-36576000D01*
X145222440Y-35745000D01*
X145178162Y-35509683D01*
X145039090Y-35293559D01*
X144826890Y-35148569D01*
X144575000Y-35097560D01*
X143375000Y-35097560D01*
X143139683Y-35141838D01*
X142923559Y-35280910D01*
X142875866Y-35350711D01*
X142839090Y-35293559D01*
X142626890Y-35148569D01*
X142375000Y-35097560D01*
X141175000Y-35097560D01*
X140939683Y-35141838D01*
X140723559Y-35280910D01*
X140618274Y-35435000D01*
X138907105Y-35435000D01*
X138816090Y-35293559D01*
X138603890Y-35148569D01*
X138352000Y-35097560D01*
X137152000Y-35097560D01*
X136916683Y-35141838D01*
X136700559Y-35280910D01*
X136652866Y-35350711D01*
X136616090Y-35293559D01*
X136403890Y-35148569D01*
X136152000Y-35097560D01*
X134952000Y-35097560D01*
X134716683Y-35141838D01*
X134671022Y-35171220D01*
X134285122Y-34785320D01*
X134285162Y-34739833D01*
X134147832Y-34407468D01*
X146197073Y-34407468D01*
X147170000Y-35380395D01*
X148142927Y-34407468D01*
X152697073Y-34407468D01*
X153670000Y-35380395D01*
X154642927Y-34407468D01*
X154544264Y-34140613D01*
X153934539Y-33914092D01*
X153284540Y-33938144D01*
X152795736Y-34140613D01*
X152697073Y-34407468D01*
X148142927Y-34407468D01*
X148044264Y-34140613D01*
X147434539Y-33914092D01*
X146784540Y-33938144D01*
X146295736Y-34140613D01*
X146197073Y-34407468D01*
X134147832Y-34407468D01*
X134143117Y-34396057D01*
X133880327Y-34132808D01*
X133536799Y-33990162D01*
X133164833Y-33989838D01*
X132821057Y-34131883D01*
X132595784Y-34356764D01*
X132532206Y-34293186D01*
X132417926Y-34407466D01*
X132319264Y-34140613D01*
X131709539Y-33914092D01*
X131059540Y-33938144D01*
X130570736Y-34140613D01*
X130472073Y-34407468D01*
X131445000Y-35380395D01*
X131459143Y-35366253D01*
X131638748Y-35545858D01*
X131624605Y-35560000D01*
X131638748Y-35574143D01*
X131459143Y-35753748D01*
X131445000Y-35739605D01*
X131430858Y-35753748D01*
X131251253Y-35574143D01*
X131265395Y-35560000D01*
X130292468Y-34587073D01*
X130025613Y-34685736D01*
X129799092Y-35295461D01*
X129823144Y-35945460D01*
X130025613Y-36434264D01*
X130292466Y-36532926D01*
X130249392Y-36576000D01*
X126140608Y-36576000D01*
X126097534Y-36532926D01*
X126364387Y-36434264D01*
X126590908Y-35824539D01*
X126566856Y-35174540D01*
X126364387Y-34685736D01*
X126097532Y-34587073D01*
X125124605Y-35560000D01*
X125138748Y-35574143D01*
X124959143Y-35753748D01*
X124945000Y-35739605D01*
X124930858Y-35753748D01*
X124751253Y-35574143D01*
X124765395Y-35560000D01*
X123792468Y-34587073D01*
X123525613Y-34685736D01*
X123299092Y-35295461D01*
X123323144Y-35945460D01*
X123525613Y-36434264D01*
X123792466Y-36532926D01*
X123749392Y-36576000D01*
X122362440Y-36576000D01*
X122362440Y-35745000D01*
X122318162Y-35509683D01*
X122179090Y-35293559D01*
X121966890Y-35148569D01*
X121715000Y-35097560D01*
X120515000Y-35097560D01*
X120279683Y-35141838D01*
X120063559Y-35280910D01*
X120015866Y-35350711D01*
X119979090Y-35293559D01*
X119766890Y-35148569D01*
X119515000Y-35097560D01*
X118315000Y-35097560D01*
X118079683Y-35141838D01*
X117863559Y-35280910D01*
X117758274Y-35435000D01*
X116555105Y-35435000D01*
X116464090Y-35293559D01*
X116251890Y-35148569D01*
X116000000Y-35097560D01*
X114800000Y-35097560D01*
X114564683Y-35141838D01*
X114348559Y-35280910D01*
X114300866Y-35350711D01*
X114264090Y-35293559D01*
X114051890Y-35148569D01*
X113800000Y-35097560D01*
X112600000Y-35097560D01*
X112364683Y-35141838D01*
X112148559Y-35280910D01*
X112043274Y-35435000D01*
X111052463Y-35435000D01*
X111020327Y-35402808D01*
X110676799Y-35260162D01*
X110304833Y-35259838D01*
X109961057Y-35401883D01*
X109697808Y-35664673D01*
X109555162Y-36008201D01*
X109554838Y-36380167D01*
X109635754Y-36576000D01*
X109474000Y-36576000D01*
X109474000Y-34587189D01*
X109519838Y-34476799D01*
X109519892Y-34415000D01*
X115007537Y-34415000D01*
X115039673Y-34447192D01*
X115383201Y-34589838D01*
X115755167Y-34590162D01*
X116098943Y-34448117D01*
X116132118Y-34415000D01*
X119380000Y-34415000D01*
X119417865Y-34407468D01*
X123972073Y-34407468D01*
X124945000Y-35380395D01*
X125917927Y-34407468D01*
X125819264Y-34140613D01*
X125209539Y-33914092D01*
X124559540Y-33938144D01*
X124070736Y-34140613D01*
X123972073Y-34407468D01*
X119417865Y-34407468D01*
X119670839Y-34357148D01*
X119917401Y-34192401D01*
X123310226Y-30799576D01*
X123309716Y-31383795D01*
X123558106Y-31984943D01*
X124017637Y-32445278D01*
X124618352Y-32694716D01*
X125268795Y-32695284D01*
X125869943Y-32446894D01*
X126330278Y-31987363D01*
X126579716Y-31386648D01*
X126580284Y-30736205D01*
X126331894Y-30135057D01*
X126167125Y-29970000D01*
X130222644Y-29970000D01*
X130059722Y-30132637D01*
G36*
X34394673Y-26192192D02*
X34738201Y-26334838D01*
X35110167Y-26335162D01*
X35435000Y-26200944D01*
X35435000Y-26355198D01*
X34632734Y-27157464D01*
X34569090Y-27058559D01*
X34356890Y-26913569D01*
X34105000Y-26862560D01*
X33205000Y-26862560D01*
X32969683Y-26906838D01*
X32753559Y-27045910D01*
X32608569Y-27258110D01*
X32557560Y-27510000D01*
X32557560Y-28710000D01*
X32601838Y-28945317D01*
X32740910Y-29161441D01*
X32810711Y-29209134D01*
X32753559Y-29245910D01*
X32608569Y-29458110D01*
X32557560Y-29710000D01*
X32557560Y-30910000D01*
X32601838Y-31145317D01*
X32740910Y-31361441D01*
X32953110Y-31506431D01*
X33205000Y-31557440D01*
X33992554Y-31557440D01*
X33990162Y-31563201D01*
X33989838Y-31935167D01*
X34131883Y-32278943D01*
X34394673Y-32542192D01*
X34738201Y-32684838D01*
X34785077Y-32684879D01*
X35022599Y-32922401D01*
X35269161Y-33087148D01*
X35560000Y-33145000D01*
X36029367Y-33145000D01*
X35895162Y-33468201D01*
X35894838Y-33840167D01*
X36036883Y-34183943D01*
X36299673Y-34447192D01*
X36643201Y-34589838D01*
X37015167Y-34590162D01*
X37358943Y-34448117D01*
X37392118Y-34415000D01*
X38943112Y-34415000D01*
X38942838Y-34729167D01*
X39084883Y-35072943D01*
X39347673Y-35336192D01*
X39691201Y-35478838D01*
X40063167Y-35479162D01*
X40406943Y-35337117D01*
X40670192Y-35074327D01*
X40680294Y-35050000D01*
X40721001Y-35050000D01*
X40720838Y-35237167D01*
X40862883Y-35580943D01*
X41125673Y-35844192D01*
X41469201Y-35986838D01*
X41841167Y-35987162D01*
X42184943Y-35845117D01*
X42345340Y-35685000D01*
X43014367Y-35685000D01*
X42880162Y-36008201D01*
X42879838Y-36380167D01*
X42960754Y-36576000D01*
X38354000Y-36576000D01*
X38354000Y-36492189D01*
X38399838Y-36381799D01*
X38400162Y-36009833D01*
X38258117Y-35666057D01*
X37995327Y-35402808D01*
X37651799Y-35260162D01*
X37279833Y-35259838D01*
X36936057Y-35401883D01*
X36672808Y-35664673D01*
X36530162Y-36008201D01*
X36529838Y-36380167D01*
X36576000Y-36491888D01*
X36576000Y-36576000D01*
X34732440Y-36576000D01*
X34732440Y-35745000D01*
X34688162Y-35509683D01*
X34549090Y-35293559D01*
X34374000Y-35173925D01*
X34374000Y-33485000D01*
X34306329Y-33144794D01*
X34113618Y-32856382D01*
X30938618Y-29681382D01*
X30895483Y-29652560D01*
X30650206Y-29488671D01*
X30310000Y-29421000D01*
X30228618Y-29421000D01*
X30124090Y-29258559D01*
X30054289Y-29210866D01*
X30111441Y-29174090D01*
X30256431Y-28961890D01*
X30307440Y-28710000D01*
X30307440Y-27510000D01*
X30271390Y-27318412D01*
X31429802Y-26160000D01*
X34362537Y-26160000D01*
X34394673Y-26192192D01*
X34394673Y-26192192D01*
G37*
X34394673Y-26192192D02*
X34738201Y-26334838D01*
X35110167Y-26335162D01*
X35435000Y-26200944D01*
X35435000Y-26355198D01*
X34632734Y-27157464D01*
X34569090Y-27058559D01*
X34356890Y-26913569D01*
X34105000Y-26862560D01*
X33205000Y-26862560D01*
X32969683Y-26906838D01*
X32753559Y-27045910D01*
X32608569Y-27258110D01*
X32557560Y-27510000D01*
X32557560Y-28710000D01*
X32601838Y-28945317D01*
X32740910Y-29161441D01*
X32810711Y-29209134D01*
X32753559Y-29245910D01*
X32608569Y-29458110D01*
X32557560Y-29710000D01*
X32557560Y-30910000D01*
X32601838Y-31145317D01*
X32740910Y-31361441D01*
X32953110Y-31506431D01*
X33205000Y-31557440D01*
X33992554Y-31557440D01*
X33990162Y-31563201D01*
X33989838Y-31935167D01*
X34131883Y-32278943D01*
X34394673Y-32542192D01*
X34738201Y-32684838D01*
X34785077Y-32684879D01*
X35022599Y-32922401D01*
X35269161Y-33087148D01*
X35560000Y-33145000D01*
X36029367Y-33145000D01*
X35895162Y-33468201D01*
X35894838Y-33840167D01*
X36036883Y-34183943D01*
X36299673Y-34447192D01*
X36643201Y-34589838D01*
X37015167Y-34590162D01*
X37358943Y-34448117D01*
X37392118Y-34415000D01*
X38943112Y-34415000D01*
X38942838Y-34729167D01*
X39084883Y-35072943D01*
X39347673Y-35336192D01*
X39691201Y-35478838D01*
X40063167Y-35479162D01*
X40406943Y-35337117D01*
X40670192Y-35074327D01*
X40680294Y-35050000D01*
X40721001Y-35050000D01*
X40720838Y-35237167D01*
X40862883Y-35580943D01*
X41125673Y-35844192D01*
X41469201Y-35986838D01*
X41841167Y-35987162D01*
X42184943Y-35845117D01*
X42345340Y-35685000D01*
X43014367Y-35685000D01*
X42880162Y-36008201D01*
X42879838Y-36380167D01*
X42960754Y-36576000D01*
X38354000Y-36576000D01*
X38354000Y-36492189D01*
X38399838Y-36381799D01*
X38400162Y-36009833D01*
X38258117Y-35666057D01*
X37995327Y-35402808D01*
X37651799Y-35260162D01*
X37279833Y-35259838D01*
X36936057Y-35401883D01*
X36672808Y-35664673D01*
X36530162Y-36008201D01*
X36529838Y-36380167D01*
X36576000Y-36491888D01*
X36576000Y-36576000D01*
X34732440Y-36576000D01*
X34732440Y-35745000D01*
X34688162Y-35509683D01*
X34549090Y-35293559D01*
X34374000Y-35173925D01*
X34374000Y-33485000D01*
X34306329Y-33144794D01*
X34113618Y-32856382D01*
X30938618Y-29681382D01*
X30895483Y-29652560D01*
X30650206Y-29488671D01*
X30310000Y-29421000D01*
X30228618Y-29421000D01*
X30124090Y-29258559D01*
X30054289Y-29210866D01*
X30111441Y-29174090D01*
X30256431Y-28961890D01*
X30307440Y-28710000D01*
X30307440Y-27510000D01*
X30271390Y-27318412D01*
X31429802Y-26160000D01*
X34362537Y-26160000D01*
X34394673Y-26192192D01*
G36*
X227915000Y-13843000D02*
X227035025Y-13843000D01*
X227048327Y-13829698D01*
X227145000Y-13596309D01*
X227145000Y-13155750D01*
X226986250Y-12997000D01*
X226187000Y-12997000D01*
X226187000Y-13017000D01*
X225933000Y-13017000D01*
X225933000Y-12997000D01*
X225133750Y-12997000D01*
X224975000Y-13155750D01*
X224975000Y-13596309D01*
X225071673Y-13829698D01*
X225084975Y-13843000D01*
X224282000Y-13843000D01*
X224282000Y-12143691D01*
X224975000Y-12143691D01*
X224975000Y-12584250D01*
X225133750Y-12743000D01*
X225933000Y-12743000D01*
X225933000Y-11793750D01*
X226187000Y-11793750D01*
X226187000Y-12743000D01*
X226986250Y-12743000D01*
X227145000Y-12584250D01*
X227145000Y-12143691D01*
X227048327Y-11910302D01*
X226869699Y-11731673D01*
X226636310Y-11635000D01*
X226345750Y-11635000D01*
X226187000Y-11793750D01*
X225933000Y-11793750D01*
X225774250Y-11635000D01*
X225483690Y-11635000D01*
X225250301Y-11731673D01*
X225071673Y-11910302D01*
X224975000Y-12143691D01*
X224282000Y-12143691D01*
X224282000Y-11430000D01*
X224271994Y-11380590D01*
X224243553Y-11338965D01*
X224201159Y-11311685D01*
X224155000Y-11303000D01*
X219220955Y-11303000D01*
X219290000Y-11136310D01*
X219290000Y-10445750D01*
X219131250Y-10287000D01*
X217932000Y-10287000D01*
X217932000Y-10307000D01*
X217678000Y-10307000D01*
X217678000Y-10287000D01*
X216478750Y-10287000D01*
X216320000Y-10445750D01*
X216320000Y-10534159D01*
X214744453Y-9183690D01*
X216320000Y-9183690D01*
X216320000Y-9874250D01*
X216478750Y-10033000D01*
X217678000Y-10033000D01*
X217678000Y-8833750D01*
X217932000Y-8833750D01*
X217932000Y-10033000D01*
X219131250Y-10033000D01*
X219290000Y-9874250D01*
X219290000Y-9183690D01*
X219193327Y-8950301D01*
X219014698Y-8771673D01*
X218781309Y-8675000D01*
X218090750Y-8675000D01*
X217932000Y-8833750D01*
X217678000Y-8833750D01*
X217519250Y-8675000D01*
X216828691Y-8675000D01*
X216595302Y-8771673D01*
X216416673Y-8950301D01*
X216320000Y-9183690D01*
X214744453Y-9183690D01*
X212807651Y-7523574D01*
X212763624Y-7499016D01*
X212725000Y-7493000D01*
X202285948Y-7493000D01*
X202209090Y-7373559D01*
X201996890Y-7228569D01*
X201745000Y-7177560D01*
X200845000Y-7177560D01*
X200609683Y-7221838D01*
X200393559Y-7360910D01*
X200320661Y-7467600D01*
X181949604Y-7467600D01*
X181889090Y-7373559D01*
X181676890Y-7228569D01*
X181425000Y-7177560D01*
X180525000Y-7177560D01*
X180289683Y-7221838D01*
X180073559Y-7360910D01*
X180000661Y-7467600D01*
X163830000Y-7467600D01*
X163702305Y-7493000D01*
X163195000Y-7493000D01*
X163145590Y-7503006D01*
X163105197Y-7530197D01*
X152347394Y-18288000D01*
X151182606Y-18288000D01*
X149352000Y-16457394D01*
X149352000Y-16205880D01*
X149708725Y-16205880D01*
X149990421Y-16628564D01*
X151142892Y-17105294D01*
X152390072Y-17104705D01*
X153539579Y-16628564D01*
X153821275Y-16205880D01*
X151765000Y-14149605D01*
X149708725Y-16205880D01*
X149352000Y-16205880D01*
X149352000Y-15908234D01*
X149529120Y-16026275D01*
X151585395Y-13970000D01*
X151944605Y-13970000D01*
X154000880Y-16026275D01*
X154423564Y-15744579D01*
X154900294Y-14592108D01*
X154899705Y-13344928D01*
X154423564Y-12195421D01*
X154000880Y-11913725D01*
X151944605Y-13970000D01*
X151585395Y-13970000D01*
X151571253Y-13955858D01*
X151750858Y-13776253D01*
X151765000Y-13790395D01*
X153821275Y-11734120D01*
X153699282Y-11551070D01*
X153719410Y-11546994D01*
X153759803Y-11519803D01*
X155029803Y-10249803D01*
X155057666Y-10207789D01*
X155067000Y-10160000D01*
X155067000Y-7030266D01*
X218814405Y-7030266D01*
X219336250Y-8293229D01*
X220301688Y-9260354D01*
X221563739Y-9784403D01*
X222930266Y-9785595D01*
X224193229Y-9263750D01*
X225160354Y-8298312D01*
X225684403Y-7036261D01*
X225684945Y-6414747D01*
X225759878Y-6489680D01*
X225759838Y-6535167D01*
X225901883Y-6878943D01*
X226164673Y-7142192D01*
X226508201Y-7284838D01*
X226880167Y-7285162D01*
X227223943Y-7143117D01*
X227487192Y-6880327D01*
X227629838Y-6536799D01*
X227630162Y-6164833D01*
X227488117Y-5821057D01*
X227225327Y-5557808D01*
X226881799Y-5415162D01*
X226843274Y-5415128D01*
X226961441Y-5339090D01*
X227106431Y-5126890D01*
X227157440Y-4875000D01*
X227157440Y-3675000D01*
X227113162Y-3439683D01*
X226974090Y-3223559D01*
X226904289Y-3175866D01*
X226961441Y-3139090D01*
X227106431Y-2926890D01*
X227157440Y-2675000D01*
X227157440Y-1475000D01*
X227113162Y-1239683D01*
X226974090Y-1023559D01*
X226761890Y-878569D01*
X226510000Y-827560D01*
X225610000Y-827560D01*
X225374683Y-871838D01*
X225158559Y-1010910D01*
X225066939Y-1145000D01*
X223235105Y-1145000D01*
X223144090Y-1003559D01*
X222931890Y-858569D01*
X222680000Y-807560D01*
X221480000Y-807560D01*
X221244683Y-851838D01*
X221028559Y-990910D01*
X220982031Y-1059006D01*
X220839698Y-916673D01*
X220606309Y-820000D01*
X220165750Y-820000D01*
X220007000Y-978750D01*
X220007000Y-1778000D01*
X220027000Y-1778000D01*
X220027000Y-2032000D01*
X220007000Y-2032000D01*
X220007000Y-2831250D01*
X220165750Y-2990000D01*
X220606309Y-2990000D01*
X220839698Y-2893327D01*
X220980936Y-2752090D01*
X221015910Y-2806441D01*
X221228110Y-2951431D01*
X221397236Y-2985680D01*
X220306771Y-3436250D01*
X219339646Y-4401688D01*
X218815597Y-5663739D01*
X218814405Y-7030266D01*
X155067000Y-7030266D01*
X155067000Y-2706463D01*
X155388201Y-2839838D01*
X155760167Y-2840162D01*
X156103943Y-2698117D01*
X156137118Y-2665000D01*
X156748895Y-2665000D01*
X156839910Y-2806441D01*
X157052110Y-2951431D01*
X157304000Y-3002440D01*
X158504000Y-3002440D01*
X158739317Y-2958162D01*
X158955441Y-2819090D01*
X159003134Y-2749289D01*
X159039910Y-2806441D01*
X159252110Y-2951431D01*
X159504000Y-3002440D01*
X160704000Y-3002440D01*
X160939317Y-2958162D01*
X161155441Y-2819090D01*
X161260726Y-2665000D01*
X162844895Y-2665000D01*
X162935910Y-2806441D01*
X163148110Y-2951431D01*
X163400000Y-3002440D01*
X164600000Y-3002440D01*
X164835317Y-2958162D01*
X165051441Y-2819090D01*
X165097969Y-2750994D01*
X165240302Y-2893327D01*
X165473691Y-2990000D01*
X165914250Y-2990000D01*
X166073000Y-2831250D01*
X166073000Y-2032000D01*
X166327000Y-2032000D01*
X166327000Y-2831250D01*
X166485750Y-2990000D01*
X166926309Y-2990000D01*
X167159698Y-2893327D01*
X167338327Y-2714699D01*
X167435000Y-2481310D01*
X167435000Y-2190750D01*
X167334417Y-2090167D01*
X176864838Y-2090167D01*
X177006883Y-2433943D01*
X177269673Y-2697192D01*
X177613201Y-2839838D01*
X177985167Y-2840162D01*
X178328943Y-2698117D01*
X178362118Y-2665000D01*
X179100895Y-2665000D01*
X179191910Y-2806441D01*
X179404110Y-2951431D01*
X179656000Y-3002440D01*
X180856000Y-3002440D01*
X181091317Y-2958162D01*
X181307441Y-2819090D01*
X181355134Y-2749289D01*
X181391910Y-2806441D01*
X181604110Y-2951431D01*
X181856000Y-3002440D01*
X183056000Y-3002440D01*
X183291317Y-2958162D01*
X183507441Y-2819090D01*
X183612726Y-2665000D01*
X185704895Y-2665000D01*
X185795910Y-2806441D01*
X186008110Y-2951431D01*
X186260000Y-3002440D01*
X187460000Y-3002440D01*
X187695317Y-2958162D01*
X187911441Y-2819090D01*
X187957969Y-2750994D01*
X188100302Y-2893327D01*
X188333691Y-2990000D01*
X188774250Y-2990000D01*
X188933000Y-2831250D01*
X188933000Y-2032000D01*
X189187000Y-2032000D01*
X189187000Y-2831250D01*
X189345750Y-2990000D01*
X189786309Y-2990000D01*
X190019698Y-2893327D01*
X190198327Y-2714699D01*
X190295000Y-2481310D01*
X190295000Y-2190750D01*
X190194417Y-2090167D01*
X198454838Y-2090167D01*
X198596883Y-2433943D01*
X198859673Y-2697192D01*
X199203201Y-2839838D01*
X199575167Y-2840162D01*
X199918943Y-2698117D01*
X199952118Y-2665000D01*
X201452895Y-2665000D01*
X201543910Y-2806441D01*
X201756110Y-2951431D01*
X202008000Y-3002440D01*
X203208000Y-3002440D01*
X203443317Y-2958162D01*
X203659441Y-2819090D01*
X203707134Y-2749289D01*
X203743910Y-2806441D01*
X203956110Y-2951431D01*
X204208000Y-3002440D01*
X205408000Y-3002440D01*
X205643317Y-2958162D01*
X205859441Y-2819090D01*
X205964726Y-2665000D01*
X207294895Y-2665000D01*
X207385910Y-2806441D01*
X207598110Y-2951431D01*
X207850000Y-3002440D01*
X209050000Y-3002440D01*
X209285317Y-2958162D01*
X209501441Y-2819090D01*
X209547969Y-2750994D01*
X209690302Y-2893327D01*
X209923691Y-2990000D01*
X210364250Y-2990000D01*
X210523000Y-2831250D01*
X210523000Y-2032000D01*
X210777000Y-2032000D01*
X210777000Y-2831250D01*
X210935750Y-2990000D01*
X211376309Y-2990000D01*
X211609698Y-2893327D01*
X211788327Y-2714699D01*
X211885000Y-2481310D01*
X211885000Y-2190750D01*
X218645000Y-2190750D01*
X218645000Y-2481310D01*
X218741673Y-2714699D01*
X218920302Y-2893327D01*
X219153691Y-2990000D01*
X219594250Y-2990000D01*
X219753000Y-2831250D01*
X219753000Y-2032000D01*
X218803750Y-2032000D01*
X218645000Y-2190750D01*
X211885000Y-2190750D01*
X211726250Y-2032000D01*
X210777000Y-2032000D01*
X210523000Y-2032000D01*
X210503000Y-2032000D01*
X210503000Y-1778000D01*
X210523000Y-1778000D01*
X210523000Y-978750D01*
X210777000Y-978750D01*
X210777000Y-1778000D01*
X211726250Y-1778000D01*
X211885000Y-1619250D01*
X211885000Y-1328690D01*
X218645000Y-1328690D01*
X218645000Y-1619250D01*
X218803750Y-1778000D01*
X219753000Y-1778000D01*
X219753000Y-978750D01*
X219594250Y-820000D01*
X219153691Y-820000D01*
X218920302Y-916673D01*
X218741673Y-1095301D01*
X218645000Y-1328690D01*
X211885000Y-1328690D01*
X211788327Y-1095301D01*
X211609698Y-916673D01*
X211376309Y-820000D01*
X210935750Y-820000D01*
X210777000Y-978750D01*
X210523000Y-978750D01*
X210364250Y-820000D01*
X209923691Y-820000D01*
X209690302Y-916673D01*
X209549064Y-1057910D01*
X209514090Y-1003559D01*
X209301890Y-858569D01*
X209050000Y-807560D01*
X207850000Y-807560D01*
X207614683Y-851838D01*
X207398559Y-990910D01*
X207293274Y-1145000D01*
X205963105Y-1145000D01*
X205872090Y-1003559D01*
X205659890Y-858569D01*
X205408000Y-807560D01*
X204208000Y-807560D01*
X203972683Y-851838D01*
X203756559Y-990910D01*
X203708866Y-1060711D01*
X203672090Y-1003559D01*
X203459890Y-858569D01*
X203208000Y-807560D01*
X202008000Y-807560D01*
X201772683Y-851838D01*
X201556559Y-990910D01*
X201451274Y-1145000D01*
X199952463Y-1145000D01*
X199920327Y-1112808D01*
X199576799Y-970162D01*
X199204833Y-969838D01*
X198861057Y-1111883D01*
X198597808Y-1374673D01*
X198455162Y-1718201D01*
X198454838Y-2090167D01*
X190194417Y-2090167D01*
X190136250Y-2032000D01*
X189187000Y-2032000D01*
X188933000Y-2032000D01*
X188913000Y-2032000D01*
X188913000Y-1778000D01*
X188933000Y-1778000D01*
X188933000Y-978750D01*
X189187000Y-978750D01*
X189187000Y-1778000D01*
X190136250Y-1778000D01*
X190295000Y-1619250D01*
X190295000Y-1328690D01*
X190198327Y-1095301D01*
X190019698Y-916673D01*
X189786309Y-820000D01*
X189345750Y-820000D01*
X189187000Y-978750D01*
X188933000Y-978750D01*
X188774250Y-820000D01*
X188333691Y-820000D01*
X188100302Y-916673D01*
X187959064Y-1057910D01*
X187924090Y-1003559D01*
X187711890Y-858569D01*
X187460000Y-807560D01*
X186260000Y-807560D01*
X186024683Y-851838D01*
X185808559Y-990910D01*
X185703274Y-1145000D01*
X183611105Y-1145000D01*
X183520090Y-1003559D01*
X183307890Y-858569D01*
X183056000Y-807560D01*
X181856000Y-807560D01*
X181620683Y-851838D01*
X181404559Y-990910D01*
X181356866Y-1060711D01*
X181320090Y-1003559D01*
X181107890Y-858569D01*
X180856000Y-807560D01*
X179656000Y-807560D01*
X179420683Y-851838D01*
X179204559Y-990910D01*
X179099274Y-1145000D01*
X178362463Y-1145000D01*
X178330327Y-1112808D01*
X177986799Y-970162D01*
X177614833Y-969838D01*
X177271057Y-1111883D01*
X177007808Y-1374673D01*
X176865162Y-1718201D01*
X176864838Y-2090167D01*
X167334417Y-2090167D01*
X167276250Y-2032000D01*
X166327000Y-2032000D01*
X166073000Y-2032000D01*
X166053000Y-2032000D01*
X166053000Y-1778000D01*
X166073000Y-1778000D01*
X166073000Y-978750D01*
X166327000Y-978750D01*
X166327000Y-1778000D01*
X167276250Y-1778000D01*
X167435000Y-1619250D01*
X167435000Y-1328690D01*
X167338327Y-1095301D01*
X167159698Y-916673D01*
X166926309Y-820000D01*
X166485750Y-820000D01*
X166327000Y-978750D01*
X166073000Y-978750D01*
X165914250Y-820000D01*
X165473691Y-820000D01*
X165240302Y-916673D01*
X165099064Y-1057910D01*
X165064090Y-1003559D01*
X164851890Y-858569D01*
X164600000Y-807560D01*
X163400000Y-807560D01*
X163164683Y-851838D01*
X162948559Y-990910D01*
X162843274Y-1145000D01*
X161259105Y-1145000D01*
X161168090Y-1003559D01*
X160955890Y-858569D01*
X160704000Y-807560D01*
X159504000Y-807560D01*
X159268683Y-851838D01*
X159052559Y-990910D01*
X159004866Y-1060711D01*
X158968090Y-1003559D01*
X158755890Y-858569D01*
X158504000Y-807560D01*
X157304000Y-807560D01*
X157068683Y-851838D01*
X156852559Y-990910D01*
X156747274Y-1145000D01*
X156137463Y-1145000D01*
X156105327Y-1112808D01*
X155761799Y-970162D01*
X155389833Y-969838D01*
X155067000Y-1103230D01*
X155067000Y-685000D01*
X227915000Y-685000D01*
X227915000Y-13843000D01*
X227915000Y-13843000D01*
G37*
X227915000Y-13843000D02*
X227035025Y-13843000D01*
X227048327Y-13829698D01*
X227145000Y-13596309D01*
X227145000Y-13155750D01*
X226986250Y-12997000D01*
X226187000Y-12997000D01*
X226187000Y-13017000D01*
X225933000Y-13017000D01*
X225933000Y-12997000D01*
X225133750Y-12997000D01*
X224975000Y-13155750D01*
X224975000Y-13596309D01*
X225071673Y-13829698D01*
X225084975Y-13843000D01*
X224282000Y-13843000D01*
X224282000Y-12143691D01*
X224975000Y-12143691D01*
X224975000Y-12584250D01*
X225133750Y-12743000D01*
X225933000Y-12743000D01*
X225933000Y-11793750D01*
X226187000Y-11793750D01*
X226187000Y-12743000D01*
X226986250Y-12743000D01*
X227145000Y-12584250D01*
X227145000Y-12143691D01*
X227048327Y-11910302D01*
X226869699Y-11731673D01*
X226636310Y-11635000D01*
X226345750Y-11635000D01*
X226187000Y-11793750D01*
X225933000Y-11793750D01*
X225774250Y-11635000D01*
X225483690Y-11635000D01*
X225250301Y-11731673D01*
X225071673Y-11910302D01*
X224975000Y-12143691D01*
X224282000Y-12143691D01*
X224282000Y-11430000D01*
X224271994Y-11380590D01*
X224243553Y-11338965D01*
X224201159Y-11311685D01*
X224155000Y-11303000D01*
X219220955Y-11303000D01*
X219290000Y-11136310D01*
X219290000Y-10445750D01*
X219131250Y-10287000D01*
X217932000Y-10287000D01*
X217932000Y-10307000D01*
X217678000Y-10307000D01*
X217678000Y-10287000D01*
X216478750Y-10287000D01*
X216320000Y-10445750D01*
X216320000Y-10534159D01*
X214744453Y-9183690D01*
X216320000Y-9183690D01*
X216320000Y-9874250D01*
X216478750Y-10033000D01*
X217678000Y-10033000D01*
X217678000Y-8833750D01*
X217932000Y-8833750D01*
X217932000Y-10033000D01*
X219131250Y-10033000D01*
X219290000Y-9874250D01*
X219290000Y-9183690D01*
X219193327Y-8950301D01*
X219014698Y-8771673D01*
X218781309Y-8675000D01*
X218090750Y-8675000D01*
X217932000Y-8833750D01*
X217678000Y-8833750D01*
X217519250Y-8675000D01*
X216828691Y-8675000D01*
X216595302Y-8771673D01*
X216416673Y-8950301D01*
X216320000Y-9183690D01*
X214744453Y-9183690D01*
X212807651Y-7523574D01*
X212763624Y-7499016D01*
X212725000Y-7493000D01*
X202285948Y-7493000D01*
X202209090Y-7373559D01*
X201996890Y-7228569D01*
X201745000Y-7177560D01*
X200845000Y-7177560D01*
X200609683Y-7221838D01*
X200393559Y-7360910D01*
X200320661Y-7467600D01*
X181949604Y-7467600D01*
X181889090Y-7373559D01*
X181676890Y-7228569D01*
X181425000Y-7177560D01*
X180525000Y-7177560D01*
X180289683Y-7221838D01*
X180073559Y-7360910D01*
X180000661Y-7467600D01*
X163830000Y-7467600D01*
X163702305Y-7493000D01*
X163195000Y-7493000D01*
X163145590Y-7503006D01*
X163105197Y-7530197D01*
X152347394Y-18288000D01*
X151182606Y-18288000D01*
X149352000Y-16457394D01*
X149352000Y-16205880D01*
X149708725Y-16205880D01*
X149990421Y-16628564D01*
X151142892Y-17105294D01*
X152390072Y-17104705D01*
X153539579Y-16628564D01*
X153821275Y-16205880D01*
X151765000Y-14149605D01*
X149708725Y-16205880D01*
X149352000Y-16205880D01*
X149352000Y-15908234D01*
X149529120Y-16026275D01*
X151585395Y-13970000D01*
X151944605Y-13970000D01*
X154000880Y-16026275D01*
X154423564Y-15744579D01*
X154900294Y-14592108D01*
X154899705Y-13344928D01*
X154423564Y-12195421D01*
X154000880Y-11913725D01*
X151944605Y-13970000D01*
X151585395Y-13970000D01*
X151571253Y-13955858D01*
X151750858Y-13776253D01*
X151765000Y-13790395D01*
X153821275Y-11734120D01*
X153699282Y-11551070D01*
X153719410Y-11546994D01*
X153759803Y-11519803D01*
X155029803Y-10249803D01*
X155057666Y-10207789D01*
X155067000Y-10160000D01*
X155067000Y-7030266D01*
X218814405Y-7030266D01*
X219336250Y-8293229D01*
X220301688Y-9260354D01*
X221563739Y-9784403D01*
X222930266Y-9785595D01*
X224193229Y-9263750D01*
X225160354Y-8298312D01*
X225684403Y-7036261D01*
X225684945Y-6414747D01*
X225759878Y-6489680D01*
X225759838Y-6535167D01*
X225901883Y-6878943D01*
X226164673Y-7142192D01*
X226508201Y-7284838D01*
X226880167Y-7285162D01*
X227223943Y-7143117D01*
X227487192Y-6880327D01*
X227629838Y-6536799D01*
X227630162Y-6164833D01*
X227488117Y-5821057D01*
X227225327Y-5557808D01*
X226881799Y-5415162D01*
X226843274Y-5415128D01*
X226961441Y-5339090D01*
X227106431Y-5126890D01*
X227157440Y-4875000D01*
X227157440Y-3675000D01*
X227113162Y-3439683D01*
X226974090Y-3223559D01*
X226904289Y-3175866D01*
X226961441Y-3139090D01*
X227106431Y-2926890D01*
X227157440Y-2675000D01*
X227157440Y-1475000D01*
X227113162Y-1239683D01*
X226974090Y-1023559D01*
X226761890Y-878569D01*
X226510000Y-827560D01*
X225610000Y-827560D01*
X225374683Y-871838D01*
X225158559Y-1010910D01*
X225066939Y-1145000D01*
X223235105Y-1145000D01*
X223144090Y-1003559D01*
X222931890Y-858569D01*
X222680000Y-807560D01*
X221480000Y-807560D01*
X221244683Y-851838D01*
X221028559Y-990910D01*
X220982031Y-1059006D01*
X220839698Y-916673D01*
X220606309Y-820000D01*
X220165750Y-820000D01*
X220007000Y-978750D01*
X220007000Y-1778000D01*
X220027000Y-1778000D01*
X220027000Y-2032000D01*
X220007000Y-2032000D01*
X220007000Y-2831250D01*
X220165750Y-2990000D01*
X220606309Y-2990000D01*
X220839698Y-2893327D01*
X220980936Y-2752090D01*
X221015910Y-2806441D01*
X221228110Y-2951431D01*
X221397236Y-2985680D01*
X220306771Y-3436250D01*
X219339646Y-4401688D01*
X218815597Y-5663739D01*
X218814405Y-7030266D01*
X155067000Y-7030266D01*
X155067000Y-2706463D01*
X155388201Y-2839838D01*
X155760167Y-2840162D01*
X156103943Y-2698117D01*
X156137118Y-2665000D01*
X156748895Y-2665000D01*
X156839910Y-2806441D01*
X157052110Y-2951431D01*
X157304000Y-3002440D01*
X158504000Y-3002440D01*
X158739317Y-2958162D01*
X158955441Y-2819090D01*
X159003134Y-2749289D01*
X159039910Y-2806441D01*
X159252110Y-2951431D01*
X159504000Y-3002440D01*
X160704000Y-3002440D01*
X160939317Y-2958162D01*
X161155441Y-2819090D01*
X161260726Y-2665000D01*
X162844895Y-2665000D01*
X162935910Y-2806441D01*
X163148110Y-2951431D01*
X163400000Y-3002440D01*
X164600000Y-3002440D01*
X164835317Y-2958162D01*
X165051441Y-2819090D01*
X165097969Y-2750994D01*
X165240302Y-2893327D01*
X165473691Y-2990000D01*
X165914250Y-2990000D01*
X166073000Y-2831250D01*
X166073000Y-2032000D01*
X166327000Y-2032000D01*
X166327000Y-2831250D01*
X166485750Y-2990000D01*
X166926309Y-2990000D01*
X167159698Y-2893327D01*
X167338327Y-2714699D01*
X167435000Y-2481310D01*
X167435000Y-2190750D01*
X167334417Y-2090167D01*
X176864838Y-2090167D01*
X177006883Y-2433943D01*
X177269673Y-2697192D01*
X177613201Y-2839838D01*
X177985167Y-2840162D01*
X178328943Y-2698117D01*
X178362118Y-2665000D01*
X179100895Y-2665000D01*
X179191910Y-2806441D01*
X179404110Y-2951431D01*
X179656000Y-3002440D01*
X180856000Y-3002440D01*
X181091317Y-2958162D01*
X181307441Y-2819090D01*
X181355134Y-2749289D01*
X181391910Y-2806441D01*
X181604110Y-2951431D01*
X181856000Y-3002440D01*
X183056000Y-3002440D01*
X183291317Y-2958162D01*
X183507441Y-2819090D01*
X183612726Y-2665000D01*
X185704895Y-2665000D01*
X185795910Y-2806441D01*
X186008110Y-2951431D01*
X186260000Y-3002440D01*
X187460000Y-3002440D01*
X187695317Y-2958162D01*
X187911441Y-2819090D01*
X187957969Y-2750994D01*
X188100302Y-2893327D01*
X188333691Y-2990000D01*
X188774250Y-2990000D01*
X188933000Y-2831250D01*
X188933000Y-2032000D01*
X189187000Y-2032000D01*
X189187000Y-2831250D01*
X189345750Y-2990000D01*
X189786309Y-2990000D01*
X190019698Y-2893327D01*
X190198327Y-2714699D01*
X190295000Y-2481310D01*
X190295000Y-2190750D01*
X190194417Y-2090167D01*
X198454838Y-2090167D01*
X198596883Y-2433943D01*
X198859673Y-2697192D01*
X199203201Y-2839838D01*
X199575167Y-2840162D01*
X199918943Y-2698117D01*
X199952118Y-2665000D01*
X201452895Y-2665000D01*
X201543910Y-2806441D01*
X201756110Y-2951431D01*
X202008000Y-3002440D01*
X203208000Y-3002440D01*
X203443317Y-2958162D01*
X203659441Y-2819090D01*
X203707134Y-2749289D01*
X203743910Y-2806441D01*
X203956110Y-2951431D01*
X204208000Y-3002440D01*
X205408000Y-3002440D01*
X205643317Y-2958162D01*
X205859441Y-2819090D01*
X205964726Y-2665000D01*
X207294895Y-2665000D01*
X207385910Y-2806441D01*
X207598110Y-2951431D01*
X207850000Y-3002440D01*
X209050000Y-3002440D01*
X209285317Y-2958162D01*
X209501441Y-2819090D01*
X209547969Y-2750994D01*
X209690302Y-2893327D01*
X209923691Y-2990000D01*
X210364250Y-2990000D01*
X210523000Y-2831250D01*
X210523000Y-2032000D01*
X210777000Y-2032000D01*
X210777000Y-2831250D01*
X210935750Y-2990000D01*
X211376309Y-2990000D01*
X211609698Y-2893327D01*
X211788327Y-2714699D01*
X211885000Y-2481310D01*
X211885000Y-2190750D01*
X218645000Y-2190750D01*
X218645000Y-2481310D01*
X218741673Y-2714699D01*
X218920302Y-2893327D01*
X219153691Y-2990000D01*
X219594250Y-2990000D01*
X219753000Y-2831250D01*
X219753000Y-2032000D01*
X218803750Y-2032000D01*
X218645000Y-2190750D01*
X211885000Y-2190750D01*
X211726250Y-2032000D01*
X210777000Y-2032000D01*
X210523000Y-2032000D01*
X210503000Y-2032000D01*
X210503000Y-1778000D01*
X210523000Y-1778000D01*
X210523000Y-978750D01*
X210777000Y-978750D01*
X210777000Y-1778000D01*
X211726250Y-1778000D01*
X211885000Y-1619250D01*
X211885000Y-1328690D01*
X218645000Y-1328690D01*
X218645000Y-1619250D01*
X218803750Y-1778000D01*
X219753000Y-1778000D01*
X219753000Y-978750D01*
X219594250Y-820000D01*
X219153691Y-820000D01*
X218920302Y-916673D01*
X218741673Y-1095301D01*
X218645000Y-1328690D01*
X211885000Y-1328690D01*
X211788327Y-1095301D01*
X211609698Y-916673D01*
X211376309Y-820000D01*
X210935750Y-820000D01*
X210777000Y-978750D01*
X210523000Y-978750D01*
X210364250Y-820000D01*
X209923691Y-820000D01*
X209690302Y-916673D01*
X209549064Y-1057910D01*
X209514090Y-1003559D01*
X209301890Y-858569D01*
X209050000Y-807560D01*
X207850000Y-807560D01*
X207614683Y-851838D01*
X207398559Y-990910D01*
X207293274Y-1145000D01*
X205963105Y-1145000D01*
X205872090Y-1003559D01*
X205659890Y-858569D01*
X205408000Y-807560D01*
X204208000Y-807560D01*
X203972683Y-851838D01*
X203756559Y-990910D01*
X203708866Y-1060711D01*
X203672090Y-1003559D01*
X203459890Y-858569D01*
X203208000Y-807560D01*
X202008000Y-807560D01*
X201772683Y-851838D01*
X201556559Y-990910D01*
X201451274Y-1145000D01*
X199952463Y-1145000D01*
X199920327Y-1112808D01*
X199576799Y-970162D01*
X199204833Y-969838D01*
X198861057Y-1111883D01*
X198597808Y-1374673D01*
X198455162Y-1718201D01*
X198454838Y-2090167D01*
X190194417Y-2090167D01*
X190136250Y-2032000D01*
X189187000Y-2032000D01*
X188933000Y-2032000D01*
X188913000Y-2032000D01*
X188913000Y-1778000D01*
X188933000Y-1778000D01*
X188933000Y-978750D01*
X189187000Y-978750D01*
X189187000Y-1778000D01*
X190136250Y-1778000D01*
X190295000Y-1619250D01*
X190295000Y-1328690D01*
X190198327Y-1095301D01*
X190019698Y-916673D01*
X189786309Y-820000D01*
X189345750Y-820000D01*
X189187000Y-978750D01*
X188933000Y-978750D01*
X188774250Y-820000D01*
X188333691Y-820000D01*
X188100302Y-916673D01*
X187959064Y-1057910D01*
X187924090Y-1003559D01*
X187711890Y-858569D01*
X187460000Y-807560D01*
X186260000Y-807560D01*
X186024683Y-851838D01*
X185808559Y-990910D01*
X185703274Y-1145000D01*
X183611105Y-1145000D01*
X183520090Y-1003559D01*
X183307890Y-858569D01*
X183056000Y-807560D01*
X181856000Y-807560D01*
X181620683Y-851838D01*
X181404559Y-990910D01*
X181356866Y-1060711D01*
X181320090Y-1003559D01*
X181107890Y-858569D01*
X180856000Y-807560D01*
X179656000Y-807560D01*
X179420683Y-851838D01*
X179204559Y-990910D01*
X179099274Y-1145000D01*
X178362463Y-1145000D01*
X178330327Y-1112808D01*
X177986799Y-970162D01*
X177614833Y-969838D01*
X177271057Y-1111883D01*
X177007808Y-1374673D01*
X176865162Y-1718201D01*
X176864838Y-2090167D01*
X167334417Y-2090167D01*
X167276250Y-2032000D01*
X166327000Y-2032000D01*
X166073000Y-2032000D01*
X166053000Y-2032000D01*
X166053000Y-1778000D01*
X166073000Y-1778000D01*
X166073000Y-978750D01*
X166327000Y-978750D01*
X166327000Y-1778000D01*
X167276250Y-1778000D01*
X167435000Y-1619250D01*
X167435000Y-1328690D01*
X167338327Y-1095301D01*
X167159698Y-916673D01*
X166926309Y-820000D01*
X166485750Y-820000D01*
X166327000Y-978750D01*
X166073000Y-978750D01*
X165914250Y-820000D01*
X165473691Y-820000D01*
X165240302Y-916673D01*
X165099064Y-1057910D01*
X165064090Y-1003559D01*
X164851890Y-858569D01*
X164600000Y-807560D01*
X163400000Y-807560D01*
X163164683Y-851838D01*
X162948559Y-990910D01*
X162843274Y-1145000D01*
X161259105Y-1145000D01*
X161168090Y-1003559D01*
X160955890Y-858569D01*
X160704000Y-807560D01*
X159504000Y-807560D01*
X159268683Y-851838D01*
X159052559Y-990910D01*
X159004866Y-1060711D01*
X158968090Y-1003559D01*
X158755890Y-858569D01*
X158504000Y-807560D01*
X157304000Y-807560D01*
X157068683Y-851838D01*
X156852559Y-990910D01*
X156747274Y-1145000D01*
X156137463Y-1145000D01*
X156105327Y-1112808D01*
X155761799Y-970162D01*
X155389833Y-969838D01*
X155067000Y-1103230D01*
X155067000Y-685000D01*
X227915000Y-685000D01*
X227915000Y-13843000D01*
M02*
