M48
;DRILL file {KiCad 4.0.7} date Thursday, October 12, 2017 'PMt' 07:19:08 PM
;FORMAT={-:-/ absolute / inch / decimal}
FMAT,2
INCH,TZ
T1C0.016
T2C0.030
T3C0.031
T4C0.039
T5C0.043
T6C0.045
T7C0.047
T8C0.118
T9C0.126
T10C0.138
%
G90
G05
M72
T1
X0.1Y-0.875
X0.5Y-0.275
X0.575Y-1.2
X0.825Y-0.075
X0.825Y-1.425
X1.1Y-1.32
X1.36Y-1.37
X1.375Y-1.
X1.375Y-1.25
X1.45Y-1.325
X1.475Y-0.7
X1.475Y-0.95
X1.475Y-1.425
X1.53Y-1.38
X1.57Y-1.36
X1.6Y-0.975
X1.625Y-0.7
X1.64Y-1.38
X1.725Y-0.075
X1.725Y-1.3
X1.725Y-1.425
X1.85Y-0.45
X2.025Y-1.325
X2.1Y-1.25
X2.125Y-1.3
X2.4Y-0.2
X2.525Y-0.875
X2.525Y-1.4
X2.65Y-0.75
X2.675Y-1.25
X2.7Y-1.35
X2.825Y-0.4
X3.075Y-0.275
X3.35Y-0.35
X3.45Y-1.425
X3.475Y-0.075
X3.475Y-0.225
X4.275Y-0.3
X4.275Y-1.35
X4.325Y-1.225
X4.35Y-1.425
X4.375Y-0.075
X4.375Y-1.25
X4.4Y-1.275
X4.475Y-0.925
X4.5Y-1.3
X4.55Y-1.325
X4.775Y-1.1
X4.875Y-0.2
X4.925Y-0.15
X5.025Y-1.325
X5.225Y-0.075
X5.25Y-1.375
X6.125Y-0.075
X6.15Y-1.35
X7.Y-0.075
X7.05Y-1.375
X7.1Y-1.025
X7.325Y-1.225
X7.375Y-1.25
X7.4Y-1.275
X7.475Y-0.9
X7.5Y-1.3
X7.525Y-1.35
X7.575Y-1.425
X7.85Y-0.075
X7.85Y-1.425
X8.775Y-1.425
X8.8Y-0.775
X8.925Y-0.25
T2
X0.535Y-0.724
X0.5476Y-0.8268
X0.5717Y-0.6272
X0.6063Y-0.9122
X0.6492Y-0.5583
X0.698Y-0.9602
X0.75Y-0.5335
X0.802Y-0.9602
X0.8508Y-0.5583
X0.8937Y-0.9122
X0.9283Y-0.6272
X0.9524Y-0.8268
X0.965Y-0.724
X2.035Y-0.724
X2.0476Y-0.8268
X2.0717Y-0.6272
X2.1063Y-0.9122
X2.1492Y-0.5583
X2.198Y-0.9602
X2.25Y-0.5335
X2.302Y-0.9602
X2.3508Y-0.5583
X2.3937Y-0.9122
X2.4283Y-0.6272
X2.4524Y-0.8268
X2.465Y-0.724
X3.535Y-0.724
X3.5476Y-0.8268
X3.5717Y-0.6272
X3.6063Y-0.9122
X3.6492Y-0.5583
X3.698Y-0.9602
X3.75Y-0.5335
X3.802Y-0.9602
X3.8508Y-0.5583
X3.8937Y-0.9122
X3.9283Y-0.6272
X3.9524Y-0.8268
X3.965Y-0.724
X5.035Y-0.724
X5.0476Y-0.8268
X5.0717Y-0.6272
X5.1063Y-0.9122
X5.1492Y-0.5583
X5.198Y-0.9602
X5.25Y-0.5335
X5.302Y-0.9602
X5.3508Y-0.5583
X5.3937Y-0.9122
X5.4283Y-0.6272
X5.4524Y-0.8268
X5.465Y-0.724
X6.535Y-0.724
X6.5476Y-0.8268
X6.5717Y-0.6272
X6.6063Y-0.9122
X6.6492Y-0.5583
X6.698Y-0.9602
X6.75Y-0.5335
X6.802Y-0.9602
X6.8508Y-0.5583
X6.8937Y-0.9122
X6.9283Y-0.6272
X6.9524Y-0.8268
X6.965Y-0.724
X8.035Y-0.724
X8.0476Y-0.8268
X8.0717Y-0.6272
X8.1063Y-0.9122
X8.1492Y-0.5583
X8.198Y-0.9602
X8.25Y-0.5335
X8.302Y-0.9602
X8.3508Y-0.5583
X8.3937Y-0.9122
X8.4283Y-0.6272
X8.4524Y-0.8268
X8.465Y-0.724
T3
X0.2713Y-0.55
X0.35Y-0.55
X1.475Y-0.1
X1.475Y-0.1787
X2.75Y-0.45
X2.75Y-0.55
X2.75Y-0.65
X2.75Y-0.75
X3.05Y-0.45
X3.05Y-0.55
X3.05Y-0.65
X3.05Y-0.75
T4
X2.6Y-0.1
X2.6Y-0.3
X2.6Y-0.4
X2.6Y-0.5
X2.6Y-0.6
X2.6Y-0.7
X2.6Y-1.3
X2.6Y-1.4
X3.2Y-0.1
X3.2Y-0.2
X3.2Y-0.3
X3.2Y-0.4
X3.2Y-0.5
X3.2Y-0.6
X3.2Y-1.3
X3.2Y-1.4
X8.575Y-0.4
X8.575Y-0.5
X8.575Y-0.6
X8.575Y-0.7
X8.575Y-0.8
X8.575Y-0.9
X8.575Y-1.
X8.575Y-1.1
T5
X4.9191Y-1.2228
X4.9191Y-1.4
X5.175Y-1.2228
X5.175Y-1.4
X5.7941Y-1.2228
X5.7941Y-1.4
X6.05Y-1.2228
X6.05Y-1.4
X6.6691Y-1.2228
X6.6691Y-1.4
X6.925Y-1.2228
X6.925Y-1.4
T6
X0.55Y-0.1
X0.65Y-0.1
X0.75Y-0.1
T7
X2.8872Y-0.175
X3.025Y-0.175
T8
X5.79Y-0.4319
X5.975Y-0.3138
T9
X0.25Y-0.25
X0.25Y-1.25
X8.75Y-0.25
X8.75Y-1.25
T10
X5.975Y-0.55
T0
M30
